SplineFontDB: 3.2
FontName: SFTransRobotics
FullName: SF TransRobotics
FamilyName: SF TransRobotics
Weight: Book
Copyright: Copyright (c) ShyFonts Type Foundry, 1999. All rights reserved.
Version: 2
ItalicAngle: 0
UnderlinePosition: -143
UnderlineWidth: 20
Ascent: 1638
Descent: 410
InvalidEm: 0
sfntRevision: 0x00010002
LayerCount: 2
Layer: 0 1 "Arri+AOgA-re" 1
Layer: 1 1 "Avant" 0
XUID: [1021 653 -1288683558 11259]
StyleMap: 0x0040
FSType: 4
OS2Version: 2
OS2_WeightWidthSlopeOnly: 0
OS2_UseTypoMetrics: 0
CreationTime: 935963571
ModificationTime: 1719776377
PfmFamily: 81
TTFWeight: 400
TTFWidth: 5
LineGap: 0
VLineGap: 0
Panose: 0 0 4 0 0 0 0 0 0 0
OS2TypoAscent: 1229
OS2TypoAOffset: 0
OS2TypoDescent: -408
OS2TypoDOffset: 0
OS2TypoLinegap: 0
OS2WinAscent: 1894
OS2WinAOffset: 0
OS2WinDescent: 664
OS2WinDOffset: 0
HheadAscent: 1229
HheadAOffset: 0
HheadDescent: -408
HheadDOffset: 0
OS2SubXSize: 1434
OS2SubYSize: 1329
OS2SubXOff: 0
OS2SubYOff: 293
OS2SupXSize: 1434
OS2SupYSize: 1329
OS2SupXOff: 0
OS2SupYOff: 928
OS2StrikeYSize: 209
OS2StrikeYPos: 1085
OS2Vendor: 'SHYF'
OS2CodePages: 00000001.00000000
OS2UnicodeRanges: 80000003.00000000.00000040.00000000
Lookup: 258 0 0 "'kern' Cr+AOkA-nage horizontal dans Latin lookup 0" { "sous-table 'kern' Cr+AOkA-nage horizontal dans Latin lookup 0"  } ['kern' ('DFLT' <'dflt' > 'latn' <'dflt' > ) ]
MarkAttachClasses: 1
DEI: 91125
TtTable: prep
PUSHW_1
 0
CALL
PUSHW_3
 0
 4
 7
CALL
EndTTInstrs
TtTable: fpgm
PUSHW_1
 0
FDEF
MPPEM
PUSHW_1
 9
LT
IF
PUSHB_2
 1
 1
INSTCTRL
EIF
PUSHW_1
 511
SCANCTRL
PUSHW_1
 132
SCVTCI
PUSHW_2
 9
 3
SDS
SDB
ENDF
PUSHW_1
 1
FDEF
DUP
DUP
RCVT
ROUND[Black]
WCVTP
PUSHB_1
 1
ADD
ENDF
PUSHW_1
 2
FDEF
PUSHW_1
 1
LOOPCALL
POP
ENDF
PUSHW_1
 3
FDEF
DUP
GC[cur]
PUSHB_1
 3
CINDEX
GC[cur]
GT
IF
SWAP
EIF
DUP
ROLL
DUP
ROLL
MD[grid]
ABS
ROLL
DUP
GC[cur]
DUP
ROUND[Grey]
SUB
ABS
PUSHB_1
 4
CINDEX
GC[cur]
DUP
ROUND[Grey]
SUB
ABS
GT
IF
SWAP
NEG
ROLL
EIF
MDAP[rnd]
DUP
PUSHB_1
 0
GTEQ
IF
ROUND[Black]
DUP
PUSHB_1
 0
EQ
IF
POP

StartChar: exclam
Encoding: 33 33 1
Width: 389
GlyphClass: 1
Flags: W
LayerCount: 2
Fore
SplineSet
328 369 m 1,0,-1
 61 369 l 1,1,-1
 61 1229 l 1,2,-1
 328 1229 l 1,3,-1
 328 369 l 1,0,-1
328 0 m 1,4,-1
 61 0 l 1,5,-1
 61 266 l 1,6,-1
 328 266 l 1,7,-1
 328 0 l 1,4,-1
EndSplineSet
Validated: 1
EndChar

StartChar: quotedbl
Encoding: 34 34 2
Width: 819
GlyphClass: 1
Flags: W
LayerCount: 2
Fore
SplineSet
758 1229 m 1,0,-1
 655 758 l 1,1,-1
 389 758 l 1,2,-1
 492 1229 l 1,3,-1
 758 1229 l 1,0,-1
430 1229 m 1,4,-1
 328 758 l 1,5,-1
 61 758 l 1,6,-1
 164 1229 l 1,7,-1
 430 1229 l 1,4,-1
EndSplineSet
Validated: 1
EndChar

StartChar: numbersign
Encoding: 35 35 3
Width: 1356
GlyphClass: 1
Flags: W
LayerCount: 2
Fore
SplineSet
1356 979 m 1,0,-1
 1315 739 l 1,1,-1
 1065 739 l 1,2,-1
 1020 489 l 1,3,-1
 1270 489 l 1,4,-1
 1229 250 l 1,5,-1
 979 250 l 1,6,-1
 934 0 l 1,7,-1
 694 0 l 1,8,-1
 739 250 l 1,9,-1
 489 250 l 1,10,-1
 444 0 l 1,11,-1
 205 0 l 1,12,-1
 250 250 l 1,13,-1
 0 250 l 1,14,-1
 41 489 l 1,15,-1
 291 489 l 1,16,-1
 336 739 l 1,17,-1
 86 739 l 1,18,-1
 127 979 l 1,19,-1
 377 979 l 1,20,-1
 422 1229 l 1,21,-1
 662 1229 l 1,22,-1
 616 979 l 1,23,-1
 866 979 l 1,24,-1
 911 1229 l 1,25,-1
 1151 1229 l 1,26,-1
 1106 979 l 1,27,-1
 1356 979 l 1,0,-1
825 739 m 1,28,-1
 575 739 l 1,29,-1
 530 489 l 1,30,-1
 780 489 l 1,31,-1
 825 739 l 1,28,-1
EndSplineSet
Validated: 1
EndChar

StartChar: dollar
Encoding: 36 36 4
Width: 1147
GlyphClass: 1
Flags: W
LayerCount: 2
Fore
SplineSet
1085 123 m 2,0,1
 1085 74 1085 74 1048 37 c 0,2,3
 1012 0 1012 0 963 0 c 2,4,-1
 707 0 l 1,5,-1
 707 -203 l 1,6,-1
 440 -203 l 1,7,-1
 440 0 l 1,8,-1
 184 0 l 1,9,-1
 61 266 l 1,10,-1
 717 266 l 1,11,-1
 717 512 l 1,12,-1
 184 512 l 2,13,14
 135 512 135 512 98 549 c 128,-1,15
 61 586 61 586 61 635 c 2,16,-1
 61 1106 l 2,17,18
 61 1155 61 1155 98 1192 c 128,-1,19
 135 1229 135 1229 184 1229 c 2,20,-1
 440 1229 l 1,21,-1
 440 1434 l 1,22,-1
 707 1434 l 1,23,-1
 707 1229 l 1,24,-1
 1085 1229 l 1,25,-1
 1085 963 l 1,26,-1
 430 963 l 1,27,-1
 430 717 l 1,28,-1
 963 717 l 2,29,30
 1012 717 1012 717 1048 680 c 0,31,32
 1085 643 1085 643 1085 594 c 2,33,-1
 1085 123 l 2,0,1
EndSplineSet
Validated: 1
EndChar

StartChar: percent
Encoding: 37 37 5
Width: 1511
GlyphClass: 1
Flags: W
LayerCount: 2
Fore
SplineSet
1450 61 m 2,0,1
 1450 37 1450 37 1431.5 18.5 c 128,-1,2
 1413 0 1413 0 1389 0 c 2,3,-1
 1051 0 l 2,4,5
 1026 0 1026 0 1007.5 18.5 c 128,-1,6
 989 37 989 37 989 61 c 2,7,-1
 989 553 l 2,8,9
 989 578 989 578 1007.5 596 c 128,-1,10
 1026 614 1026 614 1051 614 c 2,11,-1
 1389 614 l 2,12,13
 1413 614 1413 614 1431.5 596 c 128,-1,14
 1450 578 1450 578 1450 553 c 2,15,-1
 1450 61 l 2,0,1
1194 1229 m 1,16,-1
 598 0 l 1,17,-1
 317 0 l 1,18,-1
 913 1229 l 1,19,-1
 1194 1229 l 1,16,-1
522 676 m 2,20,21
 522 651 522 651 503.5 632.5 c 128,-1,22
 485 614 485 614 461 614 c 2,23,-1
 123 614 l 2,24,25
 98 614 98 614 79.5 632.5 c 128,-1,26
 61 651 61 651 61 676 c 2,27,-1
 61 1167 l 2,28,29
 61 1192 61 1192 79.5 1210.5 c 128,-1,30
 98 1229 98 1229 123 1229 c 2,31,-1
 461 1229 l 2,32,33
 485 1229 485 1229 503.5 1210.5 c 128,-1,34
 522 1192 522 1192 522 1167 c 2,35,-1
 522 676 l 2,20,21
1266 133 m 1,36,-1
 1266 481 l 1,37,-1
 1174 481 l 1,38,-1
 1174 133 l 1,39,-1
 1266 133 l 1,36,-1
338 748 m 1,40,-1
 338 1096 l 1,41,-1
 246 1096 l 1,42,-1
 246 748 l 1,43,-1
 338 748 l 1,40,-1
EndSplineSet
Validated: 1
EndChar

StartChar: ampersand
Encoding: 38 38 6
Width: 1044
GlyphClass: 1
Flags: W
LayerCount: 2
Fore
SplineSet
983 0 m 1,0,-1
 655 0 l 1,1,-1
 655 -203 l 1,2,-1
 389 -203 l 1,3,-1
 389 0 l 1,4,-1
 184 0 l 2,5,6
 135 0 135 0 98 37 c 128,-1,7
 61 74 61 74 61 123 c 2,8,-1
 61 512 l 2,9,10
 61 557 61 557 102 586 c 0,11,12
 138 613 138 613 184 614 c 1,13,14
 135 614 135 614 98 651 c 128,-1,15
 61 688 61 688 61 737 c 2,16,-1
 61 1106 l 2,17,18
 61 1155 61 1155 98 1192 c 128,-1,19
 135 1229 135 1229 184 1229 c 2,20,-1
 389 1229 l 1,21,-1
 389 1434 l 1,22,-1
 655 1434 l 1,23,-1
 655 1229 l 1,24,-1
 983 1229 l 1,25,-1
 983 963 l 1,26,-1
 430 963 l 1,27,-1
 430 717 l 1,28,-1
 778 717 l 1,29,-1
 778 512 l 1,30,-1
 430 512 l 1,31,-1
 430 266 l 1,32,-1
 983 266 l 1,33,-1
 983 0 l 1,0,-1
EndSplineSet
Validated: 1
EndChar

StartChar: quotesingle
Encoding: 39 39 7
Width: 492
GlyphClass: 1
Flags: W
LayerCount: 2
Fore
SplineSet
430 1229 m 1,0,-1
 328 758 l 1,1,-1
 61 758 l 1,2,-1
 164 1229 l 1,3,-1
 430 1229 l 1,0,-1
EndSplineSet
Validated: 1
EndChar

StartChar: parenleft
Encoding: 40 40 8
Width: 594
GlyphClass: 1
Flags: W
LayerCount: 2
Fore
SplineSet
532 -203 m 1,0,-1
 266 -203 l 1,1,2
 61 165 61 165 61 614 c 0,3,4
 61 1064 61 1064 266 1434 c 1,5,-1
 532 1434 l 1,6,7
 328 1063 328 1063 328 614 c 0,8,9
 328 166 328 166 532 -203 c 1,0,-1
EndSplineSet
Validated: 1
EndChar

StartChar: parenright
Encoding: 41 41 9
Width: 594
GlyphClass: 1
Flags: W
LayerCount: 2
Fore
SplineSet
532 614 m 0,0,1
 532 166 532 166 328 -203 c 1,2,-1
 61 -203 l 1,3,4
 266 165 266 165 266 614 c 0,5,6
 266 1061 266 1061 61 1434 c 1,7,-1
 328 1434 l 1,8,9
 532 1060 532 1060 532 614 c 0,0,1
EndSplineSet
Validated: 1
EndChar

StartChar: asterisk
Encoding: 42 42 10
Width: 1073
GlyphClass: 1
Flags: W
LayerCount: 2
Fore
SplineSet
1012 578 m 1,0,-1
 913 406 l 1,1,-1
 635 567 l 1,2,-1
 635 246 l 1,3,-1
 438 246 l 1,4,-1
 438 567 l 1,5,-1
 160 406 l 1,6,-1
 61 578 l 1,7,-1
 340 737 l 1,8,-1
 61 897 l 1,9,-1
 160 1069 l 1,10,-1
 438 907 l 1,11,-1
 438 1229 l 1,12,-1
 635 1229 l 1,13,-1
 635 907 l 1,14,-1
 913 1069 l 1,15,-1
 1012 897 l 1,16,-1
 733 737 l 1,17,-1
 1012 578 l 1,0,-1
EndSplineSet
Validated: 1
EndChar

StartChar: plus
Encoding: 43 43 11
Width: 942
GlyphClass: 1
Flags: W
LayerCount: 2
Fore
SplineSet
881 481 m 1,0,-1
 604 481 l 1,1,-1
 604 205 l 1,2,-1
 338 205 l 1,3,-1
 338 481 l 1,4,-1
 61 481 l 1,5,-1
 61 748 l 1,6,-1
 338 748 l 1,7,-1
 338 1024 l 1,8,-1
 604 1024 l 1,9,-1
 604 748 l 1,10,-1
 881 748 l 1,11,-1
 881 481 l 1,0,-1
EndSplineSet
Validated: 1
EndChar

StartChar: comma
Encoding: 44 44 12
Width: 492
GlyphClass: 1
Flags: W
LayerCount: 2
Fore
SplineSet
430 266 m 1,0,-1
 328 -203 l 1,1,-1
 61 -203 l 1,2,-1
 164 266 l 1,3,-1
 430 266 l 1,0,-1
EndSplineSet
Validated: 1
EndChar

StartChar: hyphen
Encoding: 45 45 13
Width: 942
GlyphClass: 1
Flags: W
LayerCount: 2
Fore
SplineSet
881 481 m 1,0,-1
 61 481 l 1,1,-1
 61 748 l 1,2,-1
 881 748 l 1,3,-1
 881 481 l 1,0,-1
EndSplineSet
Validated: 1
EndChar

StartChar: period
Encoding: 46 46 14
Width: 389
GlyphClass: 1
Flags: W
LayerCount: 2
Fore
SplineSet
328 0 m 1,0,-1
 61 0 l 1,1,-1
 61 266 l 1,2,-1
 328 266 l 1,3,-1
 328 0 l 1,0,-1
EndSplineSet
Validated: 1
EndChar

StartChar: slash
Encoding: 47 47 15
Width: 903
GlyphClass: 1
Flags: W
LayerCount: 2
Fore
SplineSet
903 1434 m 1,0,-1
 307 -203 l 1,1,-1
 0 -203 l 1,2,-1
 596 1434 l 1,3,-1
 903 1434 l 1,0,-1
EndSplineSet
Validated: 1
EndChar

StartChar: zero
Encoding: 48 48 16
Width: 1147
GlyphClass: 1
Flags: W
LayerCount: 2
Fore
SplineSet
1085 123 m 2,0,1
 1085 74 1085 74 1048 37 c 0,2,3
 1012 0 1012 0 963 0 c 2,4,-1
 184 0 l 2,5,6
 135 0 135 0 98 37 c 128,-1,7
 61 74 61 74 61 123 c 2,8,-1
 61 1106 l 2,9,10
 61 1155 61 1155 98 1192 c 128,-1,11
 135 1229 135 1229 184 1229 c 2,12,-1
 963 1229 l 2,13,14
 1012 1229 1012 1229 1048 1192 c 0,15,16
 1085 1155 1085 1155 1085 1106 c 2,17,-1
 1085 123 l 2,0,1
717 266 m 1,18,-1
 717 963 l 1,19,-1
 430 963 l 1,20,-1
 430 266 l 1,21,-1
 717 266 l 1,18,-1
EndSplineSet
Validated: 1
EndChar

StartChar: one
Encoding: 49 49 17
Width: 635
GlyphClass: 1
Flags: W
LayerCount: 2
Fore
SplineSet
573 0 m 1,0,-1
 205 0 l 1,1,-1
 205 963 l 1,2,-1
 0 963 l 1,3,-1
 123 1229 l 1,4,-1
 573 1229 l 1,5,-1
 573 0 l 1,0,-1
EndSplineSet
Validated: 1
EndChar

StartChar: two
Encoding: 50 50 18
Width: 1147
GlyphClass: 1
Flags: W
LayerCount: 2
Fore
SplineSet
1085 0 m 1,0,-1
 184 0 l 2,1,2
 135 0 135 0 98 37 c 128,-1,3
 61 74 61 74 61 123 c 2,4,-1
 61 594 l 2,5,6
 61 643 61 643 98 680 c 128,-1,7
 135 717 135 717 184 717 c 2,8,-1
 717 717 l 1,9,-1
 717 963 l 1,10,-1
 61 963 l 1,11,-1
 61 1229 l 1,12,-1
 963 1229 l 2,13,14
 1012 1229 1012 1229 1048 1192 c 0,15,16
 1085 1155 1085 1155 1085 1106 c 2,17,-1
 1085 635 l 2,18,19
 1085 586 1085 586 1048 549 c 0,20,21
 1012 512 1012 512 963 512 c 2,22,-1
 430 512 l 1,23,-1
 430 266 l 1,24,-1
 1085 266 l 1,25,-1
 1085 0 l 1,0,-1
EndSplineSet
Validated: 1
EndChar

StartChar: three
Encoding: 51 51 19
Width: 1147
GlyphClass: 1
Flags: W
LayerCount: 2
Fore
SplineSet
1085 123 m 2,0,1
 1085 74 1085 74 1048 37 c 0,2,3
 1012 0 1012 0 963 0 c 2,4,-1
 61 0 l 1,5,-1
 61 266 l 1,6,-1
 717 266 l 1,7,-1
 717 512 l 1,8,-1
 266 512 l 1,9,-1
 266 717 l 1,10,-1
 717 717 l 1,11,-1
 717 963 l 1,12,-1
 61 963 l 1,13,-1
 61 1229 l 1,14,-1
 963 1229 l 2,15,16
 1012 1229 1012 1229 1048 1192 c 0,17,18
 1085 1155 1085 1155 1085 1106 c 2,19,-1
 1085 737 l 2,20,21
 1085 688 1085 688 1048 651 c 0,22,23
 1012 614 1012 614 963 614 c 1,24,25
 1009 612 1009 612 1047 584 c 0,26,27
 1085 557 1085 557 1085 512 c 2,28,-1
 1085 123 l 2,0,1
EndSplineSet
Validated: 1
EndChar

StartChar: four
Encoding: 52 52 20
Width: 1147
GlyphClass: 1
Flags: W
LayerCount: 2
Fore
SplineSet
1085 0 m 1,0,-1
 717 0 l 1,1,-1
 717 307 l 1,2,-1
 61 307 l 1,3,-1
 61 1229 l 1,4,-1
 430 1229 l 1,5,-1
 430 512 l 1,6,-1
 717 512 l 1,7,-1
 717 819 l 1,8,-1
 1085 819 l 1,9,-1
 1085 0 l 1,0,-1
EndSplineSet
Validated: 1
EndChar

StartChar: five
Encoding: 53 53 21
Width: 1147
GlyphClass: 1
Flags: W
LayerCount: 2
Fore
SplineSet
1085 123 m 2,0,1
 1085 74 1085 74 1048 37 c 0,2,3
 1012 0 1012 0 963 0 c 2,4,-1
 61 0 l 1,5,-1
 184 266 l 1,6,-1
 717 266 l 1,7,-1
 717 512 l 1,8,-1
 61 512 l 1,9,-1
 61 1229 l 1,10,-1
 1085 1229 l 1,11,-1
 1085 963 l 1,12,-1
 430 963 l 1,13,-1
 430 717 l 1,14,-1
 963 717 l 2,15,16
 1012 717 1012 717 1048 680 c 0,17,18
 1085 643 1085 643 1085 594 c 2,19,-1
 1085 123 l 2,0,1
EndSplineSet
Validated: 1
EndChar

StartChar: six
Encoding: 54 54 22
Width: 1147
GlyphClass: 1
Flags: W
LayerCount: 2
Fore
SplineSet
1085 123 m 2,0,1
 1085 74 1085 74 1048 37 c 0,2,3
 1012 0 1012 0 963 0 c 2,4,-1
 184 0 l 2,5,6
 135 0 135 0 98 37 c 128,-1,7
 61 74 61 74 61 123 c 2,8,-1
 61 1106 l 2,9,10
 61 1155 61 1155 98 1192 c 128,-1,11
 135 1229 135 1229 184 1229 c 2,12,-1
 1085 1229 l 1,13,-1
 963 963 l 1,14,-1
 430 963 l 1,15,-1
 430 799 l 1,16,-1
 963 799 l 2,17,18
 1012 799 1012 799 1048 762 c 0,19,20
 1085 725 1085 725 1085 676 c 2,21,-1
 1085 123 l 2,0,1
717 266 m 1,22,-1
 717 594 l 1,23,-1
 430 594 l 1,24,-1
 430 266 l 1,25,-1
 717 266 l 1,22,-1
EndSplineSet
Validated: 1
EndChar

StartChar: seven
Encoding: 55 55 23
Width: 1106
GlyphClass: 1
Flags: W
LayerCount: 2
Fore
SplineSet
1085 1229 m 1,0,-1
 676 0 l 1,1,-1
 307 0 l 1,2,-1
 629 963 l 1,3,-1
 61 963 l 1,4,-1
 61 1229 l 1,5,-1
 1085 1229 l 1,0,-1
EndSplineSet
Validated: 1
EndChar

StartChar: eight
Encoding: 56 56 24
Width: 1147
GlyphClass: 1
Flags: W
LayerCount: 2
Fore
SplineSet
1085 123 m 2,0,1
 1085 74 1085 74 1048 37 c 0,2,3
 1012 0 1012 0 963 0 c 2,4,-1
 184 0 l 2,5,6
 135 0 135 0 98 37 c 128,-1,7
 61 74 61 74 61 123 c 2,8,-1
 61 512 l 2,9,10
 61 557 61 557 102 586 c 0,11,12
 138 613 138 613 184 614 c 1,13,14
 135 614 135 614 98 651 c 128,-1,15
 61 688 61 688 61 737 c 2,16,-1
 61 1106 l 2,17,18
 61 1155 61 1155 98 1192 c 128,-1,19
 135 1229 135 1229 184 1229 c 2,20,-1
 963 1229 l 2,21,22
 1012 1229 1012 1229 1048 1192 c 0,23,24
 1085 1155 1085 1155 1085 1106 c 2,25,-1
 1085 737 l 2,26,27
 1085 688 1085 688 1048 651 c 0,28,29
 1012 614 1012 614 963 614 c 1,30,31
 1009 612 1009 612 1047 584 c 0,32,33
 1085 557 1085 557 1085 512 c 2,34,-1
 1085 123 l 2,0,1
717 717 m 1,35,-1
 717 963 l 1,36,-1
 430 963 l 1,37,-1
 430 717 l 1,38,-1
 717 717 l 1,35,-1
717 266 m 1,39,-1
 717 512 l 1,40,-1
 430 512 l 1,41,-1
 430 266 l 1,42,-1
 717 266 l 1,39,-1
EndSplineSet
Validated: 1
EndChar

StartChar: nine
Encoding: 57 57 25
Width: 1147
GlyphClass: 1
Flags: W
LayerCount: 2
Fore
SplineSet
1085 123 m 2,0,1
 1085 74 1085 74 1048 37 c 0,2,3
 1012 0 1012 0 963 0 c 2,4,-1
 61 0 l 1,5,-1
 184 266 l 1,6,-1
 717 266 l 1,7,-1
 717 430 l 1,8,-1
 184 430 l 2,9,10
 135 430 135 430 98 467 c 128,-1,11
 61 504 61 504 61 553 c 2,12,-1
 61 1106 l 2,13,14
 61 1155 61 1155 98 1192 c 128,-1,15
 135 1229 135 1229 184 1229 c 2,16,-1
 963 1229 l 2,17,18
 1012 1229 1012 1229 1048 1192 c 0,19,20
 1085 1155 1085 1155 1085 1106 c 2,21,-1
 1085 123 l 2,0,1
717 635 m 1,22,-1
 717 963 l 1,23,-1
 430 963 l 1,24,-1
 430 635 l 1,25,-1
 717 635 l 1,22,-1
EndSplineSet
Validated: 1
EndChar

StartChar: colon
Encoding: 58 58 26
Width: 389
GlyphClass: 1
Flags: W
LayerCount: 2
Fore
SplineSet
328 655 m 1,0,-1
 61 655 l 1,1,-1
 61 922 l 1,2,-1
 328 922 l 1,3,-1
 328 655 l 1,0,-1
328 0 m 1,4,-1
 61 0 l 1,5,-1
 61 266 l 1,6,-1
 328 266 l 1,7,-1
 328 0 l 1,4,-1
EndSplineSet
Validated: 1
EndChar

StartChar: semicolon
Encoding: 59 59 27
Width: 492
GlyphClass: 1
Flags: W
LayerCount: 2
Fore
SplineSet
430 655 m 1,0,-1
 164 655 l 1,1,-1
 164 922 l 1,2,-1
 430 922 l 1,3,-1
 430 655 l 1,0,-1
430 266 m 1,4,-1
 328 -203 l 1,5,-1
 61 -203 l 1,6,-1
 164 266 l 1,7,-1
 430 266 l 1,4,-1
EndSplineSet
Validated: 1
EndChar

StartChar: less
Encoding: 60 60 28
Width: 1505
GlyphClass: 1
Flags: W
LayerCount: 2
Fore
SplineSet
1444 1188 m 1,0,-1
 1380 788 l 1,1,-1
 1085 598 l 1,2,-1
 883 598 l 1,3,-1
 946 881 l 1,4,-1
 1200 1040 l 1,5,-1
 1223 1188 l 1,6,-1
 1444 1188 l 1,0,-1
1141 1188 m 1,7,-1
 1124 1081 l 1,8,-1
 754 844 l 1,9,-1
 381 1081 l 1,10,-1
 365 1188 l 1,11,12
 544 1276 544 1276 754 1276 c 0,13,14
 962 1276 962 1276 1141 1188 c 1,7,-1
1346 668 m 1,15,-1
 1286 168 l 1,16,-1
 1085 31 l 1,17,-1
 1085 418 l 1,18,-1
 1214 502 l 1,19,-1
 1214 584 l 1,20,-1
 1346 668 l 1,15,-1
868 831 m 1,21,22
 858 793 858 793 848.5 756 c 128,-1,23
 839 719 839 719 829 682 c 0,24,25
 807 595 807 595 807 528 c 0,26,27
 807 523 807 523 807.5 516 c 128,-1,28
 808 509 808 509 809 500 c 2,29,-1
 809 471 l 1,30,-1
 809 279 l 1,31,-1
 698 279 l 1,32,33
 698 296 698 296 698.5 326 c 128,-1,34
 699 356 699 356 700 401 c 2,35,-1
 700 524 l 2,36,37
 700 592 700 592 678 680 c 0,38,39
 667 718 667 718 657 755.5 c 128,-1,40
 647 793 647 793 637 831 c 1,41,-1
 754 758 l 1,42,-1
 868 831 l 1,21,22
625 598 m 1,43,-1
 422 598 l 1,44,-1
 125 788 l 1,45,-1
 61 1188 l 1,46,-1
 283 1188 l 1,47,-1
 305 1040 l 1,48,-1
 559 881 l 1,49,-1
 625 598 l 1,43,-1
1016 -16 m 1,50,-1
 961 -53 l 1,51,-1
 883 135 l 1,52,-1
 625 135 l 1,53,-1
 545 -53 l 1,54,-1
 489 -16 l 1,55,-1
 489 403 l 1,56,-1
 625 496 l 1,57,-1
 625 197 l 1,58,-1
 883 197 l 1,59,-1
 883 496 l 1,60,-1
 1016 403 l 1,61,-1
 1016 -16 l 1,50,-1
887 -53 m 1,62,-1
 618 -53 l 1,63,-1
 674 74 l 1,64,-1
 831 74 l 1,65,-1
 887 -53 l 1,62,-1
420 31 m 1,66,-1
 219 168 l 1,67,-1
 160 668 l 1,68,-1
 291 584 l 1,69,-1
 291 502 l 1,70,-1
 420 418 l 1,71,-1
 420 31 l 1,66,-1
1325 1063 m 1,72,-1
 983 842 l 1,73,-1
 983 780 l 1,74,-1
 1313 991 l 1,75,-1
 1325 1063 l 1,72,-1
1303 924 m 1,76,-1
 961 702 l 1,77,-1
 961 641 l 1,78,-1
 1290 852 l 1,79,-1
 1303 924 l 1,76,-1
924 1126 m 1,80,81
 840 1153 840 1153 752 1153 c 0,82,83
 666 1153 666 1153 582 1126 c 1,84,-1
 754 1010 l 1,85,-1
 924 1126 l 1,80,81
522 780 m 1,86,-1
 522 842 l 1,87,-1
 182 1063 l 1,88,-1
 193 991 l 1,89,-1
 522 780 l 1,86,-1
545 641 m 1,90,-1
 545 702 l 1,91,-1
 203 924 l 1,92,-1
 215 852 l 1,93,-1
 545 641 l 1,90,-1
EndSplineSet
Validated: 1
EndChar

StartChar: equal
Encoding: 61 61 29
Width: 942
GlyphClass: 1
Flags: W
LayerCount: 2
Fore
SplineSet
881 686 m 1,0,-1
 61 686 l 1,1,-1
 61 952 l 1,2,-1
 881 952 l 1,3,-1
 881 686 l 1,0,-1
881 276 m 1,4,-1
 61 276 l 1,5,-1
 61 543 l 1,6,-1
 881 543 l 1,7,-1
 881 276 l 1,4,-1
EndSplineSet
Validated: 1
EndChar

StartChar: greater
Encoding: 62 62 30
Width: 1546
GlyphClass: 1
Flags: W
LayerCount: 2
Fore
SplineSet
1032 1235 m 1,0,-1
 934 694 l 1,1,-1
 893 672 l 1,2,-1
 829 590 l 1,3,-1
 717 590 l 1,4,-1
 651 672 l 1,5,-1
 610 694 l 1,6,-1
 512 1235 l 1,7,-1
 702 1065 l 1,8,-1
 842 1065 l 1,9,-1
 1032 1235 l 1,0,-1
1485 1290 m 1,10,-1
 1370 684 l 1,11,-1
 772 -70 l 1,12,-1
 176 684 l 1,13,-1
 61 1290 l 1,14,-1
 297 1059 l 1,15,-1
 475 1020 l 1,16,-1
 510 846 l 1,17,-1
 287 883 l 1,18,-1
 301 809 l 1,19,-1
 522 772 l 1,20,-1
 539 696 l 1,21,-1
 313 733 l 1,22,-1
 328 657 l 1,23,-1
 623 602 l 1,24,-1
 772 416 l 1,25,-1
 924 602 l 1,26,-1
 1219 657 l 1,27,-1
 1231 733 l 1,28,-1
 1008 696 l 1,29,-1
 1022 772 l 1,30,-1
 1245 809 l 1,31,-1
 1260 883 l 1,32,-1
 1036 846 l 1,33,-1
 1071 1020 l 1,34,-1
 1249 1059 l 1,35,-1
 1485 1290 l 1,10,-1
1350 565 m 1,36,-1
 1251 10 l 1,37,38
 1238 7 1238 7 1202 0 c 128,-1,39
 1166 -7 1166 -7 1106 -18 c 2,40,-1
 838 -72 l 1,41,-1
 1350 565 l 1,36,-1
709 -72 m 1,42,-1
 440 -18 l 2,43,44
 415 -14 415 -14 379 -7 c 128,-1,45
 343 0 343 0 295 10 c 1,46,-1
 197 565 l 1,47,-1
 709 -72 l 1,42,-1
836 883 m 1,48,-1
 711 883 l 1,49,-1
 772 745 l 1,50,-1
 836 883 l 1,48,-1
1100 510 m 1,51,-1
 848 389 l 1,52,-1
 887 240 l 1,53,-1
 1100 510 l 1,51,-1
698 389 m 1,54,-1
 444 510 l 1,55,-1
 659 240 l 1,56,-1
 698 389 l 1,54,-1
EndSplineSet
Validated: 1
EndChar

StartChar: question
Encoding: 63 63 31
Width: 1065
GlyphClass: 1
Flags: W
LayerCount: 2
Fore
SplineSet
1004 635 m 2,0,1
 1004 586 1004 586 967 549 c 128,-1,2
 930 512 930 512 881 512 c 2,3,-1
 328 512 l 1,4,-1
 328 369 l 1,5,-1
 61 369 l 1,6,-1
 61 594 l 2,7,8
 61 643 61 643 98 680 c 128,-1,9
 135 717 135 717 184 717 c 2,10,-1
 737 717 l 1,11,-1
 737 1024 l 1,12,-1
 328 1024 l 1,13,-1
 328 922 l 1,14,-1
 61 922 l 1,15,-1
 61 1106 l 2,16,17
 61 1155 61 1155 98 1192 c 128,-1,18
 135 1229 135 1229 184 1229 c 2,19,-1
 881 1229 l 2,20,21
 930 1229 930 1229 967 1192 c 128,-1,22
 1004 1155 1004 1155 1004 1106 c 2,23,-1
 1004 635 l 2,0,1
328 0 m 1,24,-1
 61 0 l 1,25,-1
 61 266 l 1,26,-1
 328 266 l 1,27,-1
 328 0 l 1,24,-1
EndSplineSet
Validated: 1
EndChar

StartChar: at
Encoding: 64 64 32
Width: 1288
GlyphClass: 1
Flags: W
LayerCount: 2
Fore
SplineSet
1227 92 m 1,0,-1
 129 92 l 2,1,2
 102 92 102 92 81.5 112.5 c 128,-1,3
 61 133 61 133 61 160 c 2,4,-1
 61 1067 l 2,5,6
 61 1094 61 1094 81.5 1115.5 c 128,-1,7
 102 1137 102 1137 129 1137 c 2,8,-1
 1155 1137 l 2,9,10
 1184 1137 1184 1137 1205.5 1116.5 c 128,-1,11
 1227 1096 1227 1096 1227 1067 c 2,12,-1
 1227 424 l 2,13,14
 1227 356 1227 356 1155 356 c 2,15,-1
 449 356 l 2,16,17
 422 356 422 356 400.5 376.5 c 128,-1,18
 379 397 379 397 379 424 c 2,19,-1
 379 598 l 2,20,21
 379 625 379 625 400.5 645.5 c 128,-1,22
 422 666 422 666 449 666 c 2,23,-1
 700 666 l 1,24,-1
 700 725 l 1,25,-1
 379 725 l 1,26,-1
 379 874 l 1,27,-1
 840 874 l 2,28,29
 853 874 853 874 865.5 868 c 128,-1,30
 878 862 878 862 887.5 852.5 c 128,-1,31
 897 843 897 843 903 830.5 c 128,-1,32
 909 818 909 818 909 805 c 2,33,-1
 909 506 l 1,34,-1
 1018 506 l 1,35,-1
 1018 987 l 1,36,-1
 268 987 l 1,37,-1
 268 240 l 1,38,-1
 1227 240 l 1,39,-1
 1227 92 l 1,0,-1
700 506 m 1,40,-1
 700 553 l 1,41,-1
 588 553 l 1,42,-1
 588 506 l 1,43,-1
 700 506 l 1,40,-1
EndSplineSet
Validated: 1
EndChar

StartChar: A
Encoding: 65 65 33
Width: 1311
GlyphClass: 1
Flags: W
LayerCount: 2
Fore
SplineSet
1372 0 m 1,0,-1
 553 0 l 1,1,-1
 553 266 l 1,2,-1
 852 266 l 1,3,-1
 655 737 l 1,4,-1
 348 0 l 1,5,-1
 -59 0 l 1,6,-1
 451 1229 l 1,7,-1
 860 1229 l 1,8,-1
 1372 0 l 1,0,-1
EndSplineSet
Validated: 1
EndChar

StartChar: B
Encoding: 66 66 34
Width: 1147
GlyphClass: 1
Flags: W
LayerCount: 2
Fore
SplineSet
1085 123 m 2,0,1
 1085 74 1085 74 1048 37 c 0,2,3
 1012 0 1012 0 963 0 c 2,4,-1
 61 0 l 1,5,-1
 61 1229 l 1,6,-1
 963 1229 l 2,7,8
 1012 1229 1012 1229 1048 1192 c 0,9,10
 1085 1155 1085 1155 1085 1106 c 2,11,-1
 1085 737 l 2,12,13
 1085 688 1085 688 1048 651 c 0,14,15
 1012 614 1012 614 963 614 c 1,16,17
 1009 612 1009 612 1047 584 c 0,18,19
 1085 557 1085 557 1085 512 c 2,20,-1
 1085 123 l 2,0,1
717 717 m 1,21,-1
 717 963 l 1,22,-1
 430 963 l 1,23,-1
 430 717 l 1,24,-1
 717 717 l 1,21,-1
717 266 m 1,25,-1
 717 512 l 1,26,-1
 430 512 l 1,27,-1
 430 266 l 1,28,-1
 717 266 l 1,25,-1
EndSplineSet
Validated: 1
EndChar

StartChar: C
Encoding: 67 67 35
Width: 1106
GlyphClass: 1
Flags: W
LayerCount: 2
Fore
SplineSet
1085 266 m 1,0,-1
 963 0 l 1,1,-1
 184 0 l 2,2,3
 135 0 135 0 98 37 c 128,-1,4
 61 74 61 74 61 123 c 2,5,-1
 61 1106 l 2,6,7
 61 1155 61 1155 98 1192 c 128,-1,8
 135 1229 135 1229 184 1229 c 2,9,-1
 1085 1229 l 1,10,-1
 963 963 l 1,11,-1
 430 963 l 1,12,-1
 430 266 l 1,13,-1
 1085 266 l 1,0,-1
EndSplineSet
Validated: 1
EndChar

StartChar: D
Encoding: 68 68 36
Width: 1147
GlyphClass: 1
Flags: W
LayerCount: 2
Fore
SplineSet
1085 123 m 2,0,1
 1085 74 1085 74 1048 37 c 0,2,3
 1012 0 1012 0 963 0 c 2,4,-1
 61 0 l 1,5,-1
 61 1229 l 1,6,-1
 963 1229 l 2,7,8
 1012 1229 1012 1229 1048 1192 c 0,9,10
 1085 1155 1085 1155 1085 1106 c 2,11,-1
 1085 123 l 2,0,1
717 266 m 1,12,-1
 717 963 l 1,13,-1
 430 963 l 1,14,-1
 430 266 l 1,15,-1
 717 266 l 1,12,-1
EndSplineSet
Validated: 1
EndChar

StartChar: E
Encoding: 69 69 37
Width: 1106
GlyphClass: 1
Flags: W
LayerCount: 2
Fore
SplineSet
1085 266 m 1,0,-1
 963 0 l 1,1,-1
 61 0 l 1,2,-1
 61 1229 l 1,3,-1
 1085 1229 l 1,4,-1
 963 963 l 1,5,-1
 430 963 l 1,6,-1
 430 717 l 1,7,-1
 963 717 l 1,8,-1
 963 512 l 1,9,-1
 430 512 l 1,10,-1
 430 266 l 1,11,-1
 1085 266 l 1,0,-1
EndSplineSet
Validated: 1
EndChar

StartChar: F
Encoding: 70 70 38
Width: 1106
GlyphClass: 1
Flags: W
LayerCount: 2
Fore
SplineSet
1085 1229 m 1,0,-1
 963 963 l 1,1,-1
 430 963 l 1,2,-1
 430 717 l 1,3,-1
 963 717 l 1,4,-1
 963 512 l 1,5,-1
 430 512 l 1,6,-1
 430 0 l 1,7,-1
 61 0 l 1,8,-1
 61 1229 l 1,9,-1
 1085 1229 l 1,0,-1
EndSplineSet
Validated: 1
EndChar

StartChar: G
Encoding: 71 71 39
Width: 1147
GlyphClass: 1
Flags: W
LayerCount: 2
Fore
SplineSet
1085 0 m 1,0,-1
 184 0 l 2,1,2
 135 0 135 0 98 37 c 128,-1,3
 61 74 61 74 61 123 c 2,4,-1
 61 1106 l 2,5,6
 61 1155 61 1155 98 1192 c 128,-1,7
 135 1229 135 1229 184 1229 c 2,8,-1
 1085 1229 l 1,9,-1
 963 963 l 1,10,-1
 430 963 l 1,11,-1
 430 266 l 1,12,-1
 717 266 l 1,13,-1
 717 512 l 1,14,-1
 573 512 l 1,15,-1
 573 717 l 1,16,-1
 1085 717 l 1,17,-1
 1085 0 l 1,0,-1
EndSplineSet
Validated: 1
EndChar

StartChar: H
Encoding: 72 72 40
Width: 1147
GlyphClass: 1
Flags: W
LayerCount: 2
Fore
SplineSet
1085 0 m 1,0,-1
 717 0 l 1,1,-1
 717 512 l 1,2,-1
 430 512 l 1,3,-1
 430 0 l 1,4,-1
 61 0 l 1,5,-1
 61 1229 l 1,6,-1
 430 1229 l 1,7,-1
 430 717 l 1,8,-1
 717 717 l 1,9,-1
 717 1229 l 1,10,-1
 1085 1229 l 1,11,-1
 1085 0 l 1,0,-1
EndSplineSet
Validated: 1
EndChar

StartChar: I
Encoding: 73 73 41
Width: 492
GlyphClass: 1
Flags: W
LayerCount: 2
Fore
SplineSet
430 0 m 1,0,-1
 61 0 l 1,1,-1
 61 1229 l 1,2,-1
 430 1229 l 1,3,-1
 430 0 l 1,0,-1
EndSplineSet
Validated: 1
EndChar

StartChar: J
Encoding: 74 74 42
Width: 737
GlyphClass: 1
Flags: W
LayerCount: 2
Fore
SplineSet
676 123 m 2,0,1
 676 74 676 74 639 37 c 128,-1,2
 602 0 602 0 553 0 c 2,3,-1
 184 0 l 1,4,-1
 61 266 l 1,5,-1
 307 266 l 1,6,-1
 307 1229 l 1,7,-1
 676 1229 l 1,8,-1
 676 123 l 2,0,1
EndSplineSet
Validated: 1
EndChar

StartChar: K
Encoding: 75 75 43
Width: 1147
GlyphClass: 1
Flags: W
LayerCount: 2
Fore
SplineSet
1085 0 m 1,0,-1
 655 0 l 1,1,-1
 430 422 l 1,2,-1
 430 0 l 1,3,-1
 61 0 l 1,4,-1
 61 1229 l 1,5,-1
 430 1229 l 1,6,-1
 430 807 l 1,7,-1
 655 1229 l 1,8,-1
 1085 1229 l 1,9,-1
 758 614 l 1,10,-1
 1085 0 l 1,0,-1
EndSplineSet
Validated: 1
EndChar

StartChar: L
Encoding: 76 76 44
Width: 1106
GlyphClass: 1
Flags: W
LayerCount: 2
Fore
SplineSet
1085 0 m 1,0,-1
 61 0 l 1,1,-1
 61 1229 l 1,2,-1
 430 1229 l 1,3,-1
 430 266 l 1,4,-1
 963 266 l 1,5,-1
 1085 0 l 1,0,-1
EndSplineSet
Validated: 1
EndChar

StartChar: M
Encoding: 77 77 45
Width: 1802
GlyphClass: 1
Flags: W
LayerCount: 2
Fore
SplineSet
1741 0 m 1,0,-1
 1372 0 l 1,1,-1
 1372 963 l 1,2,-1
 1085 963 l 1,3,-1
 1085 0 l 1,4,-1
 717 0 l 1,5,-1
 717 963 l 1,6,-1
 430 963 l 1,7,-1
 430 0 l 1,8,-1
 61 0 l 1,9,-1
 61 1229 l 1,10,-1
 1618 1229 l 2,11,12
 1667 1229 1667 1229 1704 1192 c 128,-1,13
 1741 1155 1741 1155 1741 1106 c 2,14,-1
 1741 0 l 1,0,-1
EndSplineSet
Validated: 1
EndChar

StartChar: N
Encoding: 78 78 46
Width: 1147
GlyphClass: 1
Flags: W
LayerCount: 2
Fore
SplineSet
1085 0 m 1,0,-1
 717 0 l 1,1,-1
 717 963 l 1,2,-1
 430 963 l 1,3,-1
 430 0 l 1,4,-1
 61 0 l 1,5,-1
 61 1229 l 1,6,-1
 963 1229 l 2,7,8
 1012 1229 1012 1229 1048 1192 c 0,9,10
 1085 1155 1085 1155 1085 1106 c 2,11,-1
 1085 0 l 1,0,-1
EndSplineSet
Validated: 1
EndChar

StartChar: O
Encoding: 79 79 47
Width: 1147
GlyphClass: 1
Flags: W
LayerCount: 2
Fore
SplineSet
1085 123 m 2,0,1
 1085 74 1085 74 1048 37 c 0,2,3
 1012 0 1012 0 963 0 c 2,4,-1
 184 0 l 2,5,6
 135 0 135 0 98 37 c 128,-1,7
 61 74 61 74 61 123 c 2,8,-1
 61 1106 l 2,9,10
 61 1155 61 1155 98 1192 c 128,-1,11
 135 1229 135 1229 184 1229 c 2,12,-1
 963 1229 l 2,13,14
 1012 1229 1012 1229 1048 1192 c 0,15,16
 1085 1155 1085 1155 1085 1106 c 2,17,-1
 1085 123 l 2,0,1
717 266 m 1,18,-1
 717 963 l 1,19,-1
 430 963 l 1,20,-1
 430 266 l 1,21,-1
 717 266 l 1,18,-1
EndSplineSet
Validated: 1
EndChar

StartChar: P
Encoding: 80 80 48
Width: 1147
GlyphClass: 1
Flags: W
LayerCount: 2
Fore
SplineSet
1085 553 m 2,0,1
 1085 504 1085 504 1048 467 c 0,2,3
 1012 430 1012 430 963 430 c 2,4,-1
 430 430 l 1,5,-1
 430 0 l 1,6,-1
 61 0 l 1,7,-1
 61 1229 l 1,8,-1
 963 1229 l 2,9,10
 1012 1229 1012 1229 1048 1192 c 0,11,12
 1085 1155 1085 1155 1085 1106 c 2,13,-1
 1085 553 l 2,0,1
717 635 m 1,14,-1
 717 963 l 1,15,-1
 430 963 l 1,16,-1
 430 635 l 1,17,-1
 717 635 l 1,14,-1
EndSplineSet
Validated: 1
EndChar

StartChar: Q
Encoding: 81 81 49
Width: 1147
GlyphClass: 1
Flags: W
LayerCount: 2
Fore
SplineSet
1208 0 m 1,0,-1
 184 0 l 2,1,2
 135 0 135 0 98 37 c 128,-1,3
 61 74 61 74 61 123 c 2,4,-1
 61 1106 l 2,5,6
 61 1155 61 1155 98 1192 c 128,-1,7
 135 1229 135 1229 184 1229 c 2,8,-1
 963 1229 l 2,9,10
 1012 1229 1012 1229 1048 1192 c 0,11,12
 1085 1155 1085 1155 1085 1106 c 2,13,-1
 1085 266 l 1,14,-1
 1208 0 l 1,0,-1
717 266 m 1,15,-1
 717 963 l 1,16,-1
 430 963 l 1,17,-1
 430 266 l 1,18,-1
 717 266 l 1,15,-1
EndSplineSet
Validated: 1
EndChar

StartChar: R
Encoding: 82 82 50
Width: 1147
GlyphClass: 1
Flags: W
LayerCount: 2
Fore
SplineSet
1126 0 m 1,0,-1
 799 0 l 1,1,-1
 471 717 l 1,2,-1
 717 717 l 1,3,-1
 717 963 l 1,4,-1
 430 963 l 1,5,-1
 430 0 l 1,6,-1
 61 0 l 1,7,-1
 61 1229 l 1,8,-1
 963 1229 l 2,9,10
 1012 1229 1012 1229 1048 1192 c 0,11,12
 1085 1155 1085 1155 1085 1106 c 2,13,-1
 1085 635 l 2,14,15
 1085 586 1085 586 1048 549 c 0,16,17
 1012 512 1012 512 963 512 c 2,18,-1
 891 512 l 1,19,-1
 1126 0 l 1,0,-1
EndSplineSet
Validated: 1
EndChar

StartChar: S
Encoding: 83 83 51
Width: 1147
GlyphClass: 1
Flags: W
LayerCount: 2
Fore
SplineSet
1085 123 m 2,0,1
 1085 74 1085 74 1048 37 c 0,2,3
 1012 0 1012 0 963 0 c 2,4,-1
 184 0 l 1,5,-1
 61 266 l 1,6,-1
 717 266 l 1,7,-1
 717 512 l 1,8,-1
 184 512 l 2,9,10
 135 512 135 512 98 549 c 128,-1,11
 61 586 61 586 61 635 c 2,12,-1
 61 1106 l 2,13,14
 61 1155 61 1155 98 1192 c 128,-1,15
 135 1229 135 1229 184 1229 c 2,16,-1
 1085 1229 l 1,17,-1
 1085 963 l 1,18,-1
 430 963 l 1,19,-1
 430 717 l 1,20,-1
 963 717 l 2,21,22
 1012 717 1012 717 1048 680 c 0,23,24
 1085 643 1085 643 1085 594 c 2,25,-1
 1085 123 l 2,0,1
EndSplineSet
Validated: 1
EndChar

StartChar: T
Encoding: 84 84 52
Width: 1147
GlyphClass: 1
Flags: W
LayerCount: 2
Fore
SplineSet
1085 963 m 1,0,-1
 758 963 l 1,1,-1
 758 0 l 1,2,-1
 389 0 l 1,3,-1
 389 963 l 1,4,-1
 61 963 l 1,5,-1
 61 1229 l 1,6,-1
 1085 1229 l 1,7,-1
 1085 963 l 1,0,-1
EndSplineSet
Validated: 1
EndChar

StartChar: U
Encoding: 85 85 53
Width: 1147
GlyphClass: 1
Flags: W
LayerCount: 2
Fore
SplineSet
1085 0 m 1,0,-1
 184 0 l 2,1,2
 135 0 135 0 98 37 c 128,-1,3
 61 74 61 74 61 123 c 2,4,-1
 61 1229 l 1,5,-1
 430 1229 l 1,6,-1
 430 266 l 1,7,-1
 717 266 l 1,8,-1
 717 1229 l 1,9,-1
 1085 1229 l 1,10,-1
 1085 0 l 1,0,-1
EndSplineSet
Validated: 1
EndChar

StartChar: V
Encoding: 86 86 54
Width: 1311
GlyphClass: 1
Flags: W
LayerCount: 2
Fore
SplineSet
1372 1229 m 1,0,-1
 860 0 l 1,1,-1
 451 0 l 1,2,-1
 -59 1229 l 1,3,-1
 348 1229 l 1,4,-1
 655 492 l 1,5,-1
 963 1229 l 1,6,-1
 1372 1229 l 1,0,-1
EndSplineSet
Validated: 1
EndChar

StartChar: W
Encoding: 87 87 55
Width: 1802
GlyphClass: 1
Flags: W
LayerCount: 2
Fore
SplineSet
1741 123 m 2,0,1
 1741 74 1741 74 1704 37 c 128,-1,2
 1667 0 1667 0 1618 0 c 2,3,-1
 184 0 l 2,4,5
 135 0 135 0 98 37 c 128,-1,6
 61 74 61 74 61 123 c 2,7,-1
 61 1229 l 1,8,-1
 430 1229 l 1,9,-1
 430 266 l 1,10,-1
 717 266 l 1,11,-1
 717 1229 l 1,12,-1
 1085 1229 l 1,13,-1
 1085 266 l 1,14,-1
 1372 266 l 1,15,-1
 1372 1229 l 1,16,-1
 1741 1229 l 1,17,-1
 1741 123 l 2,0,1
EndSplineSet
Validated: 1
EndChar

StartChar: X
Encoding: 88 88 56
Width: 1352
GlyphClass: 1
Flags: W
LayerCount: 2
Fore
SplineSet
1290 0 m 1,0,-1
 840 0 l 1,1,-1
 676 258 l 1,2,-1
 512 0 l 1,3,-1
 61 0 l 1,4,-1
 451 614 l 1,5,-1
 61 1229 l 1,6,-1
 512 1229 l 1,7,-1
 676 971 l 1,8,-1
 840 1229 l 1,9,-1
 1290 1229 l 1,10,-1
 901 614 l 1,11,-1
 1290 0 l 1,0,-1
EndSplineSet
Validated: 1
EndChar

StartChar: Y
Encoding: 89 89 57
Width: 1106
GlyphClass: 1
Flags: W
LayerCount: 2
Fore
SplineSet
1167 1229 m 1,0,-1
 737 553 l 1,1,-1
 737 0 l 1,2,-1
 369 0 l 1,3,-1
 369 553 l 1,4,-1
 -59 1229 l 1,5,-1
 389 1229 l 1,6,-1
 553 971 l 1,7,-1
 717 1229 l 1,8,-1
 1167 1229 l 1,0,-1
EndSplineSet
Validated: 1
EndChar

StartChar: Z
Encoding: 90 90 58
Width: 1147
GlyphClass: 1
Flags: W
LayerCount: 2
Fore
SplineSet
1085 0 m 1,0,-1
 61 0 l 1,1,-1
 61 266 l 1,2,-1
 614 963 l 1,3,-1
 61 963 l 1,4,-1
 61 1229 l 1,5,-1
 1085 1229 l 1,6,-1
 1085 963 l 1,7,-1
 532 266 l 1,8,-1
 1085 266 l 1,9,-1
 1085 0 l 1,0,-1
EndSplineSet
Validated: 1
EndChar

StartChar: bracketleft
Encoding: 91 91 59
Width: 594
GlyphClass: 1
Flags: W
LayerCount: 2
Fore
SplineSet
532 -203 m 1,0,-1
 164 -203 l 2,1,2
 123 -203 123 -203 92 -172 c 128,-1,3
 61 -141 61 -141 61 -100 c 2,4,-1
 61 1331 l 2,5,6
 61 1372 61 1372 92 1403 c 128,-1,7
 123 1434 123 1434 164 1434 c 2,8,-1
 532 1434 l 1,9,-1
 532 1331 l 1,10,-1
 328 1331 l 1,11,-1
 328 -100 l 1,12,-1
 532 -100 l 1,13,-1
 532 -203 l 1,0,-1
EndSplineSet
Validated: 1
EndChar

StartChar: backslash
Encoding: 92 92 60
Width: 903
GlyphClass: 1
Flags: W
LayerCount: 2
Fore
SplineSet
903 -203 m 1,0,-1
 596 -203 l 1,1,-1
 0 1434 l 1,2,-1
 307 1434 l 1,3,-1
 903 -203 l 1,0,-1
EndSplineSet
Validated: 1
EndChar

StartChar: bracketright
Encoding: 93 93 61
Width: 594
GlyphClass: 1
Flags: W
LayerCount: 2
Fore
SplineSet
532 -100 m 2,0,1
 532 -141 532 -141 501 -172 c 0,2,3
 471 -203 471 -203 430 -203 c 2,4,-1
 61 -203 l 1,5,-1
 61 -100 l 1,6,-1
 266 -100 l 1,7,-1
 266 1331 l 1,8,-1
 61 1331 l 1,9,-1
 61 1434 l 1,10,-1
 430 1434 l 2,11,12
 471 1434 471 1434 501 1403 c 0,13,14
 532 1372 532 1372 532 1331 c 2,15,-1
 532 -100 l 2,0,1
EndSplineSet
Validated: 1
EndChar

StartChar: asciicircum
Encoding: 94 94 62
Width: 901
GlyphClass: 1
Flags: W
LayerCount: 2
Fore
SplineSet
840 922 m 1,0,-1
 635 922 l 1,1,-1
 451 1118 l 1,2,-1
 266 922 l 1,3,-1
 61 922 l 1,4,-1
 348 1229 l 1,5,-1
 553 1229 l 1,6,-1
 840 922 l 1,0,-1
EndSplineSet
Validated: 1
EndChar

StartChar: underscore
Encoding: 95 95 63
Width: 942
GlyphClass: 1
Flags: W
LayerCount: 2
Fore
SplineSet
942 0 m 1,0,-1
 0 0 l 1,1,-1
 0 266 l 1,2,-1
 942 266 l 1,3,-1
 942 0 l 1,0,-1
EndSplineSet
Validated: 1
EndChar

StartChar: grave
Encoding: 96 96 64
Width: 532
GlyphClass: 1
Flags: W
LayerCount: 2
Fore
SplineSet
471 1331 m 1,0,-1
 61 1434 l 1,1,-1
 61 1638 l 1,2,-1
 471 1331 l 1,0,-1
EndSplineSet
Validated: 1
EndChar

StartChar: a
Encoding: 97 97 65
Width: 1065
GlyphClass: 1
Flags: W
LayerCount: 2
Fore
SplineSet
1004 0 m 1,0,-1
 184 0 l 2,1,2
 135 0 135 0 98 37 c 128,-1,3
 61 74 61 74 61 123 c 2,4,-1
 61 430 l 2,5,6
 61 479 61 479 98 516 c 128,-1,7
 135 553 135 553 184 553 c 2,8,-1
 635 553 l 1,9,-1
 635 655 l 1,10,-1
 61 655 l 1,11,-1
 61 922 l 1,12,-1
 881 922 l 2,13,14
 930 922 930 922 967 885 c 128,-1,15
 1004 848 1004 848 1004 799 c 2,16,-1
 1004 0 l 1,0,-1
635 266 m 1,17,-1
 635 348 l 1,18,-1
 430 348 l 1,19,-1
 430 266 l 1,20,-1
 635 266 l 1,17,-1
EndSplineSet
Validated: 1
EndChar

StartChar: b
Encoding: 98 98 66
Width: 1065
GlyphClass: 1
Flags: W
LayerCount: 2
Fore
SplineSet
1004 123 m 2,0,1
 1004 74 1004 74 967 37 c 128,-1,2
 930 0 930 0 881 0 c 2,3,-1
 61 0 l 1,4,-1
 61 1229 l 1,5,-1
 430 1229 l 1,6,-1
 430 922 l 1,7,-1
 881 922 l 2,8,9
 930 922 930 922 967 885 c 128,-1,10
 1004 848 1004 848 1004 799 c 2,11,-1
 1004 123 l 2,0,1
635 266 m 1,12,-1
 635 655 l 1,13,-1
 430 655 l 1,14,-1
 430 266 l 1,15,-1
 635 266 l 1,12,-1
EndSplineSet
Validated: 1
EndChar

StartChar: c
Encoding: 99 99 67
Width: 983
GlyphClass: 1
Flags: W
LayerCount: 2
Fore
SplineSet
963 266 m 1,0,-1
 840 0 l 1,1,-1
 143 0 l 2,2,3
 94 0 94 0 57 37 c 128,-1,4
 20 74 20 74 20 123 c 2,5,-1
 20 799 l 2,6,7
 20 848 20 848 57 885 c 128,-1,8
 94 922 94 922 143 922 c 2,9,-1
 963 922 l 1,10,-1
 840 655 l 1,11,-1
 389 655 l 1,12,-1
 389 266 l 1,13,-1
 963 266 l 1,0,-1
EndSplineSet
Validated: 1
EndChar

StartChar: d
Encoding: 100 100 68
Width: 1065
GlyphClass: 1
Flags: W
LayerCount: 2
Fore
SplineSet
1004 0 m 1,0,-1
 184 0 l 2,1,2
 135 0 135 0 98 37 c 128,-1,3
 61 74 61 74 61 123 c 2,4,-1
 61 799 l 2,5,6
 61 848 61 848 98 885 c 128,-1,7
 135 922 135 922 184 922 c 2,8,-1
 635 922 l 1,9,-1
 635 1229 l 1,10,-1
 1004 1229 l 1,11,-1
 1004 0 l 1,0,-1
635 266 m 1,12,-1
 635 655 l 1,13,-1
 430 655 l 1,14,-1
 430 266 l 1,15,-1
 635 266 l 1,12,-1
EndSplineSet
Validated: 1
EndChar

StartChar: e
Encoding: 101 101 69
Width: 1065
GlyphClass: 1
Flags: W
LayerCount: 2
Fore
SplineSet
1004 266 m 1,0,-1
 881 0 l 1,1,-1
 184 0 l 2,2,3
 135 0 135 0 98 37 c 128,-1,4
 61 74 61 74 61 123 c 2,5,-1
 61 799 l 2,6,7
 61 848 61 848 98 885 c 128,-1,8
 135 922 135 922 184 922 c 2,9,-1
 881 922 l 2,10,11
 930 922 930 922 967 885 c 128,-1,12
 1004 848 1004 848 1004 799 c 2,13,-1
 1004 471 l 2,14,15
 1004 422 1004 422 967 385 c 128,-1,16
 930 348 930 348 881 348 c 2,17,-1
 430 348 l 1,18,-1
 430 266 l 1,19,-1
 1004 266 l 1,0,-1
635 553 m 1,20,-1
 635 655 l 1,21,-1
 430 655 l 1,22,-1
 430 553 l 1,23,-1
 635 553 l 1,20,-1
EndSplineSet
Validated: 1
EndChar

StartChar: f
Encoding: 102 102 70
Width: 737
GlyphClass: 1
Flags: W
LayerCount: 2
Fore
SplineSet
799 1229 m 1,0,-1
 676 963 l 1,1,-1
 471 963 l 1,2,-1
 471 717 l 1,3,-1
 676 717 l 1,4,-1
 676 512 l 1,5,-1
 471 512 l 1,6,-1
 471 0 l 1,7,-1
 102 0 l 1,8,-1
 102 512 l 1,9,-1
 0 512 l 1,10,-1
 0 717 l 1,11,-1
 102 717 l 1,12,-1
 102 1106 l 2,13,14
 102 1155 102 1155 139 1192 c 128,-1,15
 176 1229 176 1229 225 1229 c 2,16,-1
 799 1229 l 1,0,-1
EndSplineSet
Validated: 1
EndChar

StartChar: g
Encoding: 103 103 71
Width: 1065
GlyphClass: 1
Flags: W
LayerCount: 2
Fore
SplineSet
1004 -285 m 2,0,1
 1004 -334 1004 -334 967 -371 c 128,-1,2
 930 -408 930 -408 881 -408 c 2,3,-1
 184 -408 l 1,4,-1
 61 -141 l 1,5,-1
 635 -141 l 1,6,-1
 635 0 l 1,7,-1
 184 0 l 2,8,9
 135 0 135 0 98 37 c 128,-1,10
 61 74 61 74 61 123 c 2,11,-1
 61 799 l 2,12,13
 61 848 61 848 98 885 c 128,-1,14
 135 922 135 922 184 922 c 2,15,-1
 1004 922 l 1,16,-1
 1004 -285 l 2,0,1
635 266 m 1,17,-1
 635 655 l 1,18,-1
 430 655 l 1,19,-1
 430 266 l 1,20,-1
 635 266 l 1,17,-1
EndSplineSet
Validated: 1
EndChar

StartChar: h
Encoding: 104 104 72
Width: 1065
GlyphClass: 1
Flags: W
LayerCount: 2
Fore
SplineSet
1004 0 m 1,0,-1
 635 0 l 1,1,-1
 635 717 l 1,2,-1
 430 717 l 1,3,-1
 430 0 l 1,4,-1
 61 0 l 1,5,-1
 61 1229 l 1,6,-1
 430 1229 l 1,7,-1
 430 922 l 1,8,-1
 881 922 l 2,9,10
 930 922 930 922 967 885 c 128,-1,11
 1004 848 1004 848 1004 799 c 2,12,-1
 1004 0 l 1,0,-1
EndSplineSet
Validated: 1
EndChar

StartChar: i
Encoding: 105 105 73
Width: 492
GlyphClass: 1
Flags: W
LayerCount: 2
Fore
SplineSet
430 1024 m 1,0,-1
 61 1024 l 1,1,-1
 61 1229 l 1,2,-1
 430 1229 l 1,3,-1
 430 1024 l 1,0,-1
430 0 m 1,4,-1
 61 0 l 1,5,-1
 61 922 l 1,6,-1
 430 922 l 1,7,-1
 430 0 l 1,4,-1
EndSplineSet
Validated: 1
EndChar

StartChar: j
Encoding: 106 106 74
Width: 492
GlyphClass: 1
Flags: W
LayerCount: 2
Fore
SplineSet
430 1024 m 1,0,-1
 61 1024 l 1,1,-1
 61 1229 l 1,2,-1
 430 1229 l 1,3,-1
 430 1024 l 1,0,-1
430 -285 m 2,4,5
 430 -334 430 -334 393 -371 c 128,-1,6
 356 -408 356 -408 307 -408 c 2,7,-1
 -59 -408 l 1,8,-1
 -182 -141 l 1,9,-1
 61 -141 l 1,10,-1
 61 922 l 1,11,-1
 430 922 l 1,12,-1
 430 -285 l 2,4,5
EndSplineSet
Validated: 1
EndChar

StartChar: k
Encoding: 107 107 75
Width: 1147
GlyphClass: 1
Flags: W
LayerCount: 2
Fore
SplineSet
1085 0 m 1,0,-1
 645 0 l 1,1,-1
 430 340 l 1,2,-1
 430 0 l 1,3,-1
 61 0 l 1,4,-1
 61 1229 l 1,5,-1
 430 1229 l 1,6,-1
 430 582 l 1,7,-1
 645 922 l 1,8,-1
 1085 922 l 1,9,-1
 795 461 l 1,10,-1
 1085 0 l 1,0,-1
EndSplineSet
Validated: 1
EndChar

StartChar: l
Encoding: 108 108 76
Width: 492
GlyphClass: 1
Flags: W
LayerCount: 2
Fore
SplineSet
430 0 m 1,0,-1
 61 0 l 1,1,-1
 61 1229 l 1,2,-1
 430 1229 l 1,3,-1
 430 0 l 1,0,-1
EndSplineSet
Validated: 1
EndChar

StartChar: m
Encoding: 109 109 77
Width: 1638
GlyphClass: 1
Flags: W
LayerCount: 2
Fore
SplineSet
1577 0 m 1,0,-1
 1208 0 l 1,1,-1
 1208 655 l 1,2,-1
 1004 655 l 1,3,-1
 1004 0 l 1,4,-1
 635 0 l 1,5,-1
 635 655 l 1,6,-1
 430 655 l 1,7,-1
 430 0 l 1,8,-1
 61 0 l 1,9,-1
 61 922 l 1,10,-1
 1454 922 l 2,11,12
 1503 922 1503 922 1540 885 c 128,-1,13
 1577 848 1577 848 1577 799 c 2,14,-1
 1577 0 l 1,0,-1
EndSplineSet
Validated: 1
EndChar

StartChar: n
Encoding: 110 110 78
Width: 1065
GlyphClass: 1
Flags: W
LayerCount: 2
Fore
SplineSet
1004 0 m 1,0,-1
 635 0 l 1,1,-1
 635 655 l 1,2,-1
 430 655 l 1,3,-1
 430 0 l 1,4,-1
 61 0 l 1,5,-1
 61 922 l 1,6,-1
 881 922 l 2,7,8
 930 922 930 922 967 885 c 128,-1,9
 1004 848 1004 848 1004 799 c 2,10,-1
 1004 0 l 1,0,-1
EndSplineSet
Validated: 1
EndChar

StartChar: o
Encoding: 111 111 79
Width: 1065
GlyphClass: 1
Flags: W
LayerCount: 2
Fore
SplineSet
1004 123 m 2,0,1
 1004 74 1004 74 967 37 c 128,-1,2
 930 0 930 0 881 0 c 2,3,-1
 184 0 l 2,4,5
 135 0 135 0 98 37 c 128,-1,6
 61 74 61 74 61 123 c 2,7,-1
 61 799 l 2,8,9
 61 848 61 848 98 885 c 128,-1,10
 135 922 135 922 184 922 c 2,11,-1
 881 922 l 2,12,13
 930 922 930 922 967 885 c 128,-1,14
 1004 848 1004 848 1004 799 c 2,15,-1
 1004 123 l 2,0,1
635 266 m 1,16,-1
 635 655 l 1,17,-1
 430 655 l 1,18,-1
 430 266 l 1,19,-1
 635 266 l 1,16,-1
EndSplineSet
Validated: 1
EndChar

StartChar: p
Encoding: 112 112 80
Width: 1065
GlyphClass: 1
Flags: W
LayerCount: 2
Fore
SplineSet
1004 123 m 2,0,1
 1004 74 1004 74 967 37 c 128,-1,2
 930 0 930 0 881 0 c 2,3,-1
 430 0 l 1,4,-1
 430 -408 l 1,5,-1
 61 -408 l 1,6,-1
 61 922 l 1,7,-1
 881 922 l 2,8,9
 930 922 930 922 967 885 c 128,-1,10
 1004 848 1004 848 1004 799 c 2,11,-1
 1004 123 l 2,0,1
635 266 m 1,12,-1
 635 655 l 1,13,-1
 430 655 l 1,14,-1
 430 266 l 1,15,-1
 635 266 l 1,12,-1
EndSplineSet
Validated: 1
EndChar

StartChar: q
Encoding: 113 113 81
Width: 1065
GlyphClass: 1
Flags: W
LayerCount: 2
Fore
SplineSet
1004 -408 m 1,0,-1
 635 -408 l 1,1,-1
 635 0 l 1,2,-1
 184 0 l 2,3,4
 135 0 135 0 98 37 c 128,-1,5
 61 74 61 74 61 123 c 2,6,-1
 61 799 l 2,7,8
 61 848 61 848 98 885 c 128,-1,9
 135 922 135 922 184 922 c 2,10,-1
 1004 922 l 1,11,-1
 1004 -408 l 1,0,-1
635 266 m 1,12,-1
 635 655 l 1,13,-1
 430 655 l 1,14,-1
 430 266 l 1,15,-1
 635 266 l 1,12,-1
EndSplineSet
Validated: 1
EndChar

StartChar: r
Encoding: 114 114 82
Width: 901
GlyphClass: 1
Flags: W
LayerCount: 2
Fore
SplineSet
901 922 m 1,0,-1
 778 655 l 1,1,-1
 430 655 l 1,2,-1
 430 0 l 1,3,-1
 61 0 l 1,4,-1
 61 799 l 2,5,6
 61 848 61 848 98 885 c 128,-1,7
 135 922 135 922 184 922 c 2,8,-1
 901 922 l 1,0,-1
EndSplineSet
Validated: 1
EndChar

StartChar: s
Encoding: 115 115 83
Width: 1065
GlyphClass: 1
Flags: W
LayerCount: 2
Fore
SplineSet
1004 123 m 2,0,1
 1004 74 1004 74 967 37 c 128,-1,2
 930 0 930 0 881 0 c 2,3,-1
 184 0 l 1,4,-1
 61 266 l 1,5,-1
 635 266 l 1,6,-1
 635 348 l 1,7,-1
 184 348 l 2,8,9
 135 348 135 348 98 385 c 128,-1,10
 61 422 61 422 61 471 c 2,11,-1
 61 799 l 2,12,13
 61 848 61 848 98 885 c 128,-1,14
 135 922 135 922 184 922 c 2,15,-1
 1004 922 l 1,16,-1
 1004 655 l 1,17,-1
 430 655 l 1,18,-1
 430 553 l 1,19,-1
 881 553 l 2,20,21
 930 553 930 553 967 516 c 128,-1,22
 1004 479 1004 479 1004 430 c 2,23,-1
 1004 123 l 2,0,1
EndSplineSet
Validated: 1
EndChar

StartChar: t
Encoding: 116 116 84
Width: 799
GlyphClass: 1
Flags: W
LayerCount: 2
Fore
SplineSet
799 0 m 1,0,-1
 225 0 l 2,1,2
 176 0 176 0 139 37 c 128,-1,3
 102 74 102 74 102 123 c 2,4,-1
 102 717 l 1,5,-1
 0 717 l 1,6,-1
 0 922 l 1,7,-1
 102 922 l 1,8,-1
 102 1229 l 1,9,-1
 471 1229 l 1,10,-1
 471 922 l 1,11,-1
 676 922 l 1,12,-1
 676 717 l 1,13,-1
 471 717 l 1,14,-1
 471 266 l 1,15,-1
 676 266 l 1,16,-1
 799 0 l 1,0,-1
EndSplineSet
Validated: 1
EndChar

StartChar: u
Encoding: 117 117 85
Width: 1065
GlyphClass: 1
Flags: W
LayerCount: 2
Fore
SplineSet
1004 0 m 1,0,-1
 184 0 l 2,1,2
 135 0 135 0 98 37 c 128,-1,3
 61 74 61 74 61 123 c 2,4,-1
 61 922 l 1,5,-1
 430 922 l 1,6,-1
 430 266 l 1,7,-1
 635 266 l 1,8,-1
 635 922 l 1,9,-1
 1004 922 l 1,10,-1
 1004 0 l 1,0,-1
EndSplineSet
Validated: 1
EndChar

StartChar: v
Encoding: 118 118 86
Width: 1055
GlyphClass: 1
Flags: W
LayerCount: 2
Fore
SplineSet
1116 922 m 1,0,-1
 731 0 l 1,1,-1
 322 0 l 1,2,-1
 -59 922 l 1,3,-1
 346 922 l 1,4,-1
 526 492 l 1,5,-1
 705 922 l 1,6,-1
 1116 922 l 1,0,-1
EndSplineSet
Validated: 1
EndChar

StartChar: w
Encoding: 119 119 87
Width: 1638
GlyphClass: 1
Flags: W
LayerCount: 2
Fore
SplineSet
1577 123 m 2,0,1
 1577 74 1577 74 1540 37 c 128,-1,2
 1503 0 1503 0 1454 0 c 2,3,-1
 184 0 l 2,4,5
 135 0 135 0 98 37 c 128,-1,6
 61 74 61 74 61 123 c 2,7,-1
 61 922 l 1,8,-1
 430 922 l 1,9,-1
 430 266 l 1,10,-1
 635 266 l 1,11,-1
 635 922 l 1,12,-1
 1004 922 l 1,13,-1
 1004 266 l 1,14,-1
 1208 266 l 1,15,-1
 1208 922 l 1,16,-1
 1577 922 l 1,17,-1
 1577 123 l 2,0,1
EndSplineSet
Validated: 1
EndChar

StartChar: x
Encoding: 120 120 88
Width: 1147
GlyphClass: 1
Flags: W
LayerCount: 2
Fore
SplineSet
1085 0 m 1,0,-1
 676 0 l 1,1,-1
 573 154 l 1,2,-1
 471 0 l 1,3,-1
 61 0 l 1,4,-1
 369 461 l 1,5,-1
 61 922 l 1,6,-1
 471 922 l 1,7,-1
 573 768 l 1,8,-1
 676 922 l 1,9,-1
 1085 922 l 1,10,-1
 778 461 l 1,11,-1
 1085 0 l 1,0,-1
EndSplineSet
Validated: 1
EndChar

StartChar: y
Encoding: 121 121 89
Width: 1065
GlyphClass: 1
Flags: W
LayerCount: 2
Fore
SplineSet
1004 -285 m 2,0,1
 1004 -334 1004 -334 967 -371 c 128,-1,2
 930 -408 930 -408 881 -408 c 2,3,-1
 184 -408 l 1,4,-1
 61 -141 l 1,5,-1
 635 -141 l 1,6,-1
 635 0 l 1,7,-1
 184 0 l 2,8,9
 135 0 135 0 98 37 c 128,-1,10
 61 74 61 74 61 123 c 2,11,-1
 61 922 l 1,12,-1
 430 922 l 1,13,-1
 430 266 l 1,14,-1
 635 266 l 1,15,-1
 635 922 l 1,16,-1
 1004 922 l 1,17,-1
 1004 -285 l 2,0,1
EndSplineSet
Validated: 1
EndChar

StartChar: z
Encoding: 122 122 90
Width: 1065
GlyphClass: 1
Flags: W
LayerCount: 2
Fore
SplineSet
1004 0 m 1,0,-1
 61 0 l 1,1,-1
 61 266 l 1,2,-1
 492 655 l 1,3,-1
 61 655 l 1,4,-1
 61 922 l 1,5,-1
 1004 922 l 1,6,-1
 1004 655 l 1,7,-1
 573 266 l 1,8,-1
 1004 266 l 1,9,-1
 1004 0 l 1,0,-1
EndSplineSet
Validated: 1
EndChar

StartChar: braceleft
Encoding: 123 123 91
Width: 696
GlyphClass: 1
Flags: W
LayerCount: 2
Fore
SplineSet
635 -203 m 1,0,-1
 266 -203 l 2,1,2
 225 -203 225 -203 194 -172 c 0,3,4
 164 -141 164 -141 164 -100 c 2,5,-1
 164 461 l 2,6,7
 164 502 164 502 133 532 c 0,8,9
 102 563 102 563 61 563 c 1,10,-1
 61 666 l 1,11,12
 101 666 101 666 133 696 c 0,13,14
 164 727 164 727 164 768 c 2,15,-1
 164 1331 l 2,16,17
 164 1371 164 1371 194 1403 c 0,18,19
 225 1434 225 1434 266 1434 c 2,20,-1
 635 1434 l 1,21,-1
 635 1331 l 1,22,-1
 430 1331 l 1,23,-1
 430 717 l 2,24,25
 430 676 430 676 399 645 c 0,26,27
 369 614 369 614 328 614 c 1,28,29
 369 614 369 614 399 583 c 0,30,31
 430 553 430 553 430 512 c 2,32,-1
 430 -100 l 1,33,-1
 635 -100 l 1,34,-1
 635 -203 l 1,0,-1
EndSplineSet
Validated: 1
EndChar

StartChar: bar
Encoding: 124 124 92
Width: 389
GlyphClass: 1
Flags: W
LayerCount: 2
Fore
SplineSet
328 -203 m 1,0,-1
 61 -203 l 1,1,-1
 61 1434 l 1,2,-1
 328 1434 l 1,3,-1
 328 -203 l 1,0,-1
EndSplineSet
Validated: 1
EndChar

StartChar: braceright
Encoding: 125 125 93
Width: 696
GlyphClass: 1
Flags: W
LayerCount: 2
Fore
SplineSet
635 563 m 1,0,1
 594 563 594 563 563 532 c 0,2,3
 532 502 532 502 532 461 c 2,4,-1
 532 -100 l 2,5,6
 532 -141 532 -141 501 -172 c 0,7,8
 471 -203 471 -203 430 -203 c 2,9,-1
 61 -203 l 1,10,-1
 61 -100 l 1,11,-1
 266 -100 l 1,12,-1
 266 512 l 2,13,14
 266 553 266 553 297 583 c 0,15,16
 328 614 328 614 369 614 c 1,17,18
 328 614 328 614 297 645 c 128,-1,19
 266 676 266 676 266 717 c 2,20,-1
 266 1331 l 1,21,-1
 61 1331 l 1,22,-1
 61 1434 l 1,23,-1
 430 1434 l 2,24,25
 471 1434 471 1434 501 1403 c 0,26,27
 532 1372 532 1372 532 1331 c 2,28,-1
 532 768 l 2,29,30
 532 727 532 727 563 696 c 0,31,32
 594 666 594 666 635 666 c 1,33,-1
 635 563 l 1,0,1
EndSplineSet
Validated: 1
EndChar

StartChar: asciitilde
Encoding: 126 126 94
Width: 805
GlyphClass: 1
Flags: W
LayerCount: 2
Fore
SplineSet
743 1024 m 1,0,1
 652 954 652 954 567 954 c 0,2,3
 509 954 509 954 400 995 c 0,4,5
 292 1036 292 1036 233 1036 c 0,6,7
 152 1036 152 1036 61 954 c 1,8,-1
 61 1163 l 1,9,10
 137 1229 137 1229 233 1229 c 0,11,12
 292 1229 292 1229 403 1188 c 0,13,14
 515 1147 515 1147 573 1147 c 0,15,16
 655 1147 655 1147 743 1229 c 1,17,-1
 743 1024 l 1,0,1
EndSplineSet
Validated: 1
EndChar

StartChar: quotesinglbase
Encoding: 130 130 95
AltUni2: 00201a.ffffffff.0 00201a.ffffffff.0
Width: 328
GlyphClass: 1
Flags: W
LayerCount: 2
Fore
SplineSet
266 205 m 1,0,-1
 164 -203 l 1,1,-1
 -39 -203 l 1,2,-1
 61 205 l 1,3,-1
 266 205 l 1,0,-1
EndSplineSet
Validated: 1
EndChar

StartChar: quotedblbase
Encoding: 132 132 96
AltUni2: 00201e.ffffffff.0 00201e.ffffffff.0
Width: 819
GlyphClass: 1
Flags: W
LayerCount: 2
Fore
SplineSet
758 266 m 1,0,-1
 655 -203 l 1,1,-1
 389 -203 l 1,2,-1
 492 266 l 1,3,-1
 758 266 l 1,0,-1
430 266 m 1,4,-1
 328 -203 l 1,5,-1
 61 -203 l 1,6,-1
 164 266 l 1,7,-1
 430 266 l 1,4,-1
EndSplineSet
Validated: 1
EndChar

StartChar: ellipsis
Encoding: 133 133 97
AltUni2: 002026.ffffffff.0 002026.ffffffff.0
Width: 860
GlyphClass: 1
Flags: W
LayerCount: 2
Fore
SplineSet
799 0 m 1,0,-1
 594 0 l 1,1,-1
 594 205 l 1,2,-1
 799 205 l 1,3,-1
 799 0 l 1,0,-1
532 0 m 1,4,-1
 328 0 l 1,5,-1
 328 205 l 1,6,-1
 532 205 l 1,7,-1
 532 0 l 1,4,-1
266 0 m 1,8,-1
 61 0 l 1,9,-1
 61 205 l 1,10,-1
 266 205 l 1,11,-1
 266 0 l 1,8,-1
EndSplineSet
Validated: 1
EndChar

StartChar: circumflex
Encoding: 136 136 98
AltUni2: 0002c6.ffffffff.0 0002c6.ffffffff.0
Width: 901
GlyphClass: 1
Flags: W
LayerCount: 2
Fore
SplineSet
840 1331 m 1,0,-1
 635 1331 l 1,1,-1
 451 1528 l 1,2,-1
 266 1331 l 1,3,-1
 61 1331 l 1,4,-1
 348 1638 l 1,5,-1
 553 1638 l 1,6,-1
 840 1331 l 1,0,-1
EndSplineSet
Validated: 1
EndChar

StartChar: perthousand
Encoding: 137 137 99
AltUni2: 002030.ffffffff.0 002030.ffffffff.0
Width: 2034
GlyphClass: 1
Flags: W
LayerCount: 2
Fore
SplineSet
1972 61 m 2,0,1
 1972 37 1972 37 1953.5 18.5 c 128,-1,2
 1935 0 1935 0 1911 0 c 2,3,-1
 1573 0 l 2,4,5
 1548 0 1548 0 1529.5 18.5 c 128,-1,6
 1511 37 1511 37 1511 61 c 2,7,-1
 1511 553 l 2,8,9
 1511 578 1511 578 1529.5 596 c 128,-1,10
 1548 614 1548 614 1573 614 c 2,11,-1
 1911 614 l 2,12,13
 1935 614 1935 614 1953.5 596 c 128,-1,14
 1972 578 1972 578 1972 553 c 2,15,-1
 1972 61 l 2,0,1
1450 61 m 2,16,17
 1450 37 1450 37 1431.5 18.5 c 128,-1,18
 1413 0 1413 0 1389 0 c 2,19,-1
 1051 0 l 2,20,21
 1026 0 1026 0 1007.5 18.5 c 128,-1,22
 989 37 989 37 989 61 c 2,23,-1
 989 553 l 2,24,25
 989 578 989 578 1007.5 596 c 128,-1,26
 1026 614 1026 614 1051 614 c 2,27,-1
 1389 614 l 2,28,29
 1413 614 1413 614 1431.5 596 c 128,-1,30
 1450 578 1450 578 1450 553 c 2,31,-1
 1450 61 l 2,16,17
1194 1229 m 1,32,-1
 598 0 l 1,33,-1
 317 0 l 1,34,-1
 913 1229 l 1,35,-1
 1194 1229 l 1,32,-1
522 676 m 2,36,37
 522 651 522 651 503.5 632.5 c 128,-1,38
 485 614 485 614 461 614 c 2,39,-1
 123 614 l 2,40,41
 98 614 98 614 79.5 632.5 c 128,-1,42
 61 651 61 651 61 676 c 2,43,-1
 61 1167 l 2,44,45
 61 1192 61 1192 79.5 1210.5 c 128,-1,46
 98 1229 98 1229 123 1229 c 2,47,-1
 461 1229 l 2,48,49
 485 1229 485 1229 503.5 1210.5 c 128,-1,50
 522 1192 522 1192 522 1167 c 2,51,-1
 522 676 l 2,36,37
1788 133 m 1,52,-1
 1788 481 l 1,53,-1
 1696 481 l 1,54,-1
 1696 133 l 1,55,-1
 1788 133 l 1,52,-1
1266 133 m 1,56,-1
 1266 481 l 1,57,-1
 1174 481 l 1,58,-1
 1174 133 l 1,59,-1
 1266 133 l 1,56,-1
338 748 m 1,60,-1
 338 1096 l 1,61,-1
 246 1096 l 1,62,-1
 246 748 l 1,63,-1
 338 748 l 1,60,-1
EndSplineSet
Validated: 1
EndChar

StartChar: OE
Encoding: 140 140 100
AltUni2: 000152.ffffffff.0 000152.ffffffff.0
Width: 2171
GlyphClass: 1
Flags: W
LayerCount: 2
Fore
SplineSet
2109 266 m 1,0,-1
 1987 0 l 1,1,-1
 1085 0 l 1,2,-1
 1085 123 l 1,3,4
 1085 74 1085 74 1048 37 c 0,5,6
 1012 0 1012 0 963 0 c 2,7,-1
 184 0 l 2,8,9
 135 0 135 0 98 37 c 128,-1,10
 61 74 61 74 61 123 c 2,11,-1
 61 1106 l 2,12,13
 61 1155 61 1155 98 1192 c 128,-1,14
 135 1229 135 1229 184 1229 c 2,15,-1
 963 1229 l 2,16,17
 1012 1229 1012 1229 1048 1192 c 0,18,19
 1085 1155 1085 1155 1085 1106 c 1,20,-1
 1085 1229 l 1,21,-1
 2109 1229 l 1,22,-1
 1987 963 l 1,23,-1
 1454 963 l 1,24,-1
 1454 717 l 1,25,-1
 1987 717 l 1,26,-1
 1987 512 l 1,27,-1
 1454 512 l 1,28,-1
 1454 266 l 1,29,-1
 2109 266 l 1,0,-1
717 266 m 1,30,-1
 717 963 l 1,31,-1
 430 963 l 1,32,-1
 430 266 l 1,33,-1
 717 266 l 1,30,-1
EndSplineSet
Validated: 1
EndChar

StartChar: quoteleft
Encoding: 145 145 101
AltUni2: 002018.ffffffff.0 002018.ffffffff.0
Width: 492
GlyphClass: 1
Flags: W
LayerCount: 2
Fore
SplineSet
430 1229 m 1,0,-1
 328 758 l 1,1,-1
 61 758 l 1,2,-1
 164 1229 l 1,3,-1
 430 1229 l 1,0,-1
EndSplineSet
Validated: 1
EndChar

StartChar: quoteright
Encoding: 146 146 102
AltUni2: 002019.ffffffff.0 002019.ffffffff.0
Width: 492
GlyphClass: 1
Flags: W
LayerCount: 2
Fore
SplineSet
430 1229 m 1,0,-1
 328 758 l 1,1,-1
 61 758 l 1,2,-1
 164 1229 l 1,3,-1
 430 1229 l 1,0,-1
EndSplineSet
Validated: 1
EndChar

StartChar: quotedblleft
Encoding: 147 147 103
AltUni2: 00201c.ffffffff.0 00201c.ffffffff.0
Width: 819
GlyphClass: 1
Flags: W
LayerCount: 2
Fore
SplineSet
758 1229 m 1,0,-1
 655 758 l 1,1,-1
 389 758 l 1,2,-1
 492 1229 l 1,3,-1
 758 1229 l 1,0,-1
430 1229 m 1,4,-1
 328 758 l 1,5,-1
 61 758 l 1,6,-1
 164 1229 l 1,7,-1
 430 1229 l 1,4,-1
EndSplineSet
Validated: 1
EndChar

StartChar: quotedblright
Encoding: 148 148 104
AltUni2: 00201d.ffffffff.0 00201d.ffffffff.0
Width: 819
GlyphClass: 1
Flags: W
LayerCount: 2
Fore
SplineSet
758 1229 m 1,0,-1
 655 758 l 1,1,-1
 389 758 l 1,2,-1
 492 1229 l 1,3,-1
 758 1229 l 1,0,-1
430 1229 m 1,4,-1
 328 758 l 1,5,-1
 61 758 l 1,6,-1
 164 1229 l 1,7,-1
 430 1229 l 1,4,-1
EndSplineSet
Validated: 1
EndChar

StartChar: bullet
Encoding: 149 149 105
AltUni2: 002022.ffffffff.0 002022.ffffffff.0
Width: 737
GlyphClass: 1
Flags: W
LayerCount: 2
Fore
SplineSet
676 614 m 256,0,1
 676 487 676 487 586 397 c 128,-1,2
 496 307 496 307 369 307 c 256,3,4
 242 307 242 307 151 397 c 0,5,6
 61 487 61 487 61 614 c 256,7,8
 61 741 61 741 151 831 c 0,9,10
 242 922 242 922 369 922 c 256,11,12
 496 922 496 922 586 831 c 0,13,14
 676 741 676 741 676 614 c 256,0,1
EndSplineSet
Validated: 1
EndChar

StartChar: tilde
Encoding: 152 152 106
AltUni2: 0002dc.ffffffff.0 0002dc.ffffffff.0
Width: 805
GlyphClass: 1
Flags: W
LayerCount: 2
Fore
SplineSet
743 1401 m 1,0,1
 652 1331 652 1331 567 1331 c 0,2,3
 509 1331 509 1331 400 1372 c 0,4,5
 292 1413 292 1413 233 1413 c 0,6,7
 152 1413 152 1413 61 1331 c 1,8,-1
 61 1540 l 1,9,10
 137 1606 137 1606 233 1606 c 0,11,12
 292 1606 292 1606 403 1565 c 0,13,14
 515 1524 515 1524 573 1524 c 0,15,16
 655 1524 655 1524 743 1606 c 1,17,-1
 743 1401 l 1,0,1
EndSplineSet
Validated: 1
EndChar

StartChar: trademark
Encoding: 153 153 107
AltUni2: 002122.ffffffff.0 002122.ffffffff.0
Width: 1167
GlyphClass: 1
Flags: W
LayerCount: 2
Fore
SplineSet
1106 385 m 1,0,-1
 969 385 l 1,1,-1
 969 745 l 1,2,-1
 860 745 l 1,3,-1
 860 385 l 1,4,-1
 723 385 l 1,5,-1
 723 745 l 1,6,-1
 614 745 l 1,7,-1
 614 385 l 1,8,-1
 477 385 l 1,9,-1
 477 846 l 1,10,-1
 1061 846 l 2,11,12
 1106 846 1106 846 1106 799 c 2,13,-1
 1106 385 l 1,0,-1
446 745 m 1,14,-1
 324 745 l 1,15,-1
 324 385 l 1,16,-1
 184 385 l 1,17,-1
 184 745 l 1,18,-1
 61 745 l 1,19,-1
 61 846 l 1,20,-1
 446 846 l 1,21,-1
 446 745 l 1,14,-1
EndSplineSet
Validated: 1
EndChar

StartChar: oe
Encoding: 156 156 108
AltUni2: 000153.ffffffff.0 000153.ffffffff.0
Width: 2007
GlyphClass: 1
Flags: W
LayerCount: 2
Fore
SplineSet
1946 266 m 1,0,-1
 1823 0 l 1,1,-1
 1126 0 l 2,2,3
 1077 0 1077 0 1040 37 c 0,4,5
 1004 74 1004 74 1004 123 c 1,6,7
 1004 74 1004 74 967 37 c 128,-1,8
 930 0 930 0 881 0 c 2,9,-1
 184 0 l 2,10,11
 135 0 135 0 98 37 c 128,-1,12
 61 74 61 74 61 123 c 2,13,-1
 61 799 l 2,14,15
 61 848 61 848 98 885 c 128,-1,16
 135 922 135 922 184 922 c 2,17,-1
 881 922 l 2,18,19
 930 922 930 922 967 885 c 128,-1,20
 1004 848 1004 848 1004 799 c 1,21,22
 1004 847 1004 847 1040 885 c 0,23,24
 1077 922 1077 922 1126 922 c 2,25,-1
 1823 922 l 2,26,27
 1872 922 1872 922 1909 885 c 128,-1,28
 1946 848 1946 848 1946 799 c 2,29,-1
 1946 471 l 2,30,31
 1946 422 1946 422 1909 385 c 128,-1,32
 1872 348 1872 348 1823 348 c 2,33,-1
 1372 348 l 1,34,-1
 1372 266 l 1,35,-1
 1946 266 l 1,0,-1
1577 553 m 1,36,-1
 1577 655 l 1,37,-1
 1372 655 l 1,38,-1
 1372 553 l 1,39,-1
 1577 553 l 1,36,-1
635 266 m 1,40,-1
 635 655 l 1,41,-1
 430 655 l 1,42,-1
 430 266 l 1,43,-1
 635 266 l 1,40,-1
EndSplineSet
Validated: 1
EndChar

StartChar: Ydieresis
Encoding: 159 159 109
AltUni2: 000178.ffffffff.0 000178.ffffffff.0
Width: 1106
GlyphClass: 1
Flags: W
LayerCount: 2
Fore
SplineSet
809 1434 m 256,0,1
 809 1393 809 1393 778 1362 c 0,2,3
 748 1331 748 1331 707 1331 c 256,4,5
 666 1331 666 1331 635 1362 c 128,-1,6
 604 1393 604 1393 604 1434 c 256,7,8
 604 1475 604 1475 635 1505 c 0,9,10
 666 1536 666 1536 707 1536 c 256,11,12
 748 1536 748 1536 778 1505 c 0,13,14
 809 1475 809 1475 809 1434 c 256,0,1
502 1434 m 256,15,16
 502 1393 502 1393 471 1362 c 128,-1,17
 440 1331 440 1331 399 1331 c 256,18,19
 358 1331 358 1331 327 1362 c 0,20,21
 297 1393 297 1393 297 1434 c 256,22,23
 297 1475 297 1475 327 1505 c 0,24,25
 358 1536 358 1536 399 1536 c 256,26,27
 440 1536 440 1536 471 1505 c 0,28,29
 502 1475 502 1475 502 1434 c 256,15,16
1167 1229 m 1,30,-1
 737 553 l 1,31,-1
 737 0 l 1,32,-1
 369 0 l 1,33,-1
 369 553 l 1,34,-1
 -59 1229 l 1,35,-1
 389 1229 l 1,36,-1
 553 971 l 1,37,-1
 717 1229 l 1,38,-1
 1167 1229 l 1,30,-1
EndSplineSet
Validated: 1
EndChar

StartChar: exclamdown
Encoding: 161 161 111
Width: 389
GlyphClass: 1
Flags: W
LayerCount: 2
Fore
SplineSet
328 963 m 1,0,-1
 61 963 l 1,1,-1
 61 1229 l 1,2,-1
 328 1229 l 1,3,-1
 328 963 l 1,0,-1
328 0 m 1,4,-1
 61 0 l 1,5,-1
 61 860 l 1,6,-1
 328 860 l 1,7,-1
 328 0 l 1,4,-1
EndSplineSet
Validated: 1
EndChar

StartChar: cent
Encoding: 162 162 112
Width: 1147
GlyphClass: 1
Flags: W
LayerCount: 2
Fore
SplineSet
1085 471 m 1,0,-1
 963 205 l 1,1,-1
 707 205 l 1,2,-1
 707 0 l 1,3,-1
 440 0 l 1,4,-1
 440 205 l 1,5,-1
 184 205 l 2,6,7
 135 205 135 205 98 242 c 128,-1,8
 61 279 61 279 61 328 c 2,9,-1
 61 901 l 2,10,11
 61 950 61 950 98 987 c 128,-1,12
 135 1024 135 1024 184 1024 c 2,13,-1
 440 1024 l 1,14,-1
 440 1229 l 1,15,-1
 707 1229 l 1,16,-1
 707 1024 l 1,17,-1
 1085 1024 l 1,18,-1
 963 758 l 1,19,-1
 430 758 l 1,20,-1
 430 471 l 1,21,-1
 1085 471 l 1,0,-1
EndSplineSet
Validated: 1
EndChar

StartChar: yen
Encoding: 165 165 113
Width: 1106
GlyphClass: 1
Flags: W
LayerCount: 2
Fore
SplineSet
1167 1229 m 1,0,-1
 750 573 l 1,1,-1
 1106 573 l 1,2,-1
 1106 410 l 1,3,-1
 737 410 l 1,4,-1
 737 369 l 1,5,-1
 1106 369 l 1,6,-1
 1106 205 l 1,7,-1
 737 205 l 1,8,-1
 737 0 l 1,9,-1
 369 0 l 1,10,-1
 369 205 l 1,11,-1
 0 205 l 1,12,-1
 0 369 l 1,13,-1
 369 369 l 1,14,-1
 369 410 l 1,15,-1
 0 410 l 1,16,-1
 0 573 l 1,17,-1
 356 573 l 1,18,-1
 -59 1229 l 1,19,-1
 389 1229 l 1,20,-1
 553 971 l 1,21,-1
 717 1229 l 1,22,-1
 1167 1229 l 1,0,-1
EndSplineSet
Validated: 1
EndChar

StartChar: dieresis
Encoding: 168 168 114
Width: 635
GlyphClass: 1
Flags: W
LayerCount: 2
Fore
SplineSet
573 1434 m 256,0,1
 573 1393 573 1393 542 1362 c 0,2,3
 512 1331 512 1331 471 1331 c 256,4,5
 430 1331 430 1331 399 1362 c 0,6,7
 369 1393 369 1393 369 1434 c 256,8,9
 369 1475 369 1475 399 1505 c 0,10,11
 430 1536 430 1536 471 1536 c 256,12,13
 512 1536 512 1536 542 1505 c 0,14,15
 573 1475 573 1475 573 1434 c 256,0,1
266 1434 m 256,16,17
 266 1393 266 1393 235 1362 c 0,18,19
 205 1331 205 1331 164 1331 c 256,20,21
 123 1331 123 1331 92 1362 c 128,-1,22
 61 1393 61 1393 61 1434 c 256,23,24
 61 1475 61 1475 92 1505 c 0,25,26
 123 1536 123 1536 164 1536 c 256,27,28
 205 1536 205 1536 235 1505 c 0,29,30
 266 1475 266 1475 266 1434 c 256,16,17
EndSplineSet
Validated: 1
EndChar

StartChar: copyright
Encoding: 169 169 115
Width: 936
GlyphClass: 1
Flags: W
LayerCount: 2
Fore
SplineSet
874 254 m 2,0,1
 874 209 874 209 829 209 c 2,2,-1
 106 209 l 2,3,4
 61 209 61 209 61 254 c 2,5,-1
 61 977 l 2,6,7
 61 1022 61 1022 106 1022 c 2,8,-1
 829 1022 l 2,9,10
 874 1022 874 1022 874 977 c 2,11,-1
 874 254 l 2,0,1
737 307 m 1,12,-1
 737 922 l 1,13,-1
 199 922 l 1,14,-1
 199 307 l 1,15,-1
 737 307 l 1,12,-1
659 485 m 1,16,-1
 614 385 l 1,17,-1
 322 385 l 2,18,19
 276 385 276 385 276 430 c 2,20,-1
 276 799 l 2,21,22
 276 846 276 846 322 846 c 2,23,-1
 659 846 l 1,24,-1
 614 745 l 1,25,-1
 414 745 l 1,26,-1
 414 485 l 1,27,-1
 659 485 l 1,16,-1
EndSplineSet
Validated: 1
EndChar

StartChar: registered
Encoding: 174 174 116
Width: 936
GlyphClass: 1
Flags: W
LayerCount: 2
Fore
SplineSet
874 254 m 2,0,1
 874 209 874 209 829 209 c 2,2,-1
 106 209 l 2,3,4
 61 209 61 209 61 254 c 2,5,-1
 61 977 l 2,6,7
 61 1022 61 1022 106 1022 c 2,8,-1
 829 1022 l 2,9,10
 874 1022 874 1022 874 977 c 2,11,-1
 874 254 l 2,0,1
737 307 m 1,12,-1
 737 922 l 1,13,-1
 199 922 l 1,14,-1
 199 307 l 1,15,-1
 737 307 l 1,12,-1
676 385 m 1,16,-1
 553 385 l 1,17,-1
 430 653 l 1,18,-1
 522 653 l 1,19,-1
 522 745 l 1,20,-1
 414 745 l 1,21,-1
 414 385 l 1,22,-1
 276 385 l 1,23,-1
 276 846 l 1,24,-1
 614 846 l 2,25,26
 659 846 659 846 659 799 c 2,27,-1
 659 623 l 2,28,29
 659 578 659 578 586 578 c 1,30,-1
 676 385 l 1,16,-1
EndSplineSet
Validated: 1
EndChar

StartChar: degree
Encoding: 176 176 117
Width: 430
GlyphClass: 1
Flags: W
LayerCount: 2
Fore
SplineSet
369 1075 m 0,0,1
 369 1015 369 1015 322 968 c 0,2,3
 276 922 276 922 215 922 c 0,4,5
 153 922 153 922 107 968 c 128,-1,6
 61 1014 61 1014 61 1075 c 0,7,8
 61 1137 61 1137 107 1183 c 128,-1,9
 153 1229 153 1229 215 1229 c 0,10,11
 276 1229 276 1229 322 1183 c 0,12,13
 369 1136 369 1136 369 1075 c 0,0,1
287 1075 m 0,14,15
 287 1104 287 1104 265.5 1125.5 c 128,-1,16
 244 1147 244 1147 215 1147 c 256,17,18
 186 1147 186 1147 164.5 1125.5 c 128,-1,19
 143 1104 143 1104 143 1075 c 0,20,21
 143 1061 143 1061 149 1048 c 128,-1,22
 155 1035 155 1035 164.5 1025.5 c 128,-1,23
 174 1016 174 1016 187 1010 c 128,-1,24
 200 1004 200 1004 215 1004 c 256,25,26
 230 1004 230 1004 243 1010 c 128,-1,27
 256 1016 256 1016 265.5 1025.5 c 128,-1,28
 275 1035 275 1035 281 1048 c 128,-1,29
 287 1061 287 1061 287 1075 c 0,14,15
EndSplineSet
Validated: 1
EndChar

StartChar: plusminus
Encoding: 177 177 118
Width: 942
GlyphClass: 1
Flags: W
LayerCount: 2
Fore
SplineSet
881 686 m 1,0,-1
 604 686 l 1,1,-1
 604 410 l 1,2,-1
 338 410 l 1,3,-1
 338 686 l 1,4,-1
 61 686 l 1,5,-1
 61 952 l 1,6,-1
 338 952 l 1,7,-1
 338 1229 l 1,8,-1
 604 1229 l 1,9,-1
 604 952 l 1,10,-1
 881 952 l 1,11,-1
 881 686 l 1,0,-1
942 0 m 1,12,-1
 0 0 l 1,13,-1
 0 266 l 1,14,-1
 942 266 l 1,15,-1
 942 0 l 1,12,-1
EndSplineSet
Validated: 1
EndChar

StartChar: acute
Encoding: 180 180 119
Width: 532
GlyphClass: 1
Flags: W
LayerCount: 2
Fore
SplineSet
471 1434 m 1,0,-1
 61 1331 l 1,1,-1
 471 1638 l 1,2,-1
 471 1434 l 1,0,-1
EndSplineSet
Validated: 1
EndChar

StartChar: paragraph
Encoding: 182 182 120
Width: 1147
GlyphClass: 1
Flags: W
LayerCount: 2
Fore
SplineSet
1085 963 m 1,0,-1
 983 963 l 1,1,-1
 983 0 l 1,2,-1
 778 0 l 1,3,-1
 778 963 l 1,4,-1
 532 963 l 1,5,-1
 532 0 l 1,6,-1
 328 0 l 1,7,-1
 328 430 l 1,8,-1
 184 430 l 2,9,10
 135 430 135 430 98 467 c 128,-1,11
 61 504 61 504 61 553 c 2,12,-1
 61 1106 l 2,13,14
 61 1155 61 1155 98 1192 c 128,-1,15
 135 1229 135 1229 184 1229 c 2,16,-1
 1085 1229 l 1,17,-1
 1085 963 l 1,0,-1
EndSplineSet
Validated: 1
EndChar

StartChar: periodcentered
Encoding: 183 183 121
Width: 389
GlyphClass: 1
Flags: W
LayerCount: 2
Fore
SplineSet
328 481 m 1,0,-1
 61 481 l 1,1,-1
 61 748 l 1,2,-1
 328 748 l 1,3,-1
 328 481 l 1,0,-1
EndSplineSet
Validated: 1
EndChar

StartChar: questiondown
Encoding: 191 191 122
Width: 1065
GlyphClass: 1
Flags: W
LayerCount: 2
Fore
SplineSet
1004 963 m 1,0,-1
 737 963 l 1,1,-1
 737 1229 l 1,2,-1
 1004 1229 l 1,3,-1
 1004 963 l 1,0,-1
1004 123 m 2,4,5
 1004 74 1004 74 967 37 c 128,-1,6
 930 0 930 0 881 0 c 2,7,-1
 184 0 l 2,8,9
 135 0 135 0 98 37 c 128,-1,10
 61 74 61 74 61 123 c 2,11,-1
 61 594 l 2,12,13
 61 643 61 643 98 680 c 128,-1,14
 135 717 135 717 184 717 c 2,15,-1
 737 717 l 1,16,-1
 737 860 l 1,17,-1
 1004 860 l 1,18,-1
 1004 635 l 2,19,20
 1004 586 1004 586 967 549 c 128,-1,21
 930 512 930 512 881 512 c 2,22,-1
 328 512 l 1,23,-1
 328 205 l 1,24,-1
 737 205 l 1,25,-1
 737 307 l 1,26,-1
 1004 307 l 1,27,-1
 1004 123 l 2,4,5
EndSplineSet
Validated: 1
EndChar

StartChar: Agrave
Encoding: 192 192 123
Width: 1311
GlyphClass: 1
Flags: W
LayerCount: 2
Fore
SplineSet
655 1331 m 1,0,-1
 246 1434 l 1,1,-1
 246 1638 l 1,2,-1
 655 1331 l 1,0,-1
1372 0 m 1,3,-1
 553 0 l 1,4,-1
 553 266 l 1,5,-1
 852 266 l 1,6,-1
 655 737 l 1,7,-1
 348 0 l 1,8,-1
 -59 0 l 1,9,-1
 451 1229 l 1,10,-1
 860 1229 l 1,11,-1
 1372 0 l 1,3,-1
EndSplineSet
Validated: 1
EndChar

StartChar: Aacute
Encoding: 193 193 124
Width: 1311
GlyphClass: 1
Flags: W
LayerCount: 2
Fore
SplineSet
1065 1434 m 1,0,-1
 655 1331 l 1,1,-1
 1065 1638 l 1,2,-1
 1065 1434 l 1,0,-1
1372 0 m 1,3,-1
 553 0 l 1,4,-1
 553 266 l 1,5,-1
 852 266 l 1,6,-1
 655 737 l 1,7,-1
 348 0 l 1,8,-1
 -59 0 l 1,9,-1
 451 1229 l 1,10,-1
 860 1229 l 1,11,-1
 1372 0 l 1,3,-1
EndSplineSet
Validated: 1
EndChar

StartChar: Acircumflex
Encoding: 194 194 125
Width: 1311
GlyphClass: 1
Flags: W
LayerCount: 2
Fore
SplineSet
1044 1331 m 1,0,-1
 840 1331 l 1,1,-1
 655 1528 l 1,2,-1
 471 1331 l 1,3,-1
 266 1331 l 1,4,-1
 553 1638 l 1,5,-1
 758 1638 l 1,6,-1
 1044 1331 l 1,0,-1
1372 0 m 1,7,-1
 553 0 l 1,8,-1
 553 266 l 1,9,-1
 852 266 l 1,10,-1
 655 737 l 1,11,-1
 348 0 l 1,12,-1
 -59 0 l 1,13,-1
 451 1229 l 1,14,-1
 860 1229 l 1,15,-1
 1372 0 l 1,7,-1
EndSplineSet
Validated: 1
EndChar

StartChar: Atilde
Encoding: 195 195 126
Width: 1311
GlyphClass: 1
Flags: W
LayerCount: 2
Fore
SplineSet
997 1401 m 1,0,1
 906 1331 906 1331 821 1331 c 0,2,3
 763 1331 763 1331 654 1372 c 0,4,5
 546 1413 546 1413 487 1413 c 0,6,7
 406 1413 406 1413 315 1331 c 1,8,-1
 315 1540 l 1,9,10
 391 1606 391 1606 487 1606 c 0,11,12
 546 1606 546 1606 657 1565 c 0,13,14
 769 1524 769 1524 827 1524 c 0,15,16
 909 1524 909 1524 997 1606 c 1,17,-1
 997 1401 l 1,0,1
1372 0 m 1,18,-1
 553 0 l 1,19,-1
 553 266 l 1,20,-1
 852 266 l 1,21,-1
 655 737 l 1,22,-1
 348 0 l 1,23,-1
 -59 0 l 1,24,-1
 451 1229 l 1,25,-1
 860 1229 l 1,26,-1
 1372 0 l 1,18,-1
EndSplineSet
Validated: 1
EndChar

StartChar: Adieresis
Encoding: 196 196 127
Width: 1311
GlyphClass: 1
Flags: W
LayerCount: 2
Fore
SplineSet
911 1434 m 256,0,1
 911 1393 911 1393 880 1362 c 0,2,3
 850 1331 850 1331 809 1331 c 256,4,5
 768 1331 768 1331 737 1362 c 0,6,7
 707 1393 707 1393 707 1434 c 256,8,9
 707 1475 707 1475 737 1505 c 0,10,11
 768 1536 768 1536 809 1536 c 256,12,13
 850 1536 850 1536 880 1505 c 0,14,15
 911 1475 911 1475 911 1434 c 256,0,1
604 1434 m 256,16,17
 604 1393 604 1393 573 1362 c 0,18,19
 543 1331 543 1331 502 1331 c 256,20,21
 461 1331 461 1331 430 1362 c 128,-1,22
 399 1393 399 1393 399 1434 c 256,23,24
 399 1475 399 1475 430 1505 c 0,25,26
 461 1536 461 1536 502 1536 c 256,27,28
 543 1536 543 1536 573 1505 c 0,29,30
 604 1475 604 1475 604 1434 c 256,16,17
1372 0 m 1,31,-1
 553 0 l 1,32,-1
 553 266 l 1,33,-1
 852 266 l 1,34,-1
 655 737 l 1,35,-1
 348 0 l 1,36,-1
 -59 0 l 1,37,-1
 451 1229 l 1,38,-1
 860 1229 l 1,39,-1
 1372 0 l 1,31,-1
EndSplineSet
Validated: 1
EndChar

StartChar: Aring
Encoding: 197 197 128
Width: 1311
GlyphClass: 1
Flags: W
LayerCount: 2
Fore
SplineSet
809 1485 m 0,0,1
 809 1423 809 1423 763 1377 c 128,-1,2
 717 1331 717 1331 655 1331 c 0,3,4
 594 1331 594 1331 548 1377 c 128,-1,5
 502 1423 502 1423 502 1485 c 0,6,7
 502 1546 502 1546 548 1592 c 128,-1,8
 594 1638 594 1638 655 1638 c 0,9,10
 717 1638 717 1638 763 1592 c 128,-1,11
 809 1546 809 1546 809 1485 c 0,0,1
1372 0 m 1,12,-1
 553 0 l 1,13,-1
 553 266 l 1,14,-1
 852 266 l 1,15,-1
 655 737 l 1,16,-1
 348 0 l 1,17,-1
 -59 0 l 1,18,-1
 451 1229 l 1,19,-1
 860 1229 l 1,20,-1
 1372 0 l 1,12,-1
727 1485 m 0,21,22
 727 1499 727 1499 721 1512 c 128,-1,23
 715 1525 715 1525 705.5 1534.5 c 128,-1,24
 696 1544 696 1544 683 1550 c 128,-1,25
 670 1556 670 1556 655 1556 c 0,26,27
 627 1556 627 1556 605.5 1534.5 c 128,-1,28
 584 1513 584 1513 584 1485 c 0,29,30
 584 1470 584 1470 590 1457 c 128,-1,31
 596 1444 596 1444 605.5 1434.5 c 128,-1,32
 615 1425 615 1425 628 1419 c 128,-1,33
 641 1413 641 1413 655 1413 c 0,34,35
 684 1413 684 1413 705.5 1434.5 c 128,-1,36
 727 1456 727 1456 727 1485 c 0,21,22
EndSplineSet
Validated: 1
EndChar

StartChar: AE
Encoding: 198 198 129
Width: 2048
GlyphClass: 1
Flags: W
LayerCount: 2
Fore
SplineSet
1987 266 m 1,0,-1
 1864 0 l 1,1,-1
 664 0 l 1,2,-1
 664 266 l 1,3,-1
 963 266 l 1,4,-1
 963 737 l 1,5,-1
 348 0 l 1,6,-1
 -59 0 l 1,7,-1
 963 1229 l 1,8,-1
 1987 1229 l 1,9,-1
 1864 963 l 1,10,-1
 1331 963 l 1,11,-1
 1331 717 l 1,12,-1
 1864 717 l 1,13,-1
 1864 512 l 1,14,-1
 1331 512 l 1,15,-1
 1331 266 l 1,16,-1
 1987 266 l 1,0,-1
EndSplineSet
Validated: 1
EndChar

StartChar: Egrave
Encoding: 200 200 130
Width: 1147
GlyphClass: 1
Flags: W
LayerCount: 2
Fore
SplineSet
573 1331 m 1,0,-1
 164 1434 l 1,1,-1
 164 1638 l 1,2,-1
 573 1331 l 1,0,-1
1085 266 m 1,3,-1
 963 0 l 1,4,-1
 61 0 l 1,5,-1
 61 1229 l 1,6,-1
 1085 1229 l 1,7,-1
 963 963 l 1,8,-1
 430 963 l 1,9,-1
 430 717 l 1,10,-1
 963 717 l 1,11,-1
 963 512 l 1,12,-1
 430 512 l 1,13,-1
 430 266 l 1,14,-1
 1085 266 l 1,3,-1
EndSplineSet
Validated: 1
EndChar

StartChar: Eacute
Encoding: 201 201 131
Width: 1147
GlyphClass: 1
Flags: W
LayerCount: 2
Fore
SplineSet
983 1434 m 1,0,-1
 573 1331 l 1,1,-1
 983 1638 l 1,2,-1
 983 1434 l 1,0,-1
1085 266 m 1,3,-1
 963 0 l 1,4,-1
 61 0 l 1,5,-1
 61 1229 l 1,6,-1
 1085 1229 l 1,7,-1
 963 963 l 1,8,-1
 430 963 l 1,9,-1
 430 717 l 1,10,-1
 963 717 l 1,11,-1
 963 512 l 1,12,-1
 430 512 l 1,13,-1
 430 266 l 1,14,-1
 1085 266 l 1,3,-1
EndSplineSet
Validated: 1
EndChar

StartChar: Ecircumflex
Encoding: 202 202 132
Width: 1147
GlyphClass: 1
Flags: W
LayerCount: 2
Fore
SplineSet
963 1331 m 1,0,-1
 758 1331 l 1,1,-1
 573 1528 l 1,2,-1
 389 1331 l 1,3,-1
 184 1331 l 1,4,-1
 471 1638 l 1,5,-1
 676 1638 l 1,6,-1
 963 1331 l 1,0,-1
1085 266 m 1,7,-1
 963 0 l 1,8,-1
 61 0 l 1,9,-1
 61 1229 l 1,10,-1
 1085 1229 l 1,11,-1
 963 963 l 1,12,-1
 430 963 l 1,13,-1
 430 717 l 1,14,-1
 963 717 l 1,15,-1
 963 512 l 1,16,-1
 430 512 l 1,17,-1
 430 266 l 1,18,-1
 1085 266 l 1,7,-1
EndSplineSet
Validated: 1
EndChar

StartChar: Edieresis
Encoding: 203 203 133
Width: 1147
GlyphClass: 1
Flags: W
LayerCount: 2
Fore
SplineSet
829 1434 m 256,0,1
 829 1393 829 1393 798 1362 c 0,2,3
 768 1331 768 1331 727 1331 c 256,4,5
 686 1331 686 1331 655 1362 c 0,6,7
 625 1393 625 1393 625 1434 c 256,8,9
 625 1475 625 1475 655 1505 c 0,10,11
 686 1536 686 1536 727 1536 c 256,12,13
 768 1536 768 1536 798 1505 c 0,14,15
 829 1475 829 1475 829 1434 c 256,0,1
522 1434 m 256,16,17
 522 1393 522 1393 491 1362 c 0,18,19
 461 1331 461 1331 420 1331 c 256,20,21
 379 1331 379 1331 348 1362 c 128,-1,22
 317 1393 317 1393 317 1434 c 256,23,24
 317 1475 317 1475 348 1505 c 0,25,26
 379 1536 379 1536 420 1536 c 256,27,28
 461 1536 461 1536 491 1505 c 0,29,30
 522 1475 522 1475 522 1434 c 256,16,17
1085 266 m 1,31,-1
 963 0 l 1,32,-1
 61 0 l 1,33,-1
 61 1229 l 1,34,-1
 1085 1229 l 1,35,-1
 963 963 l 1,36,-1
 430 963 l 1,37,-1
 430 717 l 1,38,-1
 963 717 l 1,39,-1
 963 512 l 1,40,-1
 430 512 l 1,41,-1
 430 266 l 1,42,-1
 1085 266 l 1,31,-1
EndSplineSet
Validated: 1
EndChar

StartChar: Igrave
Encoding: 204 204 134
Width: 492
GlyphClass: 1
Flags: W
LayerCount: 2
Fore
SplineSet
246 1331 m 1,0,-1
 -162 1434 l 1,1,-1
 -162 1638 l 1,2,-1
 246 1331 l 1,0,-1
430 0 m 1,3,-1
 61 0 l 1,4,-1
 61 1229 l 1,5,-1
 430 1229 l 1,6,-1
 430 0 l 1,3,-1
EndSplineSet
Validated: 1
EndChar

StartChar: Iacute
Encoding: 205 205 135
Width: 492
GlyphClass: 1
Flags: W
LayerCount: 2
Fore
SplineSet
655 1434 m 1,0,-1
 246 1331 l 1,1,-1
 655 1638 l 1,2,-1
 655 1434 l 1,0,-1
430 0 m 1,3,-1
 61 0 l 1,4,-1
 61 1229 l 1,5,-1
 430 1229 l 1,6,-1
 430 0 l 1,3,-1
EndSplineSet
Validated: 1
EndChar

StartChar: Icircumflex
Encoding: 206 206 136
Width: 492
GlyphClass: 1
Flags: W
LayerCount: 2
Fore
SplineSet
635 1331 m 1,0,-1
 430 1331 l 1,1,-1
 246 1528 l 1,2,-1
 61 1331 l 1,3,-1
 -141 1331 l 1,4,-1
 143 1638 l 1,5,-1
 348 1638 l 1,6,-1
 635 1331 l 1,0,-1
430 0 m 1,7,-1
 61 0 l 1,8,-1
 61 1229 l 1,9,-1
 430 1229 l 1,10,-1
 430 0 l 1,7,-1
EndSplineSet
Validated: 1
EndChar

StartChar: Idieresis
Encoding: 207 207 137
Width: 492
GlyphClass: 1
Flags: W
LayerCount: 2
Fore
SplineSet
502 1434 m 256,0,1
 502 1393 502 1393 471 1362 c 128,-1,2
 440 1331 440 1331 399 1331 c 256,3,4
 358 1331 358 1331 327 1362 c 0,5,6
 297 1393 297 1393 297 1434 c 256,7,8
 297 1475 297 1475 327 1505 c 0,9,10
 358 1536 358 1536 399 1536 c 256,11,12
 440 1536 440 1536 471 1505 c 0,13,14
 502 1475 502 1475 502 1434 c 256,0,1
195 1434 m 256,15,16
 195 1393 195 1393 164 1362 c 128,-1,17
 133 1331 133 1331 92 1331 c 256,18,19
 51 1331 51 1331 21 1362 c 0,20,21
 -8 1394 -8 1394 -8 1434 c 256,22,23
 -8 1474 -8 1474 21 1505 c 0,24,25
 51 1536 51 1536 92 1536 c 256,26,27
 133 1536 133 1536 164 1505 c 0,28,29
 195 1475 195 1475 195 1434 c 256,15,16
430 0 m 1,30,-1
 61 0 l 1,31,-1
 61 1229 l 1,32,-1
 430 1229 l 1,33,-1
 430 0 l 1,30,-1
EndSplineSet
Validated: 1
EndChar

StartChar: Ntilde
Encoding: 209 209 138
Width: 1147
GlyphClass: 1
Flags: W
LayerCount: 2
Fore
SplineSet
915 1401 m 1,0,1
 824 1331 824 1331 739 1331 c 0,2,3
 681 1331 681 1331 572 1372 c 0,4,5
 464 1413 464 1413 406 1413 c 0,6,7
 324 1413 324 1413 233 1331 c 1,8,-1
 233 1540 l 1,9,10
 309 1606 309 1606 406 1606 c 0,11,12
 464 1606 464 1606 575 1565 c 0,13,14
 687 1524 687 1524 745 1524 c 0,15,16
 827 1524 827 1524 915 1606 c 1,17,-1
 915 1401 l 1,0,1
1085 0 m 1,18,-1
 717 0 l 1,19,-1
 717 963 l 1,20,-1
 430 963 l 1,21,-1
 430 0 l 1,22,-1
 61 0 l 1,23,-1
 61 1229 l 1,24,-1
 963 1229 l 2,25,26
 1012 1229 1012 1229 1048 1192 c 0,27,28
 1085 1155 1085 1155 1085 1106 c 2,29,-1
 1085 0 l 1,18,-1
EndSplineSet
Validated: 1
EndChar

StartChar: Ograve
Encoding: 210 210 139
Width: 1147
GlyphClass: 1
Flags: W
LayerCount: 2
Fore
SplineSet
573 1331 m 1,0,-1
 164 1434 l 1,1,-1
 164 1638 l 1,2,-1
 573 1331 l 1,0,-1
1085 123 m 2,3,4
 1085 74 1085 74 1048 37 c 0,5,6
 1012 0 1012 0 963 0 c 2,7,-1
 184 0 l 2,8,9
 135 0 135 0 98 37 c 128,-1,10
 61 74 61 74 61 123 c 2,11,-1
 61 1106 l 2,12,13
 61 1155 61 1155 98 1192 c 128,-1,14
 135 1229 135 1229 184 1229 c 2,15,-1
 963 1229 l 2,16,17
 1012 1229 1012 1229 1048 1192 c 0,18,19
 1085 1155 1085 1155 1085 1106 c 2,20,-1
 1085 123 l 2,3,4
717 266 m 1,21,-1
 717 963 l 1,22,-1
 430 963 l 1,23,-1
 430 266 l 1,24,-1
 717 266 l 1,21,-1
EndSplineSet
Validated: 1
EndChar

StartChar: Oacute
Encoding: 211 211 140
Width: 1147
GlyphClass: 1
Flags: W
LayerCount: 2
Fore
SplineSet
983 1434 m 1,0,-1
 573 1331 l 1,1,-1
 983 1638 l 1,2,-1
 983 1434 l 1,0,-1
1085 123 m 2,3,4
 1085 74 1085 74 1048 37 c 0,5,6
 1012 0 1012 0 963 0 c 2,7,-1
 184 0 l 2,8,9
 135 0 135 0 98 37 c 128,-1,10
 61 74 61 74 61 123 c 2,11,-1
 61 1106 l 2,12,13
 61 1155 61 1155 98 1192 c 128,-1,14
 135 1229 135 1229 184 1229 c 2,15,-1
 963 1229 l 2,16,17
 1012 1229 1012 1229 1048 1192 c 0,18,19
 1085 1155 1085 1155 1085 1106 c 2,20,-1
 1085 123 l 2,3,4
717 266 m 1,21,-1
 717 963 l 1,22,-1
 430 963 l 1,23,-1
 430 266 l 1,24,-1
 717 266 l 1,21,-1
EndSplineSet
Validated: 1
EndChar

StartChar: Ocircumflex
Encoding: 212 212 141
Width: 1147
GlyphClass: 1
Flags: W
LayerCount: 2
Fore
SplineSet
963 1331 m 1,0,-1
 758 1331 l 1,1,-1
 573 1528 l 1,2,-1
 389 1331 l 1,3,-1
 184 1331 l 1,4,-1
 471 1638 l 1,5,-1
 676 1638 l 1,6,-1
 963 1331 l 1,0,-1
1085 123 m 2,7,8
 1085 74 1085 74 1048 37 c 0,9,10
 1012 0 1012 0 963 0 c 2,11,-1
 184 0 l 2,12,13
 135 0 135 0 98 37 c 128,-1,14
 61 74 61 74 61 123 c 2,15,-1
 61 1106 l 2,16,17
 61 1155 61 1155 98 1192 c 128,-1,18
 135 1229 135 1229 184 1229 c 2,19,-1
 963 1229 l 2,20,21
 1012 1229 1012 1229 1048 1192 c 0,22,23
 1085 1155 1085 1155 1085 1106 c 2,24,-1
 1085 123 l 2,7,8
717 266 m 1,25,-1
 717 963 l 1,26,-1
 430 963 l 1,27,-1
 430 266 l 1,28,-1
 717 266 l 1,25,-1
EndSplineSet
Validated: 1
EndChar

StartChar: Otilde
Encoding: 213 213 142
Width: 1147
GlyphClass: 1
Flags: W
LayerCount: 2
Fore
SplineSet
915 1401 m 1,0,1
 824 1331 824 1331 739 1331 c 0,2,3
 681 1331 681 1331 572 1372 c 0,4,5
 464 1413 464 1413 406 1413 c 0,6,7
 324 1413 324 1413 233 1331 c 1,8,-1
 233 1540 l 1,9,10
 309 1606 309 1606 406 1606 c 0,11,12
 464 1606 464 1606 575 1565 c 0,13,14
 687 1524 687 1524 745 1524 c 0,15,16
 827 1524 827 1524 915 1606 c 1,17,-1
 915 1401 l 1,0,1
1085 123 m 2,18,19
 1085 74 1085 74 1048 37 c 0,20,21
 1012 0 1012 0 963 0 c 2,22,-1
 184 0 l 2,23,24
 135 0 135 0 98 37 c 128,-1,25
 61 74 61 74 61 123 c 2,26,-1
 61 1106 l 2,27,28
 61 1155 61 1155 98 1192 c 128,-1,29
 135 1229 135 1229 184 1229 c 2,30,-1
 963 1229 l 2,31,32
 1012 1229 1012 1229 1048 1192 c 0,33,34
 1085 1155 1085 1155 1085 1106 c 2,35,-1
 1085 123 l 2,18,19
717 266 m 1,36,-1
 717 963 l 1,37,-1
 430 963 l 1,38,-1
 430 266 l 1,39,-1
 717 266 l 1,36,-1
EndSplineSet
Validated: 1
EndChar

StartChar: Odieresis
Encoding: 214 214 143
Width: 1147
GlyphClass: 1
Flags: W
LayerCount: 2
Fore
SplineSet
829 1434 m 256,0,1
 829 1393 829 1393 798 1362 c 0,2,3
 768 1331 768 1331 727 1331 c 256,4,5
 686 1331 686 1331 655 1362 c 0,6,7
 625 1393 625 1393 625 1434 c 256,8,9
 625 1475 625 1475 655 1505 c 0,10,11
 686 1536 686 1536 727 1536 c 256,12,13
 768 1536 768 1536 798 1505 c 0,14,15
 829 1475 829 1475 829 1434 c 256,0,1
522 1434 m 256,16,17
 522 1393 522 1393 491 1362 c 0,18,19
 461 1331 461 1331 420 1331 c 256,20,21
 379 1331 379 1331 348 1362 c 128,-1,22
 317 1393 317 1393 317 1434 c 256,23,24
 317 1475 317 1475 348 1505 c 0,25,26
 379 1536 379 1536 420 1536 c 256,27,28
 461 1536 461 1536 491 1505 c 0,29,30
 522 1475 522 1475 522 1434 c 256,16,17
1085 123 m 2,31,32
 1085 74 1085 74 1048 37 c 0,33,34
 1012 0 1012 0 963 0 c 2,35,-1
 184 0 l 2,36,37
 135 0 135 0 98 37 c 128,-1,38
 61 74 61 74 61 123 c 2,39,-1
 61 1106 l 2,40,41
 61 1155 61 1155 98 1192 c 128,-1,42
 135 1229 135 1229 184 1229 c 2,43,-1
 963 1229 l 2,44,45
 1012 1229 1012 1229 1048 1192 c 0,46,47
 1085 1155 1085 1155 1085 1106 c 2,48,-1
 1085 123 l 2,31,32
717 266 m 1,49,-1
 717 963 l 1,50,-1
 430 963 l 1,51,-1
 430 266 l 1,52,-1
 717 266 l 1,49,-1
EndSplineSet
Validated: 1
EndChar

StartChar: Oslash
Encoding: 216 216 144
Width: 1147
GlyphClass: 1
Flags: W
LayerCount: 2
Fore
SplineSet
1147 1178 m 1,0,-1
 1085 1102 l 1,1,-1
 1085 123 l 2,2,3
 1085 74 1085 74 1048 37 c 0,4,5
 1012 0 1012 0 963 0 c 2,6,-1
 188 0 l 1,7,-1
 131 -70 l 1,8,-1
 0 31 l 1,9,-1
 63 109 l 1,10,11
 61 119 61 119 61 123 c 2,12,-1
 61 1106 l 2,13,14
 61 1155 61 1155 98 1192 c 128,-1,15
 135 1229 135 1229 184 1229 c 2,16,-1
 973 1229 l 1,17,-1
 1016 1280 l 1,18,-1
 1147 1178 l 1,0,-1
717 911 m 1,19,-1
 717 963 l 1,20,-1
 430 963 l 1,21,-1
 430 559 l 1,22,-1
 717 911 l 1,19,-1
717 266 m 1,23,-1
 717 649 l 1,24,-1
 430 297 l 1,25,-1
 430 266 l 1,26,-1
 717 266 l 1,23,-1
EndSplineSet
Validated: 1
EndChar

StartChar: Ugrave
Encoding: 217 217 145
Width: 1147
GlyphClass: 1
Flags: W
LayerCount: 2
Fore
SplineSet
573 1331 m 1,0,-1
 164 1434 l 1,1,-1
 164 1638 l 1,2,-1
 573 1331 l 1,0,-1
1085 0 m 1,3,-1
 184 0 l 2,4,5
 135 0 135 0 98 37 c 128,-1,6
 61 74 61 74 61 123 c 2,7,-1
 61 1229 l 1,8,-1
 430 1229 l 1,9,-1
 430 266 l 1,10,-1
 717 266 l 1,11,-1
 717 1229 l 1,12,-1
 1085 1229 l 1,13,-1
 1085 0 l 1,3,-1
EndSplineSet
Validated: 1
EndChar

StartChar: Uacute
Encoding: 218 218 146
Width: 1147
GlyphClass: 1
Flags: W
LayerCount: 2
Fore
SplineSet
983 1434 m 1,0,-1
 573 1331 l 1,1,-1
 983 1638 l 1,2,-1
 983 1434 l 1,0,-1
1085 0 m 1,3,-1
 184 0 l 2,4,5
 135 0 135 0 98 37 c 128,-1,6
 61 74 61 74 61 123 c 2,7,-1
 61 1229 l 1,8,-1
 430 1229 l 1,9,-1
 430 266 l 1,10,-1
 717 266 l 1,11,-1
 717 1229 l 1,12,-1
 1085 1229 l 1,13,-1
 1085 0 l 1,3,-1
EndSplineSet
Validated: 1
EndChar

StartChar: Ucircumflex
Encoding: 219 219 147
Width: 1147
GlyphClass: 1
Flags: W
LayerCount: 2
Fore
SplineSet
963 1331 m 1,0,-1
 758 1331 l 1,1,-1
 573 1528 l 1,2,-1
 389 1331 l 1,3,-1
 184 1331 l 1,4,-1
 471 1638 l 1,5,-1
 676 1638 l 1,6,-1
 963 1331 l 1,0,-1
1085 0 m 1,7,-1
 184 0 l 2,8,9
 135 0 135 0 98 37 c 128,-1,10
 61 74 61 74 61 123 c 2,11,-1
 61 1229 l 1,12,-1
 430 1229 l 1,13,-1
 430 266 l 1,14,-1
 717 266 l 1,15,-1
 717 1229 l 1,16,-1
 1085 1229 l 1,17,-1
 1085 0 l 1,7,-1
EndSplineSet
Validated: 1
EndChar

StartChar: Udieresis
Encoding: 220 220 148
Width: 1147
GlyphClass: 1
Flags: W
LayerCount: 2
Fore
SplineSet
829 1434 m 256,0,1
 829 1393 829 1393 798 1362 c 0,2,3
 768 1331 768 1331 727 1331 c 256,4,5
 686 1331 686 1331 655 1362 c 0,6,7
 625 1393 625 1393 625 1434 c 256,8,9
 625 1475 625 1475 655 1505 c 0,10,11
 686 1536 686 1536 727 1536 c 256,12,13
 768 1536 768 1536 798 1505 c 0,14,15
 829 1475 829 1475 829 1434 c 256,0,1
522 1434 m 256,16,17
 522 1393 522 1393 491 1362 c 0,18,19
 461 1331 461 1331 420 1331 c 256,20,21
 379 1331 379 1331 348 1362 c 128,-1,22
 317 1393 317 1393 317 1434 c 256,23,24
 317 1475 317 1475 348 1505 c 0,25,26
 379 1536 379 1536 420 1536 c 256,27,28
 461 1536 461 1536 491 1505 c 0,29,30
 522 1475 522 1475 522 1434 c 256,16,17
1085 0 m 1,31,-1
 184 0 l 2,32,33
 135 0 135 0 98 37 c 128,-1,34
 61 74 61 74 61 123 c 2,35,-1
 61 1229 l 1,36,-1
 430 1229 l 1,37,-1
 430 266 l 1,38,-1
 717 266 l 1,39,-1
 717 1229 l 1,40,-1
 1085 1229 l 1,41,-1
 1085 0 l 1,31,-1
EndSplineSet
Validated: 1
EndChar

StartChar: agrave
Encoding: 224 224 149
Width: 1065
GlyphClass: 1
Flags: W
LayerCount: 2
Fore
SplineSet
532 1024 m 1,0,-1
 123 1126 l 1,1,-1
 123 1331 l 1,2,-1
 532 1024 l 1,0,-1
1004 0 m 1,3,-1
 184 0 l 2,4,5
 135 0 135 0 98 37 c 128,-1,6
 61 74 61 74 61 123 c 2,7,-1
 61 430 l 2,8,9
 61 479 61 479 98 516 c 128,-1,10
 135 553 135 553 184 553 c 2,11,-1
 635 553 l 1,12,-1
 635 655 l 1,13,-1
 61 655 l 1,14,-1
 61 922 l 1,15,-1
 881 922 l 2,16,17
 930 922 930 922 967 885 c 128,-1,18
 1004 848 1004 848 1004 799 c 2,19,-1
 1004 0 l 1,3,-1
635 266 m 1,20,-1
 635 348 l 1,21,-1
 430 348 l 1,22,-1
 430 266 l 1,23,-1
 635 266 l 1,20,-1
EndSplineSet
Validated: 1
EndChar

StartChar: aacute
Encoding: 225 225 150
Width: 1065
GlyphClass: 1
Flags: W
LayerCount: 2
Fore
SplineSet
942 1126 m 1,0,-1
 532 1024 l 1,1,-1
 942 1331 l 1,2,-1
 942 1126 l 1,0,-1
1004 0 m 1,3,-1
 184 0 l 2,4,5
 135 0 135 0 98 37 c 128,-1,6
 61 74 61 74 61 123 c 2,7,-1
 61 430 l 2,8,9
 61 479 61 479 98 516 c 128,-1,10
 135 553 135 553 184 553 c 2,11,-1
 635 553 l 1,12,-1
 635 655 l 1,13,-1
 61 655 l 1,14,-1
 61 922 l 1,15,-1
 881 922 l 2,16,17
 930 922 930 922 967 885 c 128,-1,18
 1004 848 1004 848 1004 799 c 2,19,-1
 1004 0 l 1,3,-1
635 266 m 1,20,-1
 635 348 l 1,21,-1
 430 348 l 1,22,-1
 430 266 l 1,23,-1
 635 266 l 1,20,-1
EndSplineSet
Validated: 1
EndChar

StartChar: acircumflex
Encoding: 226 226 151
Width: 1065
GlyphClass: 1
Flags: W
LayerCount: 2
Fore
SplineSet
922 1024 m 1,0,-1
 717 1024 l 1,1,-1
 532 1221 l 1,2,-1
 348 1024 l 1,3,-1
 143 1024 l 1,4,-1
 430 1331 l 1,5,-1
 635 1331 l 1,6,-1
 922 1024 l 1,0,-1
1004 0 m 1,7,-1
 184 0 l 2,8,9
 135 0 135 0 98 37 c 128,-1,10
 61 74 61 74 61 123 c 2,11,-1
 61 430 l 2,12,13
 61 479 61 479 98 516 c 128,-1,14
 135 553 135 553 184 553 c 2,15,-1
 635 553 l 1,16,-1
 635 655 l 1,17,-1
 61 655 l 1,18,-1
 61 922 l 1,19,-1
 881 922 l 2,20,21
 930 922 930 922 967 885 c 128,-1,22
 1004 848 1004 848 1004 799 c 2,23,-1
 1004 0 l 1,7,-1
635 266 m 1,24,-1
 635 348 l 1,25,-1
 430 348 l 1,26,-1
 430 266 l 1,27,-1
 635 266 l 1,24,-1
EndSplineSet
Validated: 1
EndChar

StartChar: atilde
Encoding: 227 227 152
Width: 1065
GlyphClass: 1
Flags: W
LayerCount: 2
Fore
SplineSet
874 1094 m 1,0,1
 783 1024 783 1024 698 1024 c 0,2,3
 640 1024 640 1024 531 1065 c 0,4,5
 423 1106 423 1106 365 1106 c 0,6,7
 282 1106 282 1106 193 1024 c 1,8,-1
 193 1233 l 1,9,10
 269 1298 269 1298 365 1298 c 0,11,12
 423 1298 423 1298 534 1257 c 0,13,14
 644 1217 644 1217 705 1217 c 0,15,16
 785 1217 785 1217 874 1298 c 1,17,-1
 874 1094 l 1,0,1
1004 0 m 1,18,-1
 184 0 l 2,19,20
 135 0 135 0 98 37 c 128,-1,21
 61 74 61 74 61 123 c 2,22,-1
 61 430 l 2,23,24
 61 479 61 479 98 516 c 128,-1,25
 135 553 135 553 184 553 c 2,26,-1
 635 553 l 1,27,-1
 635 655 l 1,28,-1
 61 655 l 1,29,-1
 61 922 l 1,30,-1
 881 922 l 2,31,32
 930 922 930 922 967 885 c 128,-1,33
 1004 848 1004 848 1004 799 c 2,34,-1
 1004 0 l 1,18,-1
635 266 m 1,35,-1
 635 348 l 1,36,-1
 430 348 l 1,37,-1
 430 266 l 1,38,-1
 635 266 l 1,35,-1
EndSplineSet
Validated: 1
EndChar

StartChar: adieresis
Encoding: 228 228 153
Width: 1065
GlyphClass: 1
Flags: W
LayerCount: 2
Fore
SplineSet
788 1126 m 256,0,1
 788 1085 788 1085 757 1054 c 0,2,3
 727 1024 727 1024 686 1024 c 256,4,5
 645 1024 645 1024 614 1054 c 0,6,7
 584 1085 584 1085 584 1126 c 0,8,9
 584 1166 584 1166 614 1198 c 0,10,11
 645 1229 645 1229 686 1229 c 256,12,13
 727 1229 727 1229 757 1198 c 0,14,15
 788 1167 788 1167 788 1126 c 256,0,1
481 1126 m 256,16,17
 481 1085 481 1085 450 1054 c 0,18,19
 420 1024 420 1024 379 1024 c 256,20,21
 338 1024 338 1024 307 1054 c 0,22,23
 276 1085 276 1085 276 1126 c 256,24,25
 276 1167 276 1167 307 1198 c 128,-1,26
 338 1229 338 1229 379 1229 c 256,27,28
 420 1229 420 1229 450 1198 c 0,29,30
 481 1167 481 1167 481 1126 c 256,16,17
1004 0 m 1,31,-1
 184 0 l 2,32,33
 135 0 135 0 98 37 c 128,-1,34
 61 74 61 74 61 123 c 2,35,-1
 61 430 l 2,36,37
 61 479 61 479 98 516 c 128,-1,38
 135 553 135 553 184 553 c 2,39,-1
 635 553 l 1,40,-1
 635 655 l 1,41,-1
 61 655 l 1,42,-1
 61 922 l 1,43,-1
 881 922 l 2,44,45
 930 922 930 922 967 885 c 128,-1,46
 1004 848 1004 848 1004 799 c 2,47,-1
 1004 0 l 1,31,-1
635 266 m 1,48,-1
 635 348 l 1,49,-1
 430 348 l 1,50,-1
 430 266 l 1,51,-1
 635 266 l 1,48,-1
EndSplineSet
Validated: 1
EndChar

StartChar: aring
Encoding: 229 229 154
Width: 1065
GlyphClass: 1
Flags: W
LayerCount: 2
Fore
SplineSet
686 1178 m 0,0,1
 686 1116 686 1116 640 1070 c 128,-1,2
 594 1024 594 1024 532 1024 c 0,3,4
 471 1024 471 1024 425 1070 c 128,-1,5
 379 1116 379 1116 379 1178 c 0,6,7
 379 1239 379 1239 425 1285 c 128,-1,8
 471 1331 471 1331 532 1331 c 0,9,10
 594 1331 594 1331 640 1285 c 128,-1,11
 686 1239 686 1239 686 1178 c 0,0,1
1004 0 m 1,12,-1
 184 0 l 2,13,14
 135 0 135 0 98 37 c 128,-1,15
 61 74 61 74 61 123 c 2,16,-1
 61 430 l 2,17,18
 61 479 61 479 98 516 c 128,-1,19
 135 553 135 553 184 553 c 2,20,-1
 635 553 l 1,21,-1
 635 655 l 1,22,-1
 61 655 l 1,23,-1
 61 922 l 1,24,-1
 881 922 l 2,25,26
 930 922 930 922 967 885 c 128,-1,27
 1004 848 1004 848 1004 799 c 2,28,-1
 1004 0 l 1,12,-1
604 1178 m 0,29,30
 604 1192 604 1192 598 1205 c 128,-1,31
 592 1218 592 1218 582.5 1227.5 c 128,-1,32
 573 1237 573 1237 560 1243 c 128,-1,33
 547 1249 547 1249 532 1249 c 0,34,35
 504 1249 504 1249 482.5 1227.5 c 128,-1,36
 461 1206 461 1206 461 1178 c 0,37,38
 461 1163 461 1163 467 1150 c 128,-1,39
 473 1137 473 1137 482.5 1127.5 c 128,-1,40
 492 1118 492 1118 505 1112 c 128,-1,41
 518 1106 518 1106 532 1106 c 0,42,43
 561 1106 561 1106 582.5 1127.5 c 128,-1,44
 604 1149 604 1149 604 1178 c 0,29,30
635 266 m 1,45,-1
 635 348 l 1,46,-1
 430 348 l 1,47,-1
 430 266 l 1,48,-1
 635 266 l 1,45,-1
EndSplineSet
Validated: 1
EndChar

StartChar: ae
Encoding: 230 230 155
Width: 2007
GlyphClass: 1
Flags: W
LayerCount: 2
Fore
SplineSet
1946 266 m 1,0,-1
 1823 0 l 1,1,-1
 1126 0 l 2,2,3
 1077 0 1077 0 1040 37 c 0,4,5
 1004 74 1004 74 1004 123 c 1,6,-1
 1004 0 l 1,7,-1
 184 0 l 2,8,9
 135 0 135 0 98 37 c 128,-1,10
 61 74 61 74 61 123 c 2,11,-1
 61 430 l 2,12,13
 61 479 61 479 98 516 c 128,-1,14
 135 553 135 553 184 553 c 2,15,-1
 635 553 l 1,16,-1
 635 655 l 1,17,-1
 61 655 l 1,18,-1
 61 922 l 1,19,-1
 881 922 l 2,20,21
 930 922 930 922 967 885 c 128,-1,22
 1004 848 1004 848 1004 799 c 1,23,24
 1004 847 1004 847 1040 885 c 0,25,26
 1077 922 1077 922 1126 922 c 2,27,-1
 1823 922 l 2,28,29
 1872 922 1872 922 1909 885 c 128,-1,30
 1946 848 1946 848 1946 799 c 2,31,-1
 1946 471 l 2,32,33
 1946 422 1946 422 1909 385 c 128,-1,34
 1872 348 1872 348 1823 348 c 2,35,-1
 1372 348 l 1,36,-1
 1372 266 l 1,37,-1
 1946 266 l 1,0,-1
1577 553 m 1,38,-1
 1577 655 l 1,39,-1
 1372 655 l 1,40,-1
 1372 553 l 1,41,-1
 1577 553 l 1,38,-1
635 266 m 1,42,-1
 635 348 l 1,43,-1
 430 348 l 1,44,-1
 430 266 l 1,45,-1
 635 266 l 1,42,-1
EndSplineSet
Validated: 1
EndChar

StartChar: egrave
Encoding: 232 232 156
Width: 1065
GlyphClass: 1
Flags: W
LayerCount: 2
Fore
SplineSet
532 1024 m 1,0,-1
 123 1126 l 1,1,-1
 123 1331 l 1,2,-1
 532 1024 l 1,0,-1
1004 266 m 1,3,-1
 881 0 l 1,4,-1
 184 0 l 2,5,6
 135 0 135 0 98 37 c 128,-1,7
 61 74 61 74 61 123 c 2,8,-1
 61 799 l 2,9,10
 61 848 61 848 98 885 c 128,-1,11
 135 922 135 922 184 922 c 2,12,-1
 881 922 l 2,13,14
 930 922 930 922 967 885 c 128,-1,15
 1004 848 1004 848 1004 799 c 2,16,-1
 1004 471 l 2,17,18
 1004 422 1004 422 967 385 c 128,-1,19
 930 348 930 348 881 348 c 2,20,-1
 430 348 l 1,21,-1
 430 266 l 1,22,-1
 1004 266 l 1,3,-1
635 553 m 1,23,-1
 635 655 l 1,24,-1
 430 655 l 1,25,-1
 430 553 l 1,26,-1
 635 553 l 1,23,-1
EndSplineSet
Validated: 1
EndChar

StartChar: eacute
Encoding: 233 233 157
Width: 1065
GlyphClass: 1
Flags: W
LayerCount: 2
Fore
SplineSet
942 1126 m 1,0,-1
 532 1024 l 1,1,-1
 942 1331 l 1,2,-1
 942 1126 l 1,0,-1
1004 266 m 1,3,-1
 881 0 l 1,4,-1
 184 0 l 2,5,6
 135 0 135 0 98 37 c 128,-1,7
 61 74 61 74 61 123 c 2,8,-1
 61 799 l 2,9,10
 61 848 61 848 98 885 c 128,-1,11
 135 922 135 922 184 922 c 2,12,-1
 881 922 l 2,13,14
 930 922 930 922 967 885 c 128,-1,15
 1004 848 1004 848 1004 799 c 2,16,-1
 1004 471 l 2,17,18
 1004 422 1004 422 967 385 c 128,-1,19
 930 348 930 348 881 348 c 2,20,-1
 430 348 l 1,21,-1
 430 266 l 1,22,-1
 1004 266 l 1,3,-1
635 553 m 1,23,-1
 635 655 l 1,24,-1
 430 655 l 1,25,-1
 430 553 l 1,26,-1
 635 553 l 1,23,-1
EndSplineSet
Validated: 1
EndChar

StartChar: ecircumflex
Encoding: 234 234 158
Width: 1065
GlyphClass: 1
Flags: W
LayerCount: 2
Fore
SplineSet
922 1024 m 1,0,-1
 717 1024 l 1,1,-1
 532 1221 l 1,2,-1
 348 1024 l 1,3,-1
 143 1024 l 1,4,-1
 430 1331 l 1,5,-1
 635 1331 l 1,6,-1
 922 1024 l 1,0,-1
1004 266 m 1,7,-1
 881 0 l 1,8,-1
 184 0 l 2,9,10
 135 0 135 0 98 37 c 128,-1,11
 61 74 61 74 61 123 c 2,12,-1
 61 799 l 2,13,14
 61 848 61 848 98 885 c 128,-1,15
 135 922 135 922 184 922 c 2,16,-1
 881 922 l 2,17,18
 930 922 930 922 967 885 c 128,-1,19
 1004 848 1004 848 1004 799 c 2,20,-1
 1004 471 l 2,21,22
 1004 422 1004 422 967 385 c 128,-1,23
 930 348 930 348 881 348 c 2,24,-1
 430 348 l 1,25,-1
 430 266 l 1,26,-1
 1004 266 l 1,7,-1
635 553 m 1,27,-1
 635 655 l 1,28,-1
 430 655 l 1,29,-1
 430 553 l 1,30,-1
 635 553 l 1,27,-1
EndSplineSet
Validated: 1
EndChar

StartChar: edieresis
Encoding: 235 235 159
Width: 1065
GlyphClass: 1
Flags: W
LayerCount: 2
Fore
SplineSet
788 1126 m 256,0,1
 788 1085 788 1085 757 1054 c 0,2,3
 727 1024 727 1024 686 1024 c 256,4,5
 645 1024 645 1024 614 1054 c 0,6,7
 584 1085 584 1085 584 1126 c 0,8,9
 584 1166 584 1166 614 1198 c 0,10,11
 645 1229 645 1229 686 1229 c 256,12,13
 727 1229 727 1229 757 1198 c 0,14,15
 788 1167 788 1167 788 1126 c 256,0,1
481 1126 m 256,16,17
 481 1085 481 1085 450 1054 c 0,18,19
 420 1024 420 1024 379 1024 c 256,20,21
 338 1024 338 1024 307 1054 c 0,22,23
 276 1085 276 1085 276 1126 c 256,24,25
 276 1167 276 1167 307 1198 c 128,-1,26
 338 1229 338 1229 379 1229 c 256,27,28
 420 1229 420 1229 450 1198 c 0,29,30
 481 1167 481 1167 481 1126 c 256,16,17
1004 266 m 1,31,-1
 881 0 l 1,32,-1
 184 0 l 2,33,34
 135 0 135 0 98 37 c 128,-1,35
 61 74 61 74 61 123 c 2,36,-1
 61 799 l 2,37,38
 61 848 61 848 98 885 c 128,-1,39
 135 922 135 922 184 922 c 2,40,-1
 881 922 l 2,41,42
 930 922 930 922 967 885 c 128,-1,43
 1004 848 1004 848 1004 799 c 2,44,-1
 1004 471 l 2,45,46
 1004 422 1004 422 967 385 c 128,-1,47
 930 348 930 348 881 348 c 2,48,-1
 430 348 l 1,49,-1
 430 266 l 1,50,-1
 1004 266 l 1,31,-1
635 553 m 1,51,-1
 635 655 l 1,52,-1
 430 655 l 1,53,-1
 430 553 l 1,54,-1
 635 553 l 1,51,-1
EndSplineSet
Validated: 1
EndChar

StartChar: igrave
Encoding: 236 236 160
Width: 492
GlyphClass: 1
Flags: W
LayerCount: 2
Fore
SplineSet
246 1024 m 1,0,-1
 -162 1126 l 1,1,-1
 -162 1331 l 1,2,-1
 246 1024 l 1,0,-1
430 0 m 1,3,-1
 61 0 l 1,4,-1
 61 922 l 1,5,-1
 430 922 l 1,6,-1
 430 0 l 1,3,-1
EndSplineSet
Validated: 1
EndChar

StartChar: iacute
Encoding: 237 237 161
Width: 492
GlyphClass: 1
Flags: W
LayerCount: 2
Fore
SplineSet
655 1126 m 1,0,-1
 246 1024 l 1,1,-1
 655 1331 l 1,2,-1
 655 1126 l 1,0,-1
430 0 m 1,3,-1
 61 0 l 1,4,-1
 61 922 l 1,5,-1
 430 922 l 1,6,-1
 430 0 l 1,3,-1
EndSplineSet
Validated: 1
EndChar

StartChar: icircumflex
Encoding: 238 238 162
Width: 492
GlyphClass: 1
Flags: W
LayerCount: 2
Fore
SplineSet
635 1024 m 1,0,-1
 430 1024 l 1,1,-1
 246 1221 l 1,2,-1
 61 1024 l 1,3,-1
 -141 1024 l 1,4,-1
 143 1331 l 1,5,-1
 348 1331 l 1,6,-1
 635 1024 l 1,0,-1
430 0 m 1,7,-1
 61 0 l 1,8,-1
 61 922 l 1,9,-1
 430 922 l 1,10,-1
 430 0 l 1,7,-1
EndSplineSet
Validated: 1
EndChar

StartChar: idieresis
Encoding: 239 239 163
Width: 492
GlyphClass: 1
Flags: W
LayerCount: 2
Fore
SplineSet
502 1126 m 256,0,1
 502 1085 502 1085 471 1054 c 0,2,3
 439 1024 439 1024 399 1024 c 0,4,5
 358 1024 358 1024 327 1054 c 0,6,7
 297 1085 297 1085 297 1126 c 0,8,9
 297 1166 297 1166 327 1198 c 0,10,11
 358 1229 358 1229 399 1229 c 256,12,13
 440 1229 440 1229 471 1198 c 128,-1,14
 502 1167 502 1167 502 1126 c 256,0,1
195 1126 m 256,15,16
 195 1085 195 1085 164 1054 c 0,17,18
 132 1024 132 1024 92 1024 c 0,19,20
 51 1024 51 1024 21 1054 c 0,21,22
 -8 1086 -8 1086 -8 1126 c 256,23,24
 -8 1166 -8 1166 21 1198 c 0,25,26
 51 1229 51 1229 92 1229 c 256,27,28
 133 1229 133 1229 164 1198 c 128,-1,29
 195 1167 195 1167 195 1126 c 256,15,16
430 0 m 1,30,-1
 61 0 l 1,31,-1
 61 922 l 1,32,-1
 430 922 l 1,33,-1
 430 0 l 1,30,-1
EndSplineSet
Validated: 1
EndChar

StartChar: ntilde
Encoding: 241 241 164
Width: 1065
GlyphClass: 1
Flags: W
LayerCount: 2
Fore
SplineSet
874 1094 m 1,0,1
 783 1024 783 1024 698 1024 c 0,2,3
 640 1024 640 1024 531 1065 c 0,4,5
 423 1106 423 1106 365 1106 c 0,6,7
 282 1106 282 1106 193 1024 c 1,8,-1
 193 1233 l 1,9,10
 269 1298 269 1298 365 1298 c 0,11,12
 423 1298 423 1298 534 1257 c 0,13,14
 644 1217 644 1217 705 1217 c 0,15,16
 785 1217 785 1217 874 1298 c 1,17,-1
 874 1094 l 1,0,1
1004 0 m 1,18,-1
 635 0 l 1,19,-1
 635 655 l 1,20,-1
 430 655 l 1,21,-1
 430 0 l 1,22,-1
 61 0 l 1,23,-1
 61 922 l 1,24,-1
 881 922 l 2,25,26
 930 922 930 922 967 885 c 128,-1,27
 1004 848 1004 848 1004 799 c 2,28,-1
 1004 0 l 1,18,-1
EndSplineSet
Validated: 1
EndChar

StartChar: ograve
Encoding: 242 242 165
Width: 1065
GlyphClass: 1
Flags: W
LayerCount: 2
Fore
SplineSet
532 1024 m 1,0,-1
 123 1126 l 1,1,-1
 123 1331 l 1,2,-1
 532 1024 l 1,0,-1
1004 123 m 2,3,4
 1004 74 1004 74 967 37 c 128,-1,5
 930 0 930 0 881 0 c 2,6,-1
 184 0 l 2,7,8
 135 0 135 0 98 37 c 128,-1,9
 61 74 61 74 61 123 c 2,10,-1
 61 799 l 2,11,12
 61 848 61 848 98 885 c 128,-1,13
 135 922 135 922 184 922 c 2,14,-1
 881 922 l 2,15,16
 930 922 930 922 967 885 c 128,-1,17
 1004 848 1004 848 1004 799 c 2,18,-1
 1004 123 l 2,3,4
635 266 m 1,19,-1
 635 655 l 1,20,-1
 430 655 l 1,21,-1
 430 266 l 1,22,-1
 635 266 l 1,19,-1
EndSplineSet
Validated: 1
EndChar

StartChar: oacute
Encoding: 243 243 166
Width: 1065
GlyphClass: 1
Flags: W
LayerCount: 2
Fore
SplineSet
942 1126 m 1,0,-1
 532 1024 l 1,1,-1
 942 1331 l 1,2,-1
 942 1126 l 1,0,-1
1004 123 m 2,3,4
 1004 74 1004 74 967 37 c 128,-1,5
 930 0 930 0 881 0 c 2,6,-1
 184 0 l 2,7,8
 135 0 135 0 98 37 c 128,-1,9
 61 74 61 74 61 123 c 2,10,-1
 61 799 l 2,11,12
 61 848 61 848 98 885 c 128,-1,13
 135 922 135 922 184 922 c 2,14,-1
 881 922 l 2,15,16
 930 922 930 922 967 885 c 128,-1,17
 1004 848 1004 848 1004 799 c 2,18,-1
 1004 123 l 2,3,4
635 266 m 1,19,-1
 635 655 l 1,20,-1
 430 655 l 1,21,-1
 430 266 l 1,22,-1
 635 266 l 1,19,-1
EndSplineSet
Validated: 1
EndChar

StartChar: ocircumflex
Encoding: 244 244 167
Width: 1065
GlyphClass: 1
Flags: W
LayerCount: 2
Fore
SplineSet
922 1024 m 1,0,-1
 717 1024 l 1,1,-1
 532 1221 l 1,2,-1
 348 1024 l 1,3,-1
 143 1024 l 1,4,-1
 430 1331 l 1,5,-1
 635 1331 l 1,6,-1
 922 1024 l 1,0,-1
1004 123 m 2,7,8
 1004 74 1004 74 967 37 c 128,-1,9
 930 0 930 0 881 0 c 2,10,-1
 184 0 l 2,11,12
 135 0 135 0 98 37 c 128,-1,13
 61 74 61 74 61 123 c 2,14,-1
 61 799 l 2,15,16
 61 848 61 848 98 885 c 128,-1,17
 135 922 135 922 184 922 c 2,18,-1
 881 922 l 2,19,20
 930 922 930 922 967 885 c 128,-1,21
 1004 848 1004 848 1004 799 c 2,22,-1
 1004 123 l 2,7,8
635 266 m 1,23,-1
 635 655 l 1,24,-1
 430 655 l 1,25,-1
 430 266 l 1,26,-1
 635 266 l 1,23,-1
EndSplineSet
Validated: 1
EndChar

StartChar: otilde
Encoding: 245 245 168
Width: 1065
GlyphClass: 1
Flags: W
LayerCount: 2
Fore
SplineSet
874 1094 m 1,0,1
 783 1024 783 1024 698 1024 c 0,2,3
 640 1024 640 1024 531 1065 c 0,4,5
 423 1106 423 1106 365 1106 c 0,6,7
 282 1106 282 1106 193 1024 c 1,8,-1
 193 1233 l 1,9,10
 269 1298 269 1298 365 1298 c 0,11,12
 423 1298 423 1298 534 1257 c 0,13,14
 644 1217 644 1217 705 1217 c 0,15,16
 785 1217 785 1217 874 1298 c 1,17,-1
 874 1094 l 1,0,1
1004 123 m 2,18,19
 1004 74 1004 74 967 37 c 128,-1,20
 930 0 930 0 881 0 c 2,21,-1
 184 0 l 2,22,23
 135 0 135 0 98 37 c 128,-1,24
 61 74 61 74 61 123 c 2,25,-1
 61 799 l 2,26,27
 61 848 61 848 98 885 c 128,-1,28
 135 922 135 922 184 922 c 2,29,-1
 881 922 l 2,30,31
 930 922 930 922 967 885 c 128,-1,32
 1004 848 1004 848 1004 799 c 2,33,-1
 1004 123 l 2,18,19
635 266 m 1,34,-1
 635 655 l 1,35,-1
 430 655 l 1,36,-1
 430 266 l 1,37,-1
 635 266 l 1,34,-1
EndSplineSet
Validated: 1
EndChar

StartChar: odieresis
Encoding: 246 246 169
Width: 1065
GlyphClass: 1
Flags: W
LayerCount: 2
Fore
SplineSet
788 1126 m 256,0,1
 788 1085 788 1085 757 1054 c 0,2,3
 727 1024 727 1024 686 1024 c 256,4,5
 645 1024 645 1024 614 1054 c 0,6,7
 584 1085 584 1085 584 1126 c 0,8,9
 584 1166 584 1166 614 1198 c 0,10,11
 645 1229 645 1229 686 1229 c 256,12,13
 727 1229 727 1229 757 1198 c 0,14,15
 788 1167 788 1167 788 1126 c 256,0,1
481 1126 m 256,16,17
 481 1085 481 1085 450 1054 c 0,18,19
 420 1024 420 1024 379 1024 c 256,20,21
 338 1024 338 1024 307 1054 c 0,22,23
 276 1085 276 1085 276 1126 c 256,24,25
 276 1167 276 1167 307 1198 c 128,-1,26
 338 1229 338 1229 379 1229 c 256,27,28
 420 1229 420 1229 450 1198 c 0,29,30
 481 1167 481 1167 481 1126 c 256,16,17
1004 123 m 2,31,32
 1004 74 1004 74 967 37 c 128,-1,33
 930 0 930 0 881 0 c 2,34,-1
 184 0 l 2,35,36
 135 0 135 0 98 37 c 128,-1,37
 61 74 61 74 61 123 c 2,38,-1
 61 799 l 2,39,40
 61 848 61 848 98 885 c 128,-1,41
 135 922 135 922 184 922 c 2,42,-1
 881 922 l 2,43,44
 930 922 930 922 967 885 c 128,-1,45
 1004 848 1004 848 1004 799 c 2,46,-1
 1004 123 l 2,31,32
635 266 m 1,47,-1
 635 655 l 1,48,-1
 430 655 l 1,49,-1
 430 266 l 1,50,-1
 635 266 l 1,47,-1
EndSplineSet
Validated: 1
EndChar

StartChar: divide
Encoding: 247 247 170
Width: 942
GlyphClass: 1
Flags: W
LayerCount: 2
Fore
SplineSet
604 942 m 256,0,1
 604 889 604 889 564 849 c 128,-1,2
 524 809 524 809 471 809 c 256,3,4
 418 809 418 809 378 849 c 128,-1,5
 338 889 338 889 338 942 c 256,6,7
 338 995 338 995 378 1035 c 128,-1,8
 418 1075 418 1075 471 1075 c 256,9,10
 524 1075 524 1075 564 1035 c 128,-1,11
 604 995 604 995 604 942 c 256,0,1
881 481 m 1,12,-1
 61 481 l 1,13,-1
 61 748 l 1,14,-1
 881 748 l 1,15,-1
 881 481 l 1,12,-1
604 287 m 0,16,17
 604 233 604 233 564 193 c 0,18,19
 523 154 523 154 471 154 c 0,20,21
 418 154 418 154 378 193 c 0,22,23
 338 233 338 233 338 287 c 0,24,25
 338 340 338 340 378 380 c 128,-1,26
 418 420 418 420 471 420 c 256,27,28
 524 420 524 420 564 380 c 128,-1,29
 604 340 604 340 604 287 c 0,16,17
EndSplineSet
Validated: 1
EndChar

StartChar: oslash
Encoding: 248 248 171
Width: 1065
GlyphClass: 1
Flags: W
LayerCount: 2
Fore
SplineSet
1055 881 m 1,0,-1
 999 827 l 1,1,2
 1004 812 1004 812 1004 799 c 2,3,-1
 1004 123 l 2,4,5
 1004 74 1004 74 967 37 c 128,-1,6
 930 0 930 0 881 0 c 2,7,-1
 184 0 l 2,8,9
 165 0 165 0 143 8 c 1,10,-1
 92 -39 l 1,11,-1
 10 41 l 1,12,-1
 66 94 l 1,13,14
 61 111 61 111 61 123 c 2,15,-1
 61 799 l 2,16,17
 61 848 61 848 98 885 c 128,-1,18
 135 922 135 922 184 922 c 2,19,-1
 881 922 l 2,20,21
 901 922 901 922 922 913 c 1,22,-1
 973 963 l 1,23,-1
 1055 881 l 1,0,-1
635 639 m 1,24,-1
 635 655 l 1,25,-1
 430 655 l 1,26,-1
 430 442 l 1,27,-1
 635 639 l 1,24,-1
635 266 m 1,28,-1
 635 479 l 1,29,-1
 430 283 l 1,30,-1
 430 266 l 1,31,-1
 635 266 l 1,28,-1
EndSplineSet
Validated: 1
EndChar

StartChar: ugrave
Encoding: 249 249 172
Width: 1065
GlyphClass: 1
Flags: W
LayerCount: 2
Fore
SplineSet
532 1024 m 1,0,-1
 123 1126 l 1,1,-1
 123 1331 l 1,2,-1
 532 1024 l 1,0,-1
1004 0 m 1,3,-1
 184 0 l 2,4,5
 135 0 135 0 98 37 c 128,-1,6
 61 74 61 74 61 123 c 2,7,-1
 61 922 l 1,8,-1
 430 922 l 1,9,-1
 430 266 l 1,10,-1
 635 266 l 1,11,-1
 635 922 l 1,12,-1
 1004 922 l 1,13,-1
 1004 0 l 1,3,-1
EndSplineSet
Validated: 1
EndChar

StartChar: uacute
Encoding: 250 250 173
Width: 1065
GlyphClass: 1
Flags: W
LayerCount: 2
Fore
SplineSet
942 1126 m 1,0,-1
 532 1024 l 1,1,-1
 942 1331 l 1,2,-1
 942 1126 l 1,0,-1
1004 0 m 1,3,-1
 184 0 l 2,4,5
 135 0 135 0 98 37 c 128,-1,6
 61 74 61 74 61 123 c 2,7,-1
 61 922 l 1,8,-1
 430 922 l 1,9,-1
 430 266 l 1,10,-1
 635 266 l 1,11,-1
 635 922 l 1,12,-1
 1004 922 l 1,13,-1
 1004 0 l 1,3,-1
EndSplineSet
Validated: 1
EndChar

StartChar: ucircumflex
Encoding: 251 251 174
Width: 1065
GlyphClass: 1
Flags: W
LayerCount: 2
Fore
SplineSet
922 1024 m 1,0,-1
 717 1024 l 1,1,-1
 532 1221 l 1,2,-1
 348 1024 l 1,3,-1
 143 1024 l 1,4,-1
 430 1331 l 1,5,-1
 635 1331 l 1,6,-1
 922 1024 l 1,0,-1
1004 0 m 1,7,-1
 184 0 l 2,8,9
 135 0 135 0 98 37 c 128,-1,10
 61 74 61 74 61 123 c 2,11,-1
 61 922 l 1,12,-1
 430 922 l 1,13,-1
 430 266 l 1,14,-1
 635 266 l 1,15,-1
 635 922 l 1,16,-1
 1004 922 l 1,17,-1
 1004 0 l 1,7,-1
EndSplineSet
Validated: 1
EndChar

StartChar: udieresis
Encoding: 252 252 175
Width: 1065
GlyphClass: 1
Flags: W
LayerCount: 2
Fore
SplineSet
788 1126 m 256,0,1
 788 1085 788 1085 757 1054 c 0,2,3
 727 1024 727 1024 686 1024 c 256,4,5
 645 1024 645 1024 614 1054 c 0,6,7
 584 1085 584 1085 584 1126 c 0,8,9
 584 1166 584 1166 614 1198 c 0,10,11
 645 1229 645 1229 686 1229 c 256,12,13
 727 1229 727 1229 757 1198 c 0,14,15
 788 1167 788 1167 788 1126 c 256,0,1
481 1126 m 256,16,17
 481 1085 481 1085 450 1054 c 0,18,19
 420 1024 420 1024 379 1024 c 256,20,21
 338 1024 338 1024 307 1054 c 0,22,23
 276 1085 276 1085 276 1126 c 256,24,25
 276 1167 276 1167 307 1198 c 128,-1,26
 338 1229 338 1229 379 1229 c 256,27,28
 420 1229 420 1229 450 1198 c 0,29,30
 481 1167 481 1167 481 1126 c 256,16,17
1004 0 m 1,31,-1
 184 0 l 2,32,33
 135 0 135 0 98 37 c 128,-1,34
 61 74 61 74 61 123 c 2,35,-1
 61 922 l 1,36,-1
 430 922 l 1,37,-1
 430 266 l 1,38,-1
 635 266 l 1,39,-1
 635 922 l 1,40,-1
 1004 922 l 1,41,-1
 1004 0 l 1,31,-1
EndSplineSet
Validated: 1
EndChar

StartChar: ydieresis
Encoding: 255 255 176
Width: 1065
GlyphClass: 1
Flags: W
LayerCount: 2
Fore
SplineSet
788 1126 m 256,0,1
 788 1085 788 1085 757 1054 c 0,2,3
 727 1024 727 1024 686 1024 c 256,4,5
 645 1024 645 1024 614 1054 c 0,6,7
 584 1085 584 1085 584 1126 c 0,8,9
 584 1166 584 1166 614 1198 c 0,10,11
 645 1229 645 1229 686 1229 c 256,12,13
 727 1229 727 1229 757 1198 c 0,14,15
 788 1167 788 1167 788 1126 c 256,0,1
481 1126 m 256,16,17
 481 1085 481 1085 450 1054 c 0,18,19
 420 1024 420 1024 379 1024 c 256,20,21
 338 1024 338 1024 307 1054 c 0,22,23
 276 1085 276 1085 276 1126 c 256,24,25
 276 1167 276 1167 307 1198 c 128,-1,26
 338 1229 338 1229 379 1229 c 256,27,28
 420 1229 420 1229 450 1198 c 0,29,30
 481 1167 481 1167 481 1126 c 256,16,17
1004 -285 m 2,31,32
 1004 -334 1004 -334 967 -371 c 128,-1,33
 930 -408 930 -408 881 -408 c 2,34,-1
 184 -408 l 1,35,-1
 61 -141 l 1,36,-1
 635 -141 l 1,37,-1
 635 0 l 1,38,-1
 184 0 l 2,39,40
 135 0 135 0 98 37 c 128,-1,41
 61 74 61 74 61 123 c 2,42,-1
 61 922 l 1,43,-1
 430 922 l 1,44,-1
 430 266 l 1,45,-1
 635 266 l 1,46,-1
 635 922 l 1,47,-1
 1004 922 l 1,48,-1
 1004 -285 l 2,31,32
EndSplineSet
Validated: 1
EndChar

StartChar: Scaron
Encoding: 138 138 178
AltUni2: 000160.ffffffff.0 000160.ffffffff.0
Width: 1147
GlyphClass: 1
Flags: W
LayerCount: 2
Fore
SplineSet
963 1638 m 1,0,-1
 676 1331 l 1,1,-1
 471 1331 l 1,2,-1
 184 1638 l 1,3,-1
 389 1638 l 1,4,-1
 573 1442 l 1,5,-1
 758 1638 l 1,6,-1
 963 1638 l 1,0,-1
1085 123 m 2,7,8
 1085 74 1085 74 1048 37 c 0,9,10
 1012 0 1012 0 963 0 c 2,11,-1
 184 0 l 1,12,-1
 61 266 l 1,13,-1
 717 266 l 1,14,-1
 717 512 l 1,15,-1
 184 512 l 2,16,17
 135 512 135 512 98 549 c 128,-1,18
 61 586 61 586 61 635 c 2,19,-1
 61 1106 l 2,20,21
 61 1155 61 1155 98 1192 c 128,-1,22
 135 1229 135 1229 184 1229 c 2,23,-1
 1085 1229 l 1,24,-1
 1085 963 l 1,25,-1
 430 963 l 1,26,-1
 430 717 l 1,27,-1
 963 717 l 2,28,29
 1012 717 1012 717 1048 680 c 0,30,31
 1085 643 1085 643 1085 594 c 2,32,-1
 1085 123 l 2,7,8
EndSplineSet
Validated: 1
EndChar

StartChar: scaron
Encoding: 154 154 179
AltUni2: 000161.ffffffff.0 000161.ffffffff.0
Width: 1065
GlyphClass: 1
Flags: W
LayerCount: 2
Fore
SplineSet
922 1331 m 1,0,-1
 635 1024 l 1,1,-1
 430 1024 l 1,2,-1
 143 1331 l 1,3,-1
 348 1331 l 1,4,-1
 532 1135 l 1,5,-1
 717 1331 l 1,6,-1
 922 1331 l 1,0,-1
1004 123 m 2,7,8
 1004 74 1004 74 967 37 c 128,-1,9
 930 0 930 0 881 0 c 2,10,-1
 184 0 l 1,11,-1
 61 266 l 1,12,-1
 635 266 l 1,13,-1
 635 348 l 1,14,-1
 184 348 l 2,15,16
 135 348 135 348 98 385 c 128,-1,17
 61 422 61 422 61 471 c 2,18,-1
 61 799 l 2,19,20
 61 848 61 848 98 885 c 128,-1,21
 135 922 135 922 184 922 c 2,22,-1
 1004 922 l 1,23,-1
 1004 655 l 1,24,-1
 430 655 l 1,25,-1
 430 553 l 1,26,-1
 881 553 l 2,27,28
 930 553 930 553 967 516 c 128,-1,29
 1004 479 1004 479 1004 430 c 2,30,-1
 1004 123 l 2,7,8
EndSplineSet
Validated: 1
EndChar

StartChar: minus
Encoding: 173 173 180
Width: 942
GlyphClass: 1
Flags: W
LayerCount: 2
Fore
SplineSet
881 481 m 1,0,-1
 61 481 l 1,1,-1
 61 748 l 1,2,-1
 881 748 l 1,3,-1
 881 481 l 1,0,-1
EndSplineSet
Validated: 1
EndChar

StartChar: onequarter
Encoding: 188 188 181
Width: 1389
GlyphClass: 1
Flags: W
LayerCount: 2
Fore
SplineSet
1327 0 m 1,0,-1
 1143 0 l 1,1,-1
 1143 154 l 1,2,-1
 815 154 l 1,3,-1
 815 614 l 1,4,-1
 999 614 l 1,5,-1
 999 256 l 1,6,-1
 1143 256 l 1,7,-1
 1143 410 l 1,8,-1
 1327 410 l 1,9,-1
 1327 0 l 1,0,-1
1020 1229 m 1,10,-1
 424 0 l 1,11,-1
 143 0 l 1,12,-1
 739 1229 l 1,13,-1
 1020 1229 l 1,10,-1
348 614 m 1,14,-1
 164 614 l 1,15,-1
 164 1096 l 1,16,-1
 61 1096 l 1,17,-1
 123 1229 l 1,18,-1
 348 1229 l 1,19,-1
 348 614 l 1,14,-1
EndSplineSet
Validated: 1
EndChar

StartChar: onehalf
Encoding: 189 189 182
Width: 1409
GlyphClass: 1
Flags: W
LayerCount: 2
Fore
SplineSet
1348 0 m 1,0,-1
 897 0 l 2,1,2
 872 0 872 0 854 18.5 c 128,-1,3
 836 37 836 37 836 61 c 2,4,-1
 836 297 l 2,5,6
 836 322 836 322 854 340 c 128,-1,7
 872 358 872 358 897 358 c 2,8,-1
 1163 358 l 1,9,-1
 1163 481 l 1,10,-1
 836 481 l 1,11,-1
 836 614 l 1,12,-1
 1286 614 l 2,13,14
 1311 614 1311 614 1329.5 596 c 128,-1,15
 1348 578 1348 578 1348 553 c 2,16,-1
 1348 317 l 2,17,18
 1348 293 1348 293 1329.5 274.5 c 128,-1,19
 1311 256 1311 256 1286 256 c 2,20,-1
 1020 256 l 1,21,-1
 1020 133 l 1,22,-1
 1348 133 l 1,23,-1
 1348 0 l 1,0,-1
1020 1229 m 1,24,-1
 424 0 l 1,25,-1
 143 0 l 1,26,-1
 739 1229 l 1,27,-1
 1020 1229 l 1,24,-1
348 614 m 1,28,-1
 164 614 l 1,29,-1
 164 1096 l 1,30,-1
 61 1096 l 1,31,-1
 123 1229 l 1,32,-1
 348 1229 l 1,33,-1
 348 614 l 1,28,-1
EndSplineSet
Validated: 1
EndChar

StartChar: threequarters
Encoding: 190 190 183
Width: 1634
GlyphClass: 1
Flags: W
LayerCount: 2
Fore
SplineSet
1573 0 m 1,0,-1
 1389 0 l 1,1,-1
 1389 154 l 1,2,-1
 1061 154 l 1,3,-1
 1061 614 l 1,4,-1
 1245 614 l 1,5,-1
 1245 256 l 1,6,-1
 1389 256 l 1,7,-1
 1389 410 l 1,8,-1
 1573 410 l 1,9,-1
 1573 0 l 1,0,-1
1266 1229 m 1,10,-1
 670 0 l 1,11,-1
 389 0 l 1,12,-1
 985 1229 l 1,13,-1
 1266 1229 l 1,10,-1
573 676 m 2,14,15
 573 651 573 651 555 632.5 c 128,-1,16
 537 614 537 614 512 614 c 2,17,-1
 61 614 l 1,18,-1
 61 748 l 1,19,-1
 389 748 l 1,20,-1
 389 870 l 1,21,-1
 164 870 l 1,22,-1
 164 973 l 1,23,-1
 389 973 l 1,24,-1
 389 1096 l 1,25,-1
 61 1096 l 1,26,-1
 61 1229 l 1,27,-1
 512 1229 l 2,28,29
 537 1229 537 1229 555 1210.5 c 128,-1,30
 573 1192 573 1192 573 1167 c 2,31,-1
 573 983 l 2,32,33
 573 958 573 958 555 940 c 128,-1,34
 537 922 537 922 512 922 c 1,35,36
 573 921 573 921 573 870 c 2,37,-1
 573 676 l 2,14,15
EndSplineSet
Validated: 1
EndChar

StartChar: multiply
Encoding: 215 215 184
Width: 942
GlyphClass: 1
Flags: W
LayerCount: 2
Fore
SplineSet
854 420 m 1,0,-1
 666 231 l 1,1,-1
 471 426 l 1,2,-1
 276 231 l 1,3,-1
 88 420 l 1,4,-1
 283 614 l 1,5,-1
 88 809 l 1,6,-1
 276 997 l 1,7,-1
 471 803 l 1,8,-1
 666 997 l 1,9,-1
 854 809 l 1,10,-1
 659 614 l 1,11,-1
 854 420 l 1,0,-1
EndSplineSet
Validated: 1
EndChar

StartChar: Yacute
Encoding: 221 221 185
Width: 1106
GlyphClass: 1
Flags: W
LayerCount: 2
Fore
SplineSet
963 1434 m 1,0,-1
 553 1331 l 1,1,-1
 963 1638 l 1,2,-1
 963 1434 l 1,0,-1
1167 1229 m 1,3,-1
 737 553 l 1,4,-1
 737 0 l 1,5,-1
 369 0 l 1,6,-1
 369 553 l 1,7,-1
 -59 1229 l 1,8,-1
 389 1229 l 1,9,-1
 553 971 l 1,10,-1
 717 1229 l 1,11,-1
 1167 1229 l 1,3,-1
EndSplineSet
Validated: 1
EndChar

StartChar: yacute
Encoding: 253 253 186
Width: 1065
GlyphClass: 1
Flags: W
LayerCount: 2
Fore
SplineSet
942 1126 m 1,0,-1
 532 1024 l 1,1,-1
 942 1331 l 1,2,-1
 942 1126 l 1,0,-1
1004 -285 m 2,3,4
 1004 -334 1004 -334 967 -371 c 128,-1,5
 930 -408 930 -408 881 -408 c 2,6,-1
 184 -408 l 1,7,-1
 61 -141 l 1,8,-1
 635 -141 l 1,9,-1
 635 0 l 1,10,-1
 184 0 l 2,11,12
 135 0 135 0 98 37 c 128,-1,13
 61 74 61 74 61 123 c 2,14,-1
 61 922 l 1,15,-1
 430 922 l 1,16,-1
 430 266 l 1,17,-1
 635 266 l 1,18,-1
 635 922 l 1,19,-1
 1004 922 l 1,20,-1
 1004 -285 l 2,3,4
EndSplineSet
Validated: 1
EndChar

StartChar: uni2654
Encoding: 9812 9812 187
Width: 2048
LayerCount: 2
Fore
SplineSet
1142.78417969 951.919921875 m 0,0,1
 1167.36035156 951.919921875 1167.36035156 951.919921875 1204.22363281 940.65625 c 128,-1,2
 1241.08789062 929.391601562 1241.08789062 929.391601562 1287.16796875 905.83984375 c 128,-1,3
 1333.24804688 882.288085938 1333.24804688 882.288085938 1364.9921875 829.040039062 c 128,-1,4
 1396.73632812 775.791992188 1396.73632812 775.791992188 1396.73632812 706.16015625 c 0,5,6
 1396.73632812 650.864257812 1396.73632812 650.864257812 1377.28027344 607.856445312 c 128,-1,7
 1357.82421875 564.84765625 1357.82421875 564.84765625 1329.15234375 530.032226562 c 128,-1,8
 1300.48046875 495.215820312 1300.48046875 495.215820312 1270.78417969 452.208007812 c 128,-1,9
 1241.08789062 409.200195312 1241.08789062 409.200195312 1217.53613281 328.303710938 c 128,-1,10
 1193.984375 247.408203125 1193.984375 247.408203125 1189.88769531 136.81640625 c 0,11,12
 1185.79199219 -0.400390625 1185.79199219 -0.400390625 776.192382812 -0.400390625 c 0,13,14
 368.639648438 -0.400390625 368.639648438 -0.400390625 362.49609375 136.81640625 c 0,15,16
 354.303710938 280.17578125 354.303710938 280.17578125 320.51171875 372.3359375 c 128,-1,17
 286.719726562 464.49609375 286.719726562 464.49609375 250.879882812 497.263671875 c 128,-1,18
 215.040039062 530.032226562 215.040039062 530.032226562 185.34375 581.232421875 c 128,-1,19
 155.6484375 632.431640625 155.6484375 632.431640625 155.6484375 706.16015625 c 0,20,21
 155.6484375 777.83984375 155.6484375 777.83984375 187.391601562 831.087890625 c 128,-1,22
 219.135742188 884.3359375 219.135742188 884.3359375 265.215820312 907.887695312 c 128,-1,23
 311.295898438 931.440429688 311.295898438 931.440429688 349.18359375 941.6796875 c 128,-1,24
 387.072265625 951.919921875 387.072265625 951.919921875 413.696289062 951.919921875 c 0,25,26
 514.047851562 951.919921875 514.047851562 951.919921875 614.400390625 872.047851562 c 1,27,28
 614.400390625 968.303710938 614.400390625 968.303710938 632.83203125 1008.24023438 c 128,-1,29
 651.263671875 1048.17578125 651.263671875 1048.17578125 727.040039062 1097.328125 c 1,30,-1
 727.040039062 1146.48046875 l 1,31,-1
 643.072265625 1195.63183594 l 1,32,-1
 643.072265625 1269.36035156 l 1,33,-1
 718.84765625 1269.36035156 l 1,34,-1
 745.471679688 1347.18359375 l 1,35,-1
 806.912109375 1347.18359375 l 1,36,-1
 833.536132812 1269.36035156 l 1,37,-1
 909.311523438 1269.36035156 l 1,38,-1
 909.311523438 1195.63183594 l 1,39,-1
 825.34375 1146.48046875 l 1,40,-1
 825.34375 1097.328125 l 1,41,42
 901.120117188 1050.22363281 901.120117188 1050.22363281 919.551757812 1006.19238281 c 128,-1,43
 937.984375 962.16015625 937.984375 962.16015625 937.984375 872.047851562 c 1,44,45
 964.608398438 898.671875 964.608398438 898.671875 1022.97558594 925.295898438 c 128,-1,46
 1081.34375 951.919921875 1081.34375 951.919921875 1142.78417969 951.919921875 c 0,0,1
776.192382812 689.776367188 m 1,47,48
 788.48046875 712.303710938 788.48046875 712.303710938 811.0078125 747.120117188 c 128,-1,49
 833.536132812 781.935546875 833.536132812 781.935546875 840.704101562 795.248046875 c 128,-1,50
 847.872070312 808.559570312 847.872070312 808.559570312 855.040039062 836.208007812 c 128,-1,51
 862.208007812 863.856445312 862.208007812 863.856445312 862.208007812 900.719726562 c 0,52,53
 862.208007812 1021.55175781 862.208007812 1021.55175781 778.240234375 1021.55175781 c 0,54,55
 690.17578125 1021.55175781 690.17578125 1021.55175781 690.17578125 900.719726562 c 0,56,57
 690.17578125 863.856445312 690.17578125 863.856445312 697.34375 836.208007812 c 128,-1,58
 704.51171875 808.559570312 704.51171875 808.559570312 711.6796875 794.223632812 c 128,-1,59
 718.84765625 779.887695312 718.84765625 779.887695312 741.375976562 746.095703125 c 128,-1,60
 763.904296875 712.303710938 763.904296875 712.303710938 776.192382812 689.776367188 c 1,47,48
1140.73632812 878.192382812 m 0,61,62
 1040.38378906 878.192382812 1040.38378906 878.192382812 933.887695312 774.767578125 c 128,-1,63
 827.391601562 671.34375 827.391601562 671.34375 813.055664062 505.456054688 c 0,64,65
 813.055664062 456.303710938 813.055664062 456.303710938 1187.83984375 456.303710938 c 0,66,67
 1191.93554688 460.400390625 1191.93554688 460.400390625 1234.94433594 513.6484375 c 128,-1,68
 1277.95214844 566.896484375 1277.95214844 566.896484375 1300.48046875 610.927734375 c 128,-1,69
 1323.0078125 654.959960938 1323.0078125 654.959960938 1323.0078125 693.872070312 c 0,70,71
 1323.0078125 775.791992188 1323.0078125 775.791992188 1270.78417969 826.9921875 c 128,-1,72
 1218.55957031 878.192382812 1218.55957031 878.192382812 1140.73632812 878.192382812 c 0,61,62
1150.97558594 374.383789062 m 1,73,74
 1091.58398438 378.48046875 1091.58398438 378.48046875 1022.97558594 383.599609375 c 128,-1,75
 954.368164062 388.719726562 954.368164062 388.719726562 926.719726562 390.767578125 c 128,-1,76
 899.072265625 392.81640625 899.072265625 392.81640625 866.303710938 396.912109375 c 128,-1,77
 833.536132812 401.0078125 833.536132812 401.0078125 815.103515625 405.103515625 c 128,-1,78
 796.671875 409.200195312 796.671875 409.200195312 776.192382812 417.391601562 c 1,79,80
 751.616210938 407.15234375 751.616210938 407.15234375 716.799804688 399.984375 c 128,-1,81
 681.984375 392.81640625 681.984375 392.81640625 654.3359375 390.767578125 c 128,-1,82
 626.688476562 388.719726562 626.688476562 388.719726562 544.767578125 383.599609375 c 128,-1,83
 462.84765625 378.48046875 462.84765625 378.48046875 401.408203125 374.383789062 c 1,84,85
 421.887695312 296.559570312 421.887695312 296.559570312 428.032226562 202.3515625 c 1,86,87
 569.34375 247.408203125 569.34375 247.408203125 776.192382812 247.408203125 c 0,88,89
 987.135742188 247.408203125 987.135742188 247.408203125 1124.3515625 202.3515625 c 1,90,91
 1130.49609375 304.751953125 1130.49609375 304.751953125 1150.97558594 374.383789062 c 1,73,74
411.6484375 878.192382812 m 0,92,93
 337.919921875 878.192382812 337.919921875 878.192382812 283.6484375 826.9921875 c 128,-1,94
 229.375976562 775.791992188 229.375976562 775.791992188 229.375976562 693.872070312 c 0,95,96
 229.375976562 665.200195312 229.375976562 665.200195312 245.759765625 630.383789062 c 128,-1,97
 262.143554688 595.568359375 262.143554688 595.568359375 278.528320312 570.9921875 c 128,-1,98
 294.912109375 546.416015625 294.912109375 546.416015625 325.631835938 507.50390625 c 128,-1,99
 356.3515625 468.591796875 356.3515625 468.591796875 364.543945312 456.303710938 c 1,100,101
 739.328125 456.303710938 739.328125 456.303710938 739.328125 505.456054688 c 0,102,103
 724.9921875 671.34375 724.9921875 671.34375 619.51953125 774.767578125 c 128,-1,104
 514.047851562 878.192382812 514.047851562 878.192382812 411.6484375 878.192382812 c 0,92,93
778.240234375 165.48828125 m 0,105,106
 491.51953125 165.48828125 491.51953125 165.48828125 491.51953125 112.240234375 c 0,107,108
 491.51953125 93.8076171875 491.51953125 93.8076171875 589.82421875 83.568359375 c 128,-1,109
 688.127929688 73.328125 688.127929688 73.328125 776.192382812 73.328125 c 0,110,111
 1060.86425781 73.328125 1060.86425781 73.328125 1060.86425781 112.240234375 c 0,112,113
 1060.86425781 165.48828125 1060.86425781 165.48828125 778.240234375 165.48828125 c 0,105,106
EndSplineSet
Validated: 524289
EndChar

StartChar: uni2655
Encoding: 9813 9813 188
Width: 2048
LayerCount: 2
Fore
SplineSet
774.143554688 460.400390625 m 0,0,1
 886.784179688 460.400390625 886.784179688 460.400390625 984.064453125 453.232421875 c 128,-1,2
 1081.34375 446.064453125 1081.34375 446.064453125 1097.72753906 446.064453125 c 0,3,4
 1122.30371094 446.064453125 1122.30371094 446.064453125 1128.44824219 449.135742188 c 128,-1,5
 1134.59179688 452.208007812 1134.59179688 452.208007812 1134.59179688 464.49609375 c 0,6,7
 1134.59179688 505.456054688 1134.59179688 505.456054688 1008.63964844 526.959960938 c 128,-1,8
 882.688476562 548.463867188 882.688476562 548.463867188 776.192382812 548.463867188 c 0,9,10
 667.6484375 548.463867188 667.6484375 548.463867188 542.719726562 526.959960938 c 128,-1,11
 417.791992188 505.456054688 417.791992188 505.456054688 417.791992188 464.49609375 c 0,12,13
 417.791992188 454.255859375 417.791992188 454.255859375 423.935546875 450.16015625 c 128,-1,14
 430.080078125 446.064453125 430.080078125 446.064453125 454.65625 446.064453125 c 0,15,16
 456.704101562 446.064453125 456.704101562 446.064453125 577.536132812 453.232421875 c 128,-1,17
 698.368164062 460.400390625 698.368164062 460.400390625 774.143554688 460.400390625 c 0,0,1
1107.96777344 368.240234375 m 1,18,19
 946.17578125 388.719726562 946.17578125 388.719726562 776.192382812 388.719726562 c 0,20,21
 598.015625 388.719726562 598.015625 388.719726562 444.416015625 368.240234375 c 1,22,23
 468.9921875 347.759765625 468.9921875 347.759765625 468.9921875 288.368164062 c 0,24,25
 468.9921875 249.456054688 468.9921875 249.456054688 456.704101562 241.263671875 c 1,26,27
 581.631835938 263.791992188 581.631835938 263.791992188 776.192382812 263.791992188 c 128,-1,28
 970.751953125 263.791992188 970.751953125 263.791992188 1095.6796875 241.263671875 c 1,29,30
 1083.39160156 249.456054688 1083.39160156 249.456054688 1083.39160156 288.368164062 c 0,31,32
 1083.39160156 347.759765625 1083.39160156 347.759765625 1107.96777344 368.240234375 c 1,18,19
1110.015625 134.767578125 m 0,33,34
 1110.015625 192.112304688 1110.015625 192.112304688 776.192382812 192.112304688 c 128,-1,35
 442.368164062 192.112304688 442.368164062 192.112304688 442.368164062 134.767578125 c 0,36,37
 442.368164062 83.568359375 442.368164062 83.568359375 776.192382812 83.568359375 c 128,-1,38
 1110.015625 83.568359375 1110.015625 83.568359375 1110.015625 134.767578125 c 0,33,34
776.192382812 1263.21582031 m 0,39,40
 724.9921875 1263.21582031 724.9921875 1263.21582031 724.9921875 1214.06445312 c 0,41,42
 724.9921875 1160.81640625 724.9921875 1160.81640625 776.192382812 1160.81640625 c 0,43,44
 825.34375 1160.81640625 825.34375 1160.81640625 825.34375 1214.06445312 c 0,45,46
 825.34375 1263.21582031 825.34375 1263.21582031 776.192382812 1263.21582031 c 0,39,40
704.51171875 1011.31152344 m 0,47,48
 704.51171875 1080.94433594 704.51171875 1080.94433594 683.0078125 1140.3359375 c 128,-1,49
 661.50390625 1199.72753906 661.50390625 1199.72753906 661.50390625 1207.91992188 c 0,50,51
 661.50390625 1255.02441406 661.50390625 1255.02441406 695.295898438 1288.81640625 c 128,-1,52
 729.087890625 1322.60839844 729.087890625 1322.60839844 776.192382812 1322.60839844 c 128,-1,53
 823.295898438 1322.60839844 823.295898438 1322.60839844 856.064453125 1288.81640625 c 128,-1,54
 888.83203125 1255.02441406 888.83203125 1255.02441406 888.83203125 1207.91992188 c 0,55,56
 888.83203125 1199.72753906 888.83203125 1199.72753906 866.303710938 1141.36035156 c 128,-1,57
 843.776367188 1082.9921875 843.776367188 1082.9921875 843.776367188 1011.31152344 c 0,58,59
 843.776367188 910.959960938 843.776367188 910.959960938 888.83203125 714.3515625 c 1,60,61
 999.423828125 947.82421875 999.423828125 947.82421875 999.423828125 1066.60839844 c 0,62,63
 999.423828125 1078.89648438 999.423828125 1078.89648438 993.280273438 1112.68847656 c 128,-1,64
 987.135742188 1146.48046875 987.135742188 1146.48046875 987.135742188 1154.671875 c 0,65,66
 987.135742188 1201.77636719 987.135742188 1201.77636719 1019.90429688 1235.56835938 c 128,-1,67
 1052.671875 1269.36035156 1052.671875 1269.36035156 1099.77636719 1269.36035156 c 0,68,69
 1148.92773438 1269.36035156 1148.92773438 1269.36035156 1182.71972656 1235.56835938 c 128,-1,70
 1216.51171875 1201.77636719 1216.51171875 1201.77636719 1216.51171875 1154.671875 c 0,71,72
 1216.51171875 1117.80761719 1216.51171875 1117.80761719 1202.17578125 1096.30371094 c 128,-1,73
 1187.83984375 1074.79980469 1187.83984375 1074.79980469 1169.40820312 1063.53613281 c 128,-1,74
 1150.97558594 1052.27246094 1150.97558594 1052.27246094 1136.63964844 1009.26367188 c 128,-1,75
 1122.30371094 966.255859375 1122.30371094 966.255859375 1122.30371094 890.48046875 c 0,76,77
 1122.30371094 837.232421875 1122.30371094 837.232421875 1132.54394531 718.448242188 c 1,78,79
 1265.6640625 855.6640625 1265.6640625 855.6640625 1265.6640625 941.6796875 c 1,80,-1
 1261.56835938 978.543945312 l 2,81,82
 1255.42382812 1015.40820312 1255.42382812 1015.40820312 1255.42382812 1021.55175781 c 0,83,84
 1255.42382812 1066.60839844 1255.42382812 1066.60839844 1289.21582031 1101.42382812 c 128,-1,85
 1323.0078125 1136.24023438 1323.0078125 1136.24023438 1368.06445312 1136.24023438 c 0,86,87
 1415.16796875 1136.24023438 1415.16796875 1136.24023438 1449.984375 1102.44824219 c 128,-1,88
 1484.79980469 1068.65625 1484.79980469 1068.65625 1484.79980469 1021.55175781 c 0,89,90
 1484.79980469 937.583984375 1484.79980469 937.583984375 1390.59179688 894.576171875 c 1,91,92
 1386.49609375 812.65625 1386.49609375 812.65625 1316.86425781 525.935546875 c 0,93,94
 1316.86425781 507.50390625 1316.86425781 507.50390625 1240.06445312 413.295898438 c 128,-1,95
 1163.26367188 319.087890625 1163.26367188 319.087890625 1163.26367188 290.416015625 c 0,96,97
 1163.26367188 271.984375 1163.26367188 271.984375 1191.93554688 212.591796875 c 128,-1,98
 1220.60839844 153.200195312 1220.60839844 153.200195312 1220.60839844 114.288085938 c 2,99,-1
 1220.60839844 81.51953125 l 2,100,101
 1220.60839844 34.416015625 1220.60839844 34.416015625 1072.12792969 17.0078125 c 128,-1,102
 923.6484375 -0.400390625 923.6484375 -0.400390625 774.143554688 -0.400390625 c 0,103,104
 608.255859375 -0.400390625 608.255859375 -0.400390625 468.9921875 19.0556640625 c 128,-1,105
 329.727539062 38.51171875 329.727539062 38.51171875 329.727539062 81.51953125 c 2,106,-1
 329.727539062 114.288085938 l 2,107,108
 329.727539062 157.295898438 329.727539062 157.295898438 357.375976562 216.688476562 c 128,-1,109
 385.024414062 276.080078125 385.024414062 276.080078125 385.024414062 290.416015625 c 0,110,111
 385.024414062 333.423828125 385.024414062 333.423828125 318.463867188 407.15234375 c 128,-1,112
 251.904296875 480.879882812 251.904296875 480.879882812 233.471679688 525.935546875 c 0,113,114
 163.83984375 808.559570312 163.83984375 808.559570312 159.744140625 894.576171875 c 1,115,116
 65.5361328125 937.583984375 65.5361328125 937.583984375 65.5361328125 1021.55175781 c 0,117,118
 65.5361328125 1068.65625 65.5361328125 1068.65625 100.3515625 1102.44824219 c 128,-1,119
 135.16796875 1136.24023438 135.16796875 1136.24023438 180.223632812 1136.24023438 c 0,120,121
 227.328125 1136.24023438 227.328125 1136.24023438 261.120117188 1102.44824219 c 128,-1,122
 294.912109375 1068.65625 294.912109375 1068.65625 294.912109375 1021.55175781 c 0,123,124
 294.912109375 1019.50390625 294.912109375 1019.50390625 289.791992188 982.639648438 c 128,-1,125
 284.671875 945.776367188 284.671875 945.776367188 284.671875 941.6796875 c 0,126,127
 284.671875 851.568359375 284.671875 851.568359375 415.744140625 718.448242188 c 1,128,129
 425.984375 808.559570312 425.984375 808.559570312 425.984375 890.48046875 c 0,130,131
 425.984375 964.208007812 425.984375 964.208007812 411.6484375 1008.24023438 c 128,-1,132
 397.311523438 1052.27246094 397.311523438 1052.27246094 378.879882812 1063.53613281 c 128,-1,133
 360.448242188 1074.79980469 360.448242188 1074.79980469 346.112304688 1097.328125 c 128,-1,134
 331.776367188 1119.85644531 331.776367188 1119.85644531 331.776367188 1154.671875 c 0,135,136
 331.776367188 1201.77636719 331.776367188 1201.77636719 366.591796875 1235.56835938 c 128,-1,137
 401.408203125 1269.36035156 401.408203125 1269.36035156 448.51171875 1269.36035156 c 128,-1,138
 495.616210938 1269.36035156 495.616210938 1269.36035156 529.408203125 1235.56835938 c 128,-1,139
 563.200195312 1201.77636719 563.200195312 1201.77636719 563.200195312 1154.671875 c 2,140,-1
 557.055664062 1115.75976562 l 2,141,142
 550.912109375 1076.84765625 550.912109375 1076.84765625 550.912109375 1066.60839844 c 0,143,144
 550.912109375 949.872070312 550.912109375 949.872070312 661.50390625 714.3515625 c 1,145,146
 704.51171875 900.719726562 704.51171875 900.719726562 704.51171875 1011.31152344 c 0,47,48
1368.06445312 1070.70410156 m 0,147,148
 1349.63183594 1070.70410156 1349.63183594 1070.70410156 1334.27246094 1056.36816406 c 128,-1,149
 1318.91210938 1042.03222656 1318.91210938 1042.03222656 1318.91210938 1021.55175781 c 0,150,151
 1318.91210938 999.024414062 1318.91210938 999.024414062 1333.24804688 983.6640625 c 128,-1,152
 1347.58398438 968.303710938 1347.58398438 968.303710938 1368.06445312 968.303710938 c 0,153,154
 1419.26367188 968.303710938 1419.26367188 968.303710938 1419.26367188 1021.55175781 c 0,155,156
 1419.26367188 1070.70410156 1419.26367188 1070.70410156 1368.06445312 1070.70410156 c 0,147,148
1099.77636719 1201.77636719 m 0,157,158
 1079.29589844 1201.77636719 1079.29589844 1201.77636719 1064.95996094 1186.41601562 c 128,-1,159
 1050.62402344 1171.05566406 1050.62402344 1171.05566406 1050.62402344 1150.57617188 c 128,-1,160
 1050.62402344 1130.09570312 1050.62402344 1130.09570312 1064.95996094 1114.73632812 c 128,-1,161
 1079.29589844 1099.37597656 1079.29589844 1099.37597656 1099.77636719 1099.37597656 c 0,162,163
 1153.02441406 1099.37597656 1153.02441406 1099.37597656 1153.02441406 1150.57617188 c 128,-1,164
 1153.02441406 1201.77636719 1153.02441406 1201.77636719 1099.77636719 1201.77636719 c 0,157,158
448.51171875 1201.77636719 m 0,165,166
 397.311523438 1201.77636719 397.311523438 1201.77636719 397.311523438 1150.57617188 c 128,-1,167
 397.311523438 1099.37597656 397.311523438 1099.37597656 448.51171875 1099.37597656 c 0,168,169
 497.6640625 1099.37597656 497.6640625 1099.37597656 497.6640625 1150.57617188 c 128,-1,170
 497.6640625 1201.77636719 497.6640625 1201.77636719 448.51171875 1201.77636719 c 0,165,166
180.223632812 1070.70410156 m 0,171,172
 129.024414062 1070.70410156 129.024414062 1070.70410156 129.024414062 1021.55175781 c 0,173,174
 129.024414062 968.303710938 129.024414062 968.303710938 180.223632812 968.303710938 c 0,175,176
 229.375976562 968.303710938 229.375976562 968.303710938 229.375976562 1021.55175781 c 0,177,178
 229.375976562 1042.03222656 229.375976562 1042.03222656 214.015625 1056.36816406 c 128,-1,179
 198.65625 1070.70410156 198.65625 1070.70410156 180.223632812 1070.70410156 c 0,171,172
776.192382812 939.631835938 m 1,180,181
 757.759765625 826.9921875 757.759765625 826.9921875 735.232421875 762.48046875 c 128,-1,182
 712.704101562 697.967773438 712.704101562 697.967773438 694.272460938 671.34375 c 128,-1,183
 675.83984375 644.719726562 675.83984375 644.719726562 671.744140625 628.3359375 c 1,184,185
 661.50390625 640.624023438 661.50390625 640.624023438 636.927734375 669.295898438 c 128,-1,186
 612.3515625 697.967773438 612.3515625 697.967773438 606.208007812 708.208007812 c 128,-1,187
 600.064453125 718.448242188 600.064453125 718.448242188 582.65625 744.047851562 c 128,-1,188
 565.248046875 769.6484375 565.248046875 769.6484375 555.0078125 794.223632812 c 128,-1,189
 544.767578125 818.799804688 544.767578125 818.799804688 528.383789062 859.759765625 c 128,-1,190
 512 900.719726562 512 900.719726562 493.568359375 953.967773438 c 1,191,192
 497.6640625 925.295898438 497.6640625 925.295898438 497.6640625 894.576171875 c 0,193,194
 497.6640625 798.3203125 497.6640625 798.3203125 462.84765625 597.616210938 c 1,195,196
 352.255859375 663.15234375 352.255859375 663.15234375 247.807617188 806.51171875 c 1,197,198
 296.959960938 562.799804688 296.959960938 562.799804688 323.583984375 534.127929688 c 0,199,200
 327.6796875 530.032226562 327.6796875 530.032226562 331.776367188 527.984375 c 0,201,202
 499.711914062 624.240234375 499.711914062 624.240234375 776.192382812 624.240234375 c 0,203,204
 1054.71972656 624.240234375 1054.71972656 624.240234375 1220.60839844 527.984375 c 1,205,206
 1257.47167969 540.272460938 1257.47167969 540.272460938 1302.52832031 806.51171875 c 1,207,208
 1196.03222656 659.055664062 1196.03222656 659.055664062 1089.53613281 597.616210938 c 1,209,210
 1054.71972656 775.791992188 1054.71972656 775.791992188 1054.71972656 878.192382812 c 0,211,212
 1054.71972656 904.81640625 1054.71972656 904.81640625 1058.81640625 953.967773438 c 1,213,214
 1028.09570312 859.759765625 1028.09570312 859.759765625 996.3515625 795.248046875 c 128,-1,215
 964.608398438 730.736328125 964.608398438 730.736328125 945.15234375 708.208007812 c 128,-1,216
 925.696289062 685.6796875 925.696289062 685.6796875 907.263671875 665.200195312 c 128,-1,217
 888.83203125 644.719726562 888.83203125 644.719726562 880.639648438 628.3359375 c 1,218,219
 870.400390625 646.767578125 870.400390625 646.767578125 856.064453125 670.3203125 c 128,-1,220
 841.727539062 693.872070312 841.727539062 693.872070312 837.631835938 704.112304688 c 128,-1,221
 833.536132812 714.3515625 833.536132812 714.3515625 823.295898438 744.047851562 c 128,-1,222
 813.055664062 773.744140625 813.055664062 773.744140625 802.81640625 817.776367188 c 128,-1,223
 792.576171875 861.807617188 792.576171875 861.807617188 776.192382812 939.631835938 c 1,180,181
EndSplineSet
Validated: 525313
EndChar

StartChar: uni2656
Encoding: 9814 9814 189
Width: 2048
LayerCount: 2
Fore
SplineSet
542.719726562 794.223632812 m 1,0,-1
 542.719726562 431.727539062 l 1,1,-1
 1009.6640625 431.727539062 l 1,2,-1
 1009.6640625 794.223632812 l 1,3,-1
 542.719726562 794.223632812 l 1,0,-1
301.055664062 -0.400390625 m 1,4,-1
 262.143554688 38.51171875 l 1,5,-1
 262.143554688 179.82421875 l 1,6,-1
 471.040039062 390.767578125 l 1,7,-1
 471.040039062 800.368164062 l 1,8,-1
 290.81640625 958.064453125 l 1,9,-1
 290.81640625 1144.43164062 l 1,10,-1
 350.208007812 1201.77636719 l 1,11,-1
 534.528320312 1201.77636719 l 1,12,-1
 569.34375 1166.95996094 l 1,13,-1
 569.34375 1113.71191406 l 1,14,-1
 628.736328125 1113.71191406 l 1,15,-1
 628.736328125 1166.95996094 l 1,16,-1
 663.551757812 1201.77636719 l 1,17,-1
 888.83203125 1201.77636719 l 1,18,-1
 923.6484375 1166.95996094 l 1,19,-1
 923.6484375 1113.71191406 l 1,20,-1
 980.9921875 1113.71191406 l 1,21,-1
 980.9921875 1166.95996094 l 1,22,-1
 1017.85644531 1201.77636719 l 1,23,-1
 1202.17578125 1201.77636719 l 1,24,-1
 1261.56835938 1144.43164062 l 1,25,-1
 1261.56835938 958.064453125 l 1,26,-1
 1081.34375 800.368164062 l 1,27,-1
 1081.34375 390.767578125 l 1,28,-1
 1290.24023438 179.82421875 l 1,29,-1
 1290.24023438 38.51171875 l 1,30,-1
 1251.328125 -0.400390625 l 1,31,-1
 301.055664062 -0.400390625 l 1,4,-1
333.82421875 161.391601562 m 1,32,-1
 333.82421875 81.51953125 l 1,33,-1
 1218.55957031 81.51953125 l 1,34,-1
 1218.55957031 161.391601562 l 1,35,-1
 333.82421875 161.391601562 l 1,32,-1
534.528320312 364.143554688 m 1,36,-1
 399.360351562 233.072265625 l 1,37,-1
 1153.02441406 233.072265625 l 1,38,-1
 1017.85644531 364.143554688 l 1,39,-1
 534.528320312 364.143554688 l 1,36,-1
698.368164062 1115.75976562 m 1,40,-1
 698.368164062 1062.51171875 l 1,41,-1
 667.6484375 1033.83984375 l 1,42,-1
 534.528320312 1033.83984375 l 1,43,-1
 503.807617188 1062.51171875 l 1,44,-1
 503.807617188 1119.85644531 l 1,45,-1
 389.120117188 1119.85644531 l 1,46,-1
 362.49609375 1091.18359375 l 1,47,-1
 362.49609375 976.49609375 l 1,48,-1
 501.759765625 863.856445312 l 1,49,-1
 1050.62402344 863.856445312 l 1,50,-1
 1189.88769531 976.49609375 l 1,51,-1
 1189.88769531 1091.18359375 l 1,52,-1
 1163.26367188 1119.85644531 l 1,53,-1
 1048.57617188 1119.85644531 l 1,54,-1
 1048.57617188 1062.51171875 l 1,55,-1
 1017.85644531 1033.83984375 l 1,56,-1
 884.736328125 1033.83984375 l 1,57,-1
 854.015625 1062.51171875 l 1,58,-1
 854.015625 1115.75976562 l 1,59,-1
 698.368164062 1115.75976562 l 1,40,-1
EndSplineSet
Validated: 524289
EndChar

StartChar: uni2657
Encoding: 9815 9815 190
Width: 2048
LayerCount: 2
Fore
SplineSet
776.192382812 554.608398438 m 0,0,1
 632.83203125 554.608398438 632.83203125 554.608398438 552.959960938 566.896484375 c 1,2,3
 567.295898438 538.223632812 567.295898438 538.223632812 567.295898438 517.744140625 c 0,4,5
 567.295898438 487.024414062 567.295898438 487.024414062 555.0078125 466.543945312 c 1,6,7
 614.400390625 484.975585938 614.400390625 484.975585938 776.192382812 484.975585938 c 128,-1,8
 937.984375 484.975585938 937.984375 484.975585938 997.375976562 466.543945312 c 1,9,10
 985.087890625 487.024414062 985.087890625 487.024414062 985.087890625 517.744140625 c 0,11,12
 985.087890625 542.3203125 985.087890625 542.3203125 997.375976562 566.896484375 c 1,13,14
 901.120117188 554.608398438 901.120117188 554.608398438 776.192382812 554.608398438 c 0,0,1
776.192382812 1295.984375 m 128,-1,16
 751.616210938 1295.984375 751.616210938 1295.984375 732.16015625 1277.55175781 c 128,-1,17
 712.704101562 1259.12011719 712.704101562 1259.12011719 712.704101562 1236.59179688 c 0,18,19
 712.704101562 1209.96777344 712.704101562 1209.96777344 731.135742188 1192.55957031 c 128,-1,20
 749.568359375 1175.15234375 749.568359375 1175.15234375 776.192382812 1175.15234375 c 128,-1,21
 802.81640625 1175.15234375 802.81640625 1175.15234375 821.248046875 1192.55957031 c 128,-1,22
 839.6796875 1209.96777344 839.6796875 1209.96777344 839.6796875 1236.59179688 c 0,23,24
 839.6796875 1261.16796875 839.6796875 1261.16796875 820.223632812 1278.57617188 c 128,-1,15
 800.767578125 1295.984375 800.767578125 1295.984375 776.192382812 1295.984375 c 128,-1,16
776.192382812 425.583984375 m 0,25,26
 675.83984375 425.583984375 675.83984375 425.583984375 621.568359375 418.416015625 c 128,-1,27
 567.295898438 411.248046875 567.295898438 411.248046875 550.912109375 401.0078125 c 128,-1,28
 534.528320312 390.767578125 534.528320312 390.767578125 534.528320312 372.3359375 c 128,-1,29
 534.528320312 353.904296875 534.528320312 353.904296875 571.391601562 348.784179688 c 128,-1,30
 608.255859375 343.6640625 608.255859375 343.6640625 690.17578125 343.6640625 c 2,31,-1
 731.135742188 343.6640625 l 1,32,-1
 776.192382812 343.6640625 l 2,33,34
 1015.80761719 343.6640625 1015.80761719 343.6640625 1015.80761719 372.3359375 c 0,35,36
 1015.80761719 405.103515625 1015.80761719 405.103515625 968.704101562 415.34375 c 128,-1,37
 921.599609375 425.583984375 921.599609375 425.583984375 776.192382812 425.583984375 c 0,25,26
772.095703125 1095.28027344 m 1,38,39
 681.984375 1085.04003906 681.984375 1085.04003906 568.3203125 988.784179688 c 128,-1,40
 454.65625 892.528320312 454.65625 892.528320312 446.463867188 798.3203125 c 1,41,42
 458.751953125 714.3515625 458.751953125 714.3515625 474.112304688 683.631835938 c 128,-1,43
 489.471679688 652.912109375 489.471679688 652.912109375 557.055664062 633.456054688 c 128,-1,44
 624.639648438 614 624.639648438 614 774.143554688 614 c 0,45,46
 866.303710938 614 866.303710938 614 925.696289062 621.16796875 c 128,-1,47
 985.087890625 628.3359375 985.087890625 628.3359375 1018.87988281 638.576171875 c 128,-1,48
 1052.671875 648.81640625 1052.671875 648.81640625 1070.08007812 676.463867188 c 128,-1,49
 1087.48828125 704.112304688 1087.48828125 704.112304688 1093.63183594 725.616210938 c 128,-1,50
 1099.77636719 747.120117188 1099.77636719 747.120117188 1105.91992188 798.3203125 c 1,51,52
 1097.72753906 892.528320312 1097.72753906 892.528320312 982.015625 988.784179688 c 128,-1,53
 866.303710938 1085.04003906 866.303710938 1085.04003906 772.095703125 1095.28027344 c 1,38,39
739.328125 714.3515625 m 1,54,-1
 739.328125 804.463867188 l 1,55,-1
 669.696289062 804.463867188 l 1,56,-1
 669.696289062 884.3359375 l 1,57,-1
 739.328125 884.3359375 l 1,58,-1
 739.328125 972.400390625 l 1,59,-1
 813.055664062 972.400390625 l 1,60,-1
 813.055664062 884.3359375 l 1,61,-1
 882.688476562 884.3359375 l 1,62,-1
 882.688476562 804.463867188 l 1,63,-1
 813.055664062 804.463867188 l 1,64,-1
 813.055664062 714.3515625 l 1,65,-1
 739.328125 714.3515625 l 1,54,-1
776.192382812 222.83203125 m 1,66,67
 813.055664062 153.200195312 813.055664062 153.200195312 927.744140625 120.431640625 c 128,-1,68
 1042.43164062 87.6640625 1042.43164062 87.6640625 1169.40820312 83.568359375 c 0,69,70
 1175.55175781 83.568359375 1175.55175781 83.568359375 1226.75195312 75.3759765625 c 128,-1,71
 1277.95214844 67.18359375 1277.95214844 67.18359375 1280 67.18359375 c 0,72,73
 1323.0078125 67.18359375 1323.0078125 67.18359375 1323.0078125 108.143554688 c 0,74,75
 1323.0078125 136.81640625 1323.0078125 136.81640625 1281.02441406 151.15234375 c 128,-1,76
 1239.04003906 165.48828125 1239.04003906 165.48828125 1107.96777344 173.6796875 c 0,77,78
 1017.85644531 179.82421875 1017.85644531 179.82421875 952.3203125 200.303710938 c 128,-1,79
 886.784179688 220.784179688 886.784179688 220.784179688 861.18359375 242.288085938 c 128,-1,80
 835.583984375 263.791992188 835.583984375 263.791992188 813.055664062 280.17578125 c 128,-1,81
 790.528320312 296.559570312 790.528320312 296.559570312 772.095703125 296.559570312 c 128,-1,82
 753.6640625 296.559570312 753.6640625 296.559570312 732.16015625 279.15234375 c 128,-1,83
 710.65625 261.744140625 710.65625 261.744140625 687.103515625 240.240234375 c 128,-1,84
 663.551757812 218.736328125 663.551757812 218.736328125 603.135742188 198.255859375 c 128,-1,85
 542.719726562 177.776367188 542.719726562 177.776367188 458.751953125 173.6796875 c 0,86,87
 366.591796875 173.6796875 366.591796875 173.6796875 314.368164062 164.463867188 c 128,-1,88
 262.143554688 155.248046875 262.143554688 155.248046875 245.759765625 141.935546875 c 128,-1,89
 229.375976562 128.624023438 229.375976562 128.624023438 229.375976562 108.143554688 c 0,90,91
 235.51953125 67.18359375 235.51953125 67.18359375 272.383789062 67.18359375 c 0,92,93
 274.431640625 67.18359375 274.431640625 67.18359375 324.608398438 75.3759765625 c 128,-1,94
 374.784179688 83.568359375 374.784179688 83.568359375 380.927734375 83.568359375 c 0,95,96
 514.047851562 83.568359375 514.047851562 83.568359375 626.688476562 117.360351562 c 128,-1,97
 739.328125 151.15234375 739.328125 151.15234375 776.192382812 222.83203125 c 1,66,67
1056.76757812 527.984375 m 1,98,99
 1056.76757812 505.456054688 1056.76757812 505.456054688 1077.24804688 444.015625 c 128,-1,100
 1097.72753906 382.576171875 1097.72753906 382.576171875 1097.72753906 368.240234375 c 0,101,102
 1097.72753906 298.608398438 1097.72753906 298.608398438 952.3203125 280.17578125 c 1,103,104
 1062.91210938 241.263671875 1062.91210938 241.263671875 1148.92773438 241.263671875 c 0,105,106
 1155.07226562 241.263671875 1155.07226562 241.263671875 1208.3203125 244.3359375 c 128,-1,107
 1261.56835938 247.408203125 1261.56835938 247.408203125 1269.75976562 247.408203125 c 0,108,109
 1370.11230469 247.408203125 1370.11230469 247.408203125 1437.69628906 118.383789062 c 1,110,111
 1431.55175781 110.192382812 1431.55175781 110.192382812 1409.02441406 73.328125 c 128,-1,112
 1386.49609375 36.4638671875 1386.49609375 36.4638671875 1375.23242188 21.103515625 c 128,-1,113
 1363.96777344 5.744140625 1363.96777344 5.744140625 1341.44042969 -15.759765625 c 128,-1,114
 1318.91210938 -37.263671875 1318.91210938 -37.263671875 1296.38378906 -47.50390625 c 1,115,116
 1288.19238281 -10.6396484375 1288.19238281 -10.6396484375 1190.91210938 0.6240234375 c 128,-1,117
 1093.63183594 11.8876953125 1093.63183594 11.8876953125 965.631835938 34.416015625 c 128,-1,118
 837.631835938 56.9443359375 837.631835938 56.9443359375 776.192382812 118.383789062 c 1,119,120
 724.9921875 67.18359375 724.9921875 67.18359375 633.856445312 40.5595703125 c 128,-1,121
 542.719726562 13.935546875 542.719726562 13.935546875 464.896484375 10.8642578125 c 128,-1,122
 387.072265625 7.7919921875 387.072265625 7.7919921875 324.608398438 -5.51953125 c 128,-1,123
 262.143554688 -18.83203125 262.143554688 -18.83203125 256 -47.50390625 c 1,124,125
 233.471679688 -41.3603515625 233.471679688 -41.3603515625 208.896484375 -13.7119140625 c 128,-1,126
 184.3203125 13.935546875 184.3203125 13.935546875 151.551757812 63.087890625 c 2,127,-1
 114.688476562 118.383789062 l 1,128,129
 182.272460938 247.408203125 182.272460938 247.408203125 282.624023438 247.408203125 c 0,130,131
 284.671875 247.408203125 284.671875 247.408203125 340.9921875 244.3359375 c 128,-1,132
 397.311523438 241.263671875 397.311523438 241.263671875 403.456054688 241.263671875 c 0,133,134
 487.423828125 241.263671875 487.423828125 241.263671875 600.064453125 280.17578125 c 1,135,136
 454.65625 298.608398438 454.65625 298.608398438 454.65625 368.240234375 c 0,137,138
 454.65625 380.528320312 454.65625 380.528320312 475.135742188 445.040039062 c 128,-1,139
 495.616210938 509.551757812 495.616210938 509.551757812 495.616210938 525.935546875 c 0,140,141
 495.616210938 532.080078125 495.616210938 532.080078125 464.896484375 564.84765625 c 128,-1,142
 434.17578125 597.616210938 434.17578125 597.616210938 403.456054688 654.959960938 c 128,-1,143
 372.736328125 712.303710938 372.736328125 712.303710938 372.736328125 781.935546875 c 0,144,145
 372.736328125 910.959960938 372.736328125 910.959960938 490.49609375 1018.48046875 c 128,-1,146
 608.255859375 1126 608.255859375 1126 677.887695312 1132.14355469 c 1,147,148
 632.83203125 1187.44042969 632.83203125 1187.44042969 632.83203125 1246.83203125 c 128,-1,149
 632.83203125 1306.22363281 632.83203125 1306.22363281 672.767578125 1338.9921875 c 128,-1,150
 712.704101562 1371.75976562 712.704101562 1371.75976562 776.192382812 1371.75976562 c 0,151,152
 837.631835938 1371.75976562 837.631835938 1371.75976562 877.568359375 1337.96777344 c 128,-1,153
 917.50390625 1304.17578125 917.50390625 1304.17578125 917.50390625 1246.83203125 c 0,154,155
 917.50390625 1183.34375 917.50390625 1183.34375 874.49609375 1132.14355469 c 1,156,157
 940.032226562 1123.95214844 940.032226562 1123.95214844 1059.83984375 1017.45605469 c 128,-1,158
 1179.6484375 910.959960938 1179.6484375 910.959960938 1179.6484375 781.935546875 c 0,159,160
 1179.6484375 667.248046875 1179.6484375 667.248046875 1056.76757812 527.984375 c 1,98,99
EndSplineSet
Validated: 525313
EndChar

StartChar: uni2658
Encoding: 9816 9816 191
Width: 2048
LayerCount: 2
Fore
SplineSet
311.295898438 482.927734375 m 0,0,1
 339.967773438 482.927734375 339.967773438 482.927734375 339.967773438 444.015625 c 0,2,3
 339.967773438 392.81640625 339.967773438 392.81640625 288.767578125 392.81640625 c 0,4,5
 268.288085938 392.81640625 268.288085938 392.81640625 268.288085938 425.583984375 c 0,6,7
 268.288085938 482.927734375 268.288085938 482.927734375 311.295898438 482.927734375 c 0,0,1
458.751953125 732.784179688 m 0,8,9
 430.080078125 732.784179688 430.080078125 732.784179688 430.080078125 767.599609375 c 0,10,11
 430.080078125 806.51171875 430.080078125 806.51171875 468.9921875 839.280273438 c 128,-1,12
 507.904296875 872.047851562 507.904296875 872.047851562 548.864257812 872.047851562 c 0,13,14
 595.967773438 872.047851562 595.967773438 872.047851562 595.967773438 843.375976562 c 0,15,16
 595.967773438 806.51171875 595.967773438 806.51171875 546.81640625 769.6484375 c 128,-1,17
 497.6640625 732.784179688 497.6640625 732.784179688 458.751953125 732.784179688 c 0,8,9
475.135742188 1117.80761719 m 1,18,19
 483.328125 1089.13574219 483.328125 1089.13574219 483.328125 1078.89648438 c 0,20,21
 483.328125 1072.75195312 483.328125 1072.75195312 477.18359375 1046.12792969 c 1,22,23
 489.471679688 1046.12792969 489.471679688 1046.12792969 521.215820312 1057.39160156 c 128,-1,24
 552.959960938 1068.65625 552.959960938 1068.65625 567.295898438 1078.89648438 c 1,25,26
 512 1107.56835938 512 1107.56835938 475.135742188 1117.80761719 c 1,18,19
833.536132812 556.65625 m 0,27,28
 833.536132812 466.543945312 833.536132812 466.543945312 784.383789062 373.360351562 c 128,-1,29
 735.232421875 280.17578125 735.232421875 280.17578125 680.959960938 200.303710938 c 128,-1,30
 626.688476562 120.431640625 626.688476562 120.431640625 620.543945312 75.3759765625 c 1,31,-1
 1296.38378906 75.3759765625 l 1,32,33
 1304.57617188 169.583984375 1304.57617188 169.583984375 1304.57617188 214.639648438 c 0,34,35
 1304.57617188 392.81640625 1304.57617188 392.81640625 1254.40039062 544.368164062 c 128,-1,36
 1204.22363281 695.919921875 1204.22363281 695.919921875 1135.61621094 781.935546875 c 128,-1,37
 1067.0078125 867.952148438 1067.0078125 867.952148438 1006.59179688 915.055664062 c 128,-1,38
 946.17578125 962.16015625 946.17578125 962.16015625 911.360351562 962.16015625 c 2,39,-1
 788.48046875 962.16015625 l 1,40,41
 772.095703125 970.3515625 772.095703125 970.3515625 758.784179688 1035.88769531 c 128,-1,42
 745.471679688 1101.42382812 745.471679688 1101.42382812 724.9921875 1117.80761719 c 1,43,44
 708.608398438 1064.55957031 708.608398438 1064.55957031 668.671875 1042.03222656 c 128,-1,45
 628.736328125 1019.50390625 628.736328125 1019.50390625 570.368164062 1003.12011719 c 128,-1,46
 512 986.736328125 512 986.736328125 479.232421875 962.16015625 c 1,47,48
 454.65625 878.192382812 454.65625 878.192382812 347.135742188 673.391601562 c 128,-1,49
 239.616210938 468.591796875 239.616210938 468.591796875 231.423828125 413.295898438 c 1,50,51
 239.616210938 382.576171875 239.616210938 382.576171875 270.3359375 358 c 128,-1,52
 301.055664062 333.423828125 301.055664062 333.423828125 335.872070312 333.423828125 c 0,53,54
 350.208007812 333.423828125 350.208007812 333.423828125 372.736328125 349.807617188 c 128,-1,55
 395.263671875 366.192382812 395.263671875 366.192382812 413.696289062 366.192382812 c 0,56,57
 423.935546875 366.192382812 423.935546875 366.192382812 423.935546875 353.904296875 c 2,58,-1
 417.791992188 335.471679688 l 2,59,60
 411.6484375 317.040039062 411.6484375 317.040039062 411.6484375 314.9921875 c 0,61,62
 411.6484375 296.559570312 411.6484375 296.559570312 440.3203125 296.559570312 c 0,63,64
 444.416015625 296.559570312 444.416015625 296.559570312 491.51953125 368.240234375 c 0,65,66
 581.631835938 507.50390625 581.631835938 507.50390625 747.51953125 579.18359375 c 1,67,68
 759.807617188 661.103515625 759.807617188 661.103515625 799.744140625 728.688476562 c 128,-1,69
 839.6796875 796.272460938 839.6796875 796.272460938 862.208007812 796.272460938 c 0,70,71
 880.639648438 796.272460938 880.639648438 796.272460938 880.639648438 769.6484375 c 0,72,73
 880.639648438 755.311523438 880.639648438 755.311523438 855.040039062 682.608398438 c 128,-1,74
 829.440429688 609.904296875 829.440429688 609.904296875 829.440429688 583.280273438 c 0,75,76
 829.440429688 577.135742188 829.440429688 577.135742188 833.536132812 556.65625 c 0,27,28
876.543945312 1048.17578125 m 0,77,78
 919.551757812 1048.17578125 919.551757812 1048.17578125 976.896484375 1025.6484375 c 128,-1,79
 1034.24023438 1003.12011719 1034.24023438 1003.12011719 1107.96777344 940.65625 c 128,-1,80
 1181.69628906 878.192382812 1181.69628906 878.192382812 1242.11230469 785.0078125 c 128,-1,81
 1302.52832031 691.82421875 1302.52832031 691.82421875 1344.51171875 531.055664062 c 128,-1,82
 1386.49609375 370.288085938 1386.49609375 370.288085938 1386.49609375 171.631835938 c 0,83,84
 1386.49609375 75.3759765625 1386.49609375 75.3759765625 1378.30371094 -0.400390625 c 1,85,-1
 520.192382812 -0.400390625 l 1,86,87
 526.3359375 93.8076171875 526.3359375 93.8076171875 560.127929688 167.536132812 c 128,-1,88
 593.919921875 241.263671875 593.919921875 241.263671875 632.83203125 280.17578125 c 128,-1,89
 671.744140625 319.087890625 671.744140625 319.087890625 707.583984375 377.456054688 c 128,-1,90
 743.423828125 435.82421875 743.423828125 435.82421875 751.616210938 503.408203125 c 1,91,92
 671.744140625 468.591796875 671.744140625 468.591796875 615.423828125 418.416015625 c 128,-1,93
 559.103515625 368.240234375 559.103515625 368.240234375 536.576171875 327.280273438 c 128,-1,94
 514.047851562 286.3203125 514.047851562 286.3203125 492.543945312 256.624023438 c 128,-1,95
 471.040039062 226.927734375 471.040039062 226.927734375 450.559570312 226.927734375 c 0,96,97
 415.744140625 226.927734375 415.744140625 226.927734375 389.120117188 243.311523438 c 128,-1,98
 362.49609375 259.696289062 362.49609375 259.696289062 360.448242188 284.272460938 c 1,99,100
 339.967773438 274.032226562 339.967773438 274.032226562 319.48828125 274.032226562 c 0,101,102
 221.18359375 274.032226562 221.18359375 274.032226562 163.83984375 396.912109375 c 1,103,104
 176.127929688 474.736328125 176.127929688 474.736328125 299.0078125 733.807617188 c 128,-1,105
 421.887695312 992.879882812 421.887695312 992.879882812 421.887695312 1068.65625 c 0,106,107
 421.887695312 1078.89648438 421.887695312 1078.89648438 409.599609375 1183.34375 c 1,108,109
 536.576171875 1183.34375 536.576171875 1183.34375 636.927734375 1113.71191406 c 1,110,111
 692.223632812 1209.96777344 692.223632812 1209.96777344 729.087890625 1209.96777344 c 1,112,113
 778.240234375 1183.34375 778.240234375 1183.34375 799.744140625 1150.57617188 c 128,-1,114
 821.248046875 1117.80761719 821.248046875 1117.80761719 841.727539062 1044.08007812 c 1,115,116
 862.208007812 1048.17578125 862.208007812 1048.17578125 876.543945312 1048.17578125 c 0,77,78
EndSplineSet
Validated: 524289
EndChar

StartChar: uni2659
Encoding: 9817 9817 192
Width: 2048
LayerCount: 2
Fore
SplineSet
700.416015625 558.704101562 m 0,0,1
 700.416015625 534.127929688 700.416015625 534.127929688 670.719726562 511.599609375 c 128,-1,2
 641.024414062 489.072265625 641.024414062 489.072265625 598.015625 461.423828125 c 128,-1,3
 555.0078125 433.776367188 555.0078125 433.776367188 512 392.81640625 c 128,-1,4
 468.9921875 351.856445312 468.9921875 351.856445312 439.295898438 271.984375 c 128,-1,5
 409.599609375 192.112304688 409.599609375 192.112304688 409.599609375 81.51953125 c 1,6,-1
 1140.73632812 81.51953125 l 1,7,8
 1140.73632812 173.6796875 1140.73632812 173.6796875 1119.23242188 246.383789062 c 128,-1,9
 1097.72753906 319.087890625 1097.72753906 319.087890625 1064.95996094 359.024414062 c 128,-1,10
 1032.19238281 398.959960938 1032.19238281 398.959960938 994.303710938 430.704101562 c 128,-1,11
 956.416015625 462.448242188 956.416015625 462.448242188 923.6484375 478.83203125 c 128,-1,12
 890.879882812 495.215820312 890.879882812 495.215820312 869.375976562 515.696289062 c 128,-1,13
 847.872070312 536.17578125 847.872070312 536.17578125 847.872070312 558.704101562 c 0,14,15
 847.872070312 579.18359375 847.872070312 579.18359375 866.303710938 592.49609375 c 128,-1,16
 884.736328125 605.807617188 884.736328125 605.807617188 908.288085938 615.024414062 c 128,-1,17
 931.83984375 624.240234375 931.83984375 624.240234375 950.272460938 653.935546875 c 128,-1,18
 968.704101562 683.631835938 968.704101562 683.631835938 968.704101562 730.736328125 c 128,-1,19
 968.704101562 777.83984375 968.704101562 777.83984375 946.17578125 812.65625 c 128,-1,20
 923.6484375 847.471679688 923.6484375 847.471679688 897.024414062 862.83203125 c 128,-1,21
 870.400390625 878.192382812 870.400390625 878.192382812 847.872070312 895.599609375 c 128,-1,22
 825.34375 913.0078125 825.34375 913.0078125 825.34375 927.34375 c 0,23,24
 825.34375 958.064453125 825.34375 958.064453125 845.82421875 991.856445312 c 128,-1,25
 866.303710938 1025.6484375 866.303710938 1025.6484375 866.303710938 1046.12792969 c 0,26,27
 866.303710938 1082.9921875 866.303710938 1082.9921875 837.631835938 1108.59179688 c 128,-1,28
 808.959960938 1134.19238281 808.959960938 1134.19238281 772.095703125 1134.19238281 c 0,29,30
 737.280273438 1134.19238281 737.280273438 1134.19238281 709.631835938 1108.59179688 c 128,-1,31
 681.984375 1082.9921875 681.984375 1082.9921875 681.984375 1050.22363281 c 0,32,33
 681.984375 1029.74414062 681.984375 1029.74414062 702.463867188 993.904296875 c 128,-1,34
 722.944335938 958.064453125 722.944335938 958.064453125 722.944335938 927.34375 c 0,35,36
 722.944335938 913.0078125 722.944335938 913.0078125 700.416015625 895.599609375 c 128,-1,37
 677.887695312 878.192382812 677.887695312 878.192382812 652.288085938 861.807617188 c 128,-1,38
 626.688476562 845.423828125 626.688476562 845.423828125 604.16015625 810.608398438 c 128,-1,39
 581.631835938 775.791992188 581.631835938 775.791992188 581.631835938 730.736328125 c 0,40,41
 581.631835938 683.631835938 581.631835938 683.631835938 611.328125 648.81640625 c 128,-1,42
 641.024414062 614 641.024414062 614 670.719726562 593.51953125 c 128,-1,43
 700.416015625 573.040039062 700.416015625 573.040039062 700.416015625 558.704101562 c 0,0,1
337.919921875 -0.400390625 m 1,44,45
 335.872070312 24.17578125 335.872070312 24.17578125 335.872070312 93.8076171875 c 0,46,47
 335.872070312 271.984375 335.872070312 271.984375 401.408203125 375.408203125 c 128,-1,48
 466.944335938 478.83203125 466.944335938 478.83203125 608.255859375 550.51171875 c 1,49,50
 559.103515625 566.896484375 559.103515625 566.896484375 526.3359375 618.095703125 c 128,-1,51
 493.568359375 669.295898438 493.568359375 669.295898438 493.568359375 732.784179688 c 0,52,53
 493.568359375 870 493.568359375 870 632.83203125 929.391601562 c 1,54,55
 600.064453125 988.784179688 600.064453125 988.784179688 600.064453125 1046.12792969 c 0,56,57
 600.064453125 1115.75976562 600.064453125 1115.75976562 652.288085938 1159.79199219 c 128,-1,58
 704.51171875 1203.82421875 704.51171875 1203.82421875 776.192382812 1203.82421875 c 128,-1,59
 847.872070312 1203.82421875 847.872070312 1203.82421875 900.095703125 1158.76757812 c 128,-1,60
 952.3203125 1113.71191406 952.3203125 1113.71191406 952.3203125 1046.12792969 c 0,61,62
 952.3203125 990.83203125 952.3203125 990.83203125 915.456054688 929.391601562 c 1,63,64
 1056.76757812 872.047851562 1056.76757812 872.047851562 1056.76757812 732.784179688 c 0,65,66
 1056.76757812 667.248046875 1056.76757812 667.248046875 1022.97558594 617.072265625 c 128,-1,67
 989.18359375 566.896484375 989.18359375 566.896484375 940.032226562 550.51171875 c 1,68,69
 1081.34375 476.784179688 1081.34375 476.784179688 1147.90429688 374.383789062 c 128,-1,70
 1214.46386719 271.984375 1214.46386719 271.984375 1214.46386719 93.8076171875 c 0,71,72
 1214.46386719 26.2236328125 1214.46386719 26.2236328125 1212.41601562 -0.400390625 c 1,73,-1
 337.919921875 -0.400390625 l 1,44,45
EndSplineSet
Validated: 524289
EndChar

StartChar: uni265A
Encoding: 9818 9818 193
Width: 2048
LayerCount: 2
Fore
SplineSet
1134.59179688 878.192382812 m 0,0,1
 1105.91992188 878.192382812 1105.91992188 878.192382812 1059.83984375 858.736328125 c 128,-1,2
 1013.75976562 839.280273438 1013.75976562 839.280273438 959.48828125 799.34375 c 128,-1,3
 905.215820312 759.408203125 905.215820312 759.408203125 866.303710938 683.631835938 c 128,-1,4
 827.391601562 607.856445312 827.391601562 607.856445312 827.391601562 511.599609375 c 0,5,6
 827.391601562 474.736328125 827.391601562 474.736328125 774.143554688 474.736328125 c 0,7,8
 718.84765625 474.736328125 718.84765625 474.736328125 718.84765625 511.599609375 c 0,9,10
 718.84765625 611.952148438 718.84765625 611.952148438 680.959960938 689.776367188 c 128,-1,11
 643.072265625 767.599609375 643.072265625 767.599609375 587.776367188 805.48828125 c 128,-1,12
 532.48046875 843.375976562 532.48046875 843.375976562 487.423828125 860.784179688 c 128,-1,13
 442.368164062 878.192382812 442.368164062 878.192382812 411.6484375 878.192382812 c 0,14,15
 327.6796875 878.192382812 327.6796875 878.192382812 278.528320312 833.135742188 c 128,-1,16
 229.375976562 788.080078125 229.375976562 788.080078125 229.375976562 708.208007812 c 0,17,18
 229.375976562 679.536132812 229.375976562 679.536132812 260.095703125 609.904296875 c 128,-1,19
 290.81640625 540.272460938 290.81640625 540.272460938 360.448242188 468.591796875 c 128,-1,20
 430.080078125 396.912109375 430.080078125 396.912109375 514.047851562 396.912109375 c 0,21,22
 593.919921875 396.912109375 593.919921875 396.912109375 772.095703125 427.631835938 c 1,23,24
 954.368164062 396.912109375 954.368164062 396.912109375 1032.19238281 396.912109375 c 0,25,26
 1095.6796875 396.912109375 1095.6796875 396.912109375 1154.04785156 438.896484375 c 128,-1,27
 1212.41601562 480.879882812 1212.41601562 480.879882812 1245.18359375 537.200195312 c 128,-1,28
 1277.95214844 593.51953125 1277.95214844 593.51953125 1297.40820312 641.6484375 c 128,-1,29
 1316.86425781 689.776367188 1316.86425781 689.776367188 1316.86425781 708.208007812 c 0,30,31
 1316.86425781 788.080078125 1316.86425781 788.080078125 1267.71191406 833.135742188 c 128,-1,32
 1218.55957031 878.192382812 1218.55957031 878.192382812 1134.59179688 878.192382812 c 0,0,1
876.543945312 503.408203125 m 0,33,34
 878.591796875 577.135742188 878.591796875 577.135742188 900.095703125 636.528320312 c 128,-1,35
 921.599609375 695.919921875 921.599609375 695.919921875 951.295898438 730.736328125 c 128,-1,36
 980.9921875 765.551757812 980.9921875 765.551757812 1017.85644531 788.080078125 c 128,-1,37
 1054.71972656 810.608398438 1054.71972656 810.608398438 1082.36816406 818.799804688 c 128,-1,38
 1110.015625 826.9921875 1110.015625 826.9921875 1130.49609375 826.9921875 c 0,39,40
 1191.93554688 826.9921875 1191.93554688 826.9921875 1231.87207031 795.248046875 c 128,-1,41
 1271.80761719 763.50390625 1271.80761719 763.50390625 1271.80761719 708.208007812 c 0,42,43
 1271.80761719 691.82421875 1271.80761719 691.82421875 1256.44824219 652.912109375 c 128,-1,44
 1241.08789062 614 1241.08789062 614 1211.39160156 567.919921875 c 128,-1,45
 1181.69628906 521.83984375 1181.69628906 521.83984375 1126.40039062 487.024414062 c 128,-1,46
 1071.10351562 452.208007812 1071.10351562 452.208007812 1003.51953125 452.208007812 c 0,47,48
 876.543945312 452.208007812 876.543945312 452.208007812 876.543945312 503.408203125 c 0,33,34
1077.24804688 188.015625 m 0,49,50
 1077.24804688 241.263671875 1077.24804688 241.263671875 776.192382812 241.263671875 c 0,51,52
 641.024414062 241.263671875 641.024414062 241.263671875 556.032226562 226.927734375 c 128,-1,53
 471.040039062 212.591796875 471.040039062 212.591796875 471.040039062 190.064453125 c 0,54,55
 471.040039062 159.34375 471.040039062 159.34375 526.3359375 159.34375 c 0,56,57
 532.48046875 159.34375 532.48046875 159.34375 647.16796875 169.583984375 c 128,-1,58
 761.856445312 179.82421875 761.856445312 179.82421875 774.143554688 179.82421875 c 0,59,60
 780.288085938 179.82421875 780.288085938 179.82421875 893.952148438 169.583984375 c 128,-1,61
 1007.61621094 159.34375 1007.61621094 159.34375 1019.90429688 159.34375 c 0,62,63
 1077.24804688 159.34375 1077.24804688 159.34375 1077.24804688 188.015625 c 0,49,50
610.303710938 872.047851562 m 1,64,65
 610.303710938 960.112304688 610.303710938 960.112304688 628.736328125 1001.07226562 c 128,-1,66
 647.16796875 1042.03222656 647.16796875 1042.03222656 724.9921875 1095.28027344 c 1,67,-1
 724.9921875 1142.38378906 l 1,68,-1
 641.024414062 1193.58398438 l 1,69,-1
 641.024414062 1267.31152344 l 1,70,-1
 716.799804688 1267.31152344 l 1,71,-1
 741.375976562 1343.08789062 l 1,72,-1
 811.0078125 1343.08789062 l 1,73,-1
 837.631835938 1267.31152344 l 1,74,-1
 911.360351562 1267.31152344 l 1,75,-1
 911.360351562 1193.58398438 l 1,76,-1
 829.440429688 1142.38378906 l 1,77,-1
 829.440429688 1095.28027344 l 1,78,79
 901.120117188 1048.17578125 901.120117188 1048.17578125 921.599609375 1006.19238281 c 128,-1,80
 942.080078125 964.208007812 942.080078125 964.208007812 942.080078125 872.047851562 c 1,81,82
 1038.3359375 949.872070312 1038.3359375 949.872070312 1140.73632812 949.872070312 c 0,83,84
 1247.23242188 949.872070312 1247.23242188 949.872070312 1321.984375 880.240234375 c 128,-1,85
 1396.73632812 810.608398438 1396.73632812 810.608398438 1396.73632812 706.16015625 c 0,86,87
 1396.73632812 622.192382812 1396.73632812 622.192382812 1316.86425781 511.599609375 c 0,88,89
 1267.71191406 444.015625 1267.71191406 444.015625 1250.30371094 414.3203125 c 128,-1,90
 1232.89648438 384.624023438 1232.89648438 384.624023438 1213.44042969 311.919921875 c 128,-1,91
 1193.984375 239.215820312 1193.984375 239.215820312 1191.93554688 138.864257812 c 0,92,93
 1187.83984375 -0.400390625 1187.83984375 -0.400390625 774.143554688 -0.400390625 c 0,94,95
 364.543945312 -0.400390625 364.543945312 -0.400390625 358.400390625 138.864257812 c 0,96,97
 356.3515625 243.311523438 356.3515625 243.311523438 332.799804688 324.208007812 c 128,-1,98
 309.248046875 405.103515625 309.248046875 405.103515625 290.81640625 433.776367188 c 128,-1,99
 272.383789062 462.448242188 272.383789062 462.448242188 233.471679688 513.6484375 c 0,100,101
 153.599609375 622.192382812 153.599609375 622.192382812 153.599609375 706.16015625 c 0,102,103
 153.599609375 808.559570312 153.599609375 808.559570312 228.3515625 879.215820312 c 128,-1,104
 303.103515625 949.872070312 303.103515625 949.872070312 407.551757812 949.872070312 c 0,105,106
 514.047851562 949.872070312 514.047851562 949.872070312 610.303710938 872.047851562 c 1,64,65
413.696289062 826.9921875 m 0,107,108
 440.3203125 826.9921875 440.3203125 826.9921875 478.208007812 811.631835938 c 128,-1,109
 516.095703125 796.272460938 516.095703125 796.272460938 562.17578125 762.48046875 c 128,-1,110
 608.255859375 728.688476562 608.255859375 728.688476562 638.975585938 660.080078125 c 128,-1,111
 669.696289062 591.471679688 669.696289062 591.471679688 669.696289062 501.360351562 c 0,112,113
 669.696289062 452.208007812 669.696289062 452.208007812 544.767578125 452.208007812 c 0,114,115
 475.135742188 452.208007812 475.135742188 452.208007812 418.81640625 487.024414062 c 128,-1,116
 362.49609375 521.83984375 362.49609375 521.83984375 333.82421875 569.967773438 c 128,-1,117
 305.15234375 618.095703125 305.15234375 618.095703125 290.81640625 654.959960938 c 128,-1,118
 276.48046875 691.82421875 276.48046875 691.82421875 276.48046875 708.208007812 c 0,119,120
 276.48046875 763.50390625 276.48046875 763.50390625 316.416015625 795.248046875 c 128,-1,121
 356.3515625 826.9921875 356.3515625 826.9921875 413.696289062 826.9921875 c 0,107,108
EndSplineSet
Validated: 524289
EndChar

StartChar: uni265B
Encoding: 9819 9819 194
Width: 2048
LayerCount: 2
Fore
SplineSet
778.240234375 278.127929688 m 0,0,1
 649.215820312 278.127929688 649.215820312 278.127929688 543.744140625 259.696289062 c 128,-1,2
 438.272460938 241.263671875 438.272460938 241.263671875 438.272460938 212.591796875 c 0,3,4
 438.272460938 179.82421875 438.272460938 179.82421875 485.375976562 179.82421875 c 0,5,6
 493.568359375 179.82421875 493.568359375 179.82421875 611.328125 188.015625 c 128,-1,7
 729.087890625 196.208007812 729.087890625 196.208007812 780.288085938 196.208007812 c 0,8,9
 833.536132812 196.208007812 833.536132812 196.208007812 948.223632812 188.015625 c 128,-1,10
 1062.91210938 179.82421875 1062.91210938 179.82421875 1069.05566406 179.82421875 c 0,11,12
 1116.16015625 179.82421875 1116.16015625 179.82421875 1116.16015625 212.591796875 c 0,13,14
 1116.16015625 278.127929688 1116.16015625 278.127929688 778.240234375 278.127929688 c 0,0,1
182.272460938 1068.65625 m 0,15,16
 159.744140625 1068.65625 159.744140625 1068.65625 145.408203125 1054.3203125 c 128,-1,17
 131.072265625 1039.984375 131.072265625 1039.984375 131.072265625 1017.45605469 c 128,-1,18
 131.072265625 994.927734375 131.072265625 994.927734375 145.408203125 980.591796875 c 128,-1,19
 159.744140625 966.255859375 159.744140625 966.255859375 182.272460938 966.255859375 c 0,20,21
 231.423828125 966.255859375 231.423828125 966.255859375 231.423828125 1017.45605469 c 128,-1,22
 231.423828125 1068.65625 231.423828125 1068.65625 182.272460938 1068.65625 c 0,15,16
450.559570312 1197.6796875 m 0,23,24
 397.311523438 1197.6796875 397.311523438 1197.6796875 397.311523438 1146.48046875 c 128,-1,25
 397.311523438 1095.28027344 397.311523438 1095.28027344 450.559570312 1095.28027344 c 0,26,27
 499.711914062 1095.28027344 499.711914062 1095.28027344 499.711914062 1146.48046875 c 128,-1,28
 499.711914062 1197.6796875 499.711914062 1197.6796875 450.559570312 1197.6796875 c 0,23,24
1103.87207031 1197.6796875 m 0,29,30
 1083.39160156 1197.6796875 1083.39160156 1197.6796875 1069.05566406 1182.3203125 c 128,-1,31
 1054.71972656 1166.95996094 1054.71972656 1166.95996094 1054.71972656 1146.48046875 c 0,32,33
 1054.71972656 1095.28027344 1054.71972656 1095.28027344 1103.87207031 1095.28027344 c 0,34,35
 1155.07226562 1095.28027344 1155.07226562 1095.28027344 1155.07226562 1146.48046875 c 128,-1,36
 1155.07226562 1197.6796875 1155.07226562 1197.6796875 1103.87207031 1197.6796875 c 0,29,30
1370.11230469 1068.65625 m 0,37,38
 1320.95996094 1068.65625 1320.95996094 1068.65625 1320.95996094 1017.45605469 c 128,-1,39
 1320.95996094 966.255859375 1320.95996094 966.255859375 1370.11230469 966.255859375 c 0,40,41
 1421.31152344 966.255859375 1421.31152344 966.255859375 1421.31152344 1017.45605469 c 0,42,43
 1421.31152344 1039.984375 1421.31152344 1039.984375 1406.97558594 1054.3203125 c 128,-1,44
 1392.63964844 1068.65625 1392.63964844 1068.65625 1370.11230469 1068.65625 c 0,37,38
1165.31152344 288.368164062 m 0,45,46
 1165.31152344 276.080078125 1165.31152344 276.080078125 1193.984375 209.51953125 c 128,-1,47
 1222.65625 142.959960938 1222.65625 142.959960938 1222.65625 89.7119140625 c 0,48,49
 1222.65625 40.5595703125 1222.65625 40.5595703125 1082.36816406 19.0556640625 c 128,-1,50
 942.080078125 -2.4482421875 942.080078125 -2.4482421875 776.192382812 -2.4482421875 c 0,51,52
 587.776367188 -2.4482421875 587.776367188 -2.4482421875 459.776367188 23.15234375 c 128,-1,53
 331.776367188 48.751953125 331.776367188 48.751953125 331.776367188 89.7119140625 c 0,54,55
 331.776367188 145.0078125 331.776367188 145.0078125 359.423828125 210.543945312 c 128,-1,56
 387.072265625 276.080078125 387.072265625 276.080078125 387.072265625 288.368164062 c 0,57,58
 387.072265625 323.18359375 387.072265625 323.18359375 310.272460938 412.272460938 c 128,-1,59
 233.471679688 501.360351562 233.471679688 501.360351562 233.471679688 521.83984375 c 0,60,61
 233.471679688 534.127929688 233.471679688 534.127929688 218.112304688 585.328125 c 128,-1,62
 202.751953125 636.528320312 202.751953125 636.528320312 184.3203125 720.49609375 c 128,-1,63
 165.887695312 804.463867188 165.887695312 804.463867188 159.744140625 892.528320312 c 1,64,65
 65.5361328125 931.440429688 65.5361328125 931.440429688 65.5361328125 1017.45605469 c 0,66,67
 65.5361328125 1066.60839844 65.5361328125 1066.60839844 99.328125 1099.37597656 c 128,-1,68
 133.120117188 1132.14355469 133.120117188 1132.14355469 182.272460938 1132.14355469 c 0,69,70
 229.375976562 1132.14355469 229.375976562 1132.14355469 263.16796875 1098.3515625 c 128,-1,71
 296.959960938 1064.55957031 296.959960938 1064.55957031 296.959960938 1017.45605469 c 0,72,73
 296.959960938 1015.40820312 296.959960938 1015.40820312 291.83984375 979.568359375 c 128,-1,74
 286.719726562 943.727539062 286.719726562 943.727539062 286.719726562 939.631835938 c 0,75,76
 286.719726562 847.471679688 286.719726562 847.471679688 417.791992188 714.3515625 c 1,77,78
 428.032226562 798.3203125 428.032226562 798.3203125 428.032226562 890.48046875 c 0,79,80
 428.032226562 966.255859375 428.032226562 966.255859375 413.696289062 1009.26367188 c 128,-1,81
 399.360351562 1052.27246094 399.360351562 1052.27246094 380.927734375 1062.51171875 c 128,-1,82
 362.49609375 1072.75195312 362.49609375 1072.75195312 348.16015625 1093.23242188 c 128,-1,83
 333.82421875 1113.71191406 333.82421875 1113.71191406 333.82421875 1150.57617188 c 0,84,85
 333.82421875 1199.72753906 333.82421875 1199.72753906 367.616210938 1232.49609375 c 128,-1,86
 401.408203125 1265.26367188 401.408203125 1265.26367188 450.559570312 1265.26367188 c 0,87,88
 497.6640625 1265.26367188 497.6640625 1265.26367188 531.456054688 1231.47167969 c 128,-1,89
 565.248046875 1197.6796875 565.248046875 1197.6796875 565.248046875 1150.57617188 c 0,90,91
 565.248046875 1146.48046875 565.248046875 1146.48046875 558.080078125 1107.56835938 c 128,-1,92
 550.912109375 1068.65625 550.912109375 1068.65625 550.912109375 1062.51171875 c 0,93,94
 550.912109375 947.82421875 550.912109375 947.82421875 663.551757812 712.303710938 c 1,95,96
 706.559570312 904.81640625 706.559570312 904.81640625 706.559570312 1007.21582031 c 0,97,98
 706.559570312 1080.94433594 706.559570312 1080.94433594 685.055664062 1141.36035156 c 128,-1,99
 663.551757812 1201.77636719 663.551757812 1201.77636719 663.551757812 1205.87207031 c 0,100,101
 663.551757812 1255.02441406 663.551757812 1255.02441406 697.34375 1287.79199219 c 128,-1,102
 731.135742188 1320.55957031 731.135742188 1320.55957031 778.240234375 1320.55957031 c 128,-1,103
 825.34375 1320.55957031 825.34375 1320.55957031 857.087890625 1286.76757812 c 128,-1,104
 888.83203125 1252.97558594 888.83203125 1252.97558594 888.83203125 1205.87207031 c 0,105,106
 888.83203125 1195.63183594 888.83203125 1195.63183594 867.328125 1138.28808594 c 128,-1,107
 845.82421875 1080.94433594 845.82421875 1080.94433594 845.82421875 1007.21582031 c 0,108,109
 845.82421875 904.81640625 845.82421875 904.81640625 888.83203125 712.303710938 c 1,110,111
 999.423828125 945.776367188 999.423828125 945.776367188 999.423828125 1062.51171875 c 0,112,113
 999.423828125 1070.70410156 999.423828125 1070.70410156 993.280273438 1105.51953125 c 128,-1,114
 987.135742188 1140.3359375 987.135742188 1140.3359375 987.135742188 1150.57617188 c 0,115,116
 987.135742188 1199.72753906 987.135742188 1199.72753906 1020.92773438 1232.49609375 c 128,-1,117
 1054.71972656 1265.26367188 1054.71972656 1265.26367188 1103.87207031 1265.26367188 c 0,118,119
 1150.97558594 1265.26367188 1150.97558594 1265.26367188 1184.76757812 1231.47167969 c 128,-1,120
 1218.55957031 1197.6796875 1218.55957031 1197.6796875 1218.55957031 1150.57617188 c 0,121,122
 1218.55957031 1119.85644531 1218.55957031 1119.85644531 1209.34375 1102.44824219 c 128,-1,123
 1200.12792969 1085.04003906 1200.12792969 1085.04003906 1185.79199219 1072.75195312 c 128,-1,124
 1171.45605469 1060.46386719 1171.45605469 1060.46386719 1157.12011719 1043.05566406 c 128,-1,125
 1142.78417969 1025.6484375 1142.78417969 1025.6484375 1133.56835938 986.736328125 c 128,-1,126
 1124.3515625 947.82421875 1124.3515625 947.82421875 1124.3515625 888.431640625 c 0,127,128
 1124.3515625 798.3203125 1124.3515625 798.3203125 1134.59179688 714.3515625 c 1,129,130
 1265.6640625 847.471679688 1265.6640625 847.471679688 1265.6640625 939.631835938 c 0,131,132
 1265.6640625 986.736328125 1265.6640625 986.736328125 1255.42382812 1017.45605469 c 1,133,134
 1255.42382812 1064.55957031 1255.42382812 1064.55957031 1289.21582031 1098.3515625 c 128,-1,135
 1323.0078125 1132.14355469 1323.0078125 1132.14355469 1370.11230469 1132.14355469 c 0,136,137
 1419.26367188 1132.14355469 1419.26367188 1132.14355469 1453.05566406 1098.3515625 c 128,-1,138
 1486.84765625 1064.55957031 1486.84765625 1064.55957031 1486.84765625 1017.45605469 c 0,139,140
 1486.84765625 935.536132812 1486.84765625 935.536132812 1392.63964844 892.528320312 c 1,141,142
 1380.3515625 763.50390625 1380.3515625 763.50390625 1349.63183594 653.935546875 c 128,-1,143
 1318.91210938 544.368164062 1318.91210938 544.368164062 1318.91210938 521.83984375 c 0,144,145
 1318.91210938 503.408203125 1318.91210938 503.408203125 1242.11230469 413.295898438 c 128,-1,146
 1165.31152344 323.18359375 1165.31152344 323.18359375 1165.31152344 288.368164062 c 0,45,46
778.240234375 1261.16796875 m 128,-1,148
 757.759765625 1261.16796875 757.759765625 1261.16796875 742.400390625 1246.83203125 c 128,-1,149
 727.040039062 1232.49609375 727.040039062 1232.49609375 727.040039062 1209.96777344 c 128,-1,150
 727.040039062 1187.44042969 727.040039062 1187.44042969 742.400390625 1173.10351562 c 128,-1,151
 757.759765625 1158.76757812 757.759765625 1158.76757812 778.240234375 1158.76757812 c 0,152,153
 827.391601562 1158.76757812 827.391601562 1158.76757812 827.391601562 1209.96777344 c 0,154,155
 827.391601562 1230.44824219 827.391601562 1230.44824219 813.055664062 1245.80761719 c 128,-1,147
 798.719726562 1261.16796875 798.719726562 1261.16796875 778.240234375 1261.16796875 c 128,-1,148
1146.87988281 462.448242188 m 0,156,157
 1146.87988281 497.263671875 1146.87988281 497.263671875 1025.02441406 512.624023438 c 128,-1,158
 903.16796875 527.984375 903.16796875 527.984375 778.240234375 527.984375 c 0,159,160
 659.456054688 527.984375 659.456054688 527.984375 533.50390625 511.599609375 c 128,-1,161
 407.551757812 495.215820312 407.551757812 495.215820312 407.551757812 460.400390625 c 0,162,163
 407.551757812 431.727539062 407.551757812 431.727539062 460.799804688 431.727539062 c 0,164,165
 505.856445312 431.727539062 505.856445312 431.727539062 612.3515625 438.896484375 c 128,-1,166
 718.84765625 446.064453125 718.84765625 446.064453125 780.288085938 446.064453125 c 0,167,168
 843.776367188 446.064453125 843.776367188 446.064453125 967.6796875 438.896484375 c 128,-1,169
 1091.58398438 431.727539062 1091.58398438 431.727539062 1097.72753906 431.727539062 c 0,170,171
 1146.87988281 431.727539062 1146.87988281 431.727539062 1146.87988281 462.448242188 c 0,156,157
EndSplineSet
Validated: 525313
EndChar

StartChar: uni265C
Encoding: 9820 9820 195
Width: 2048
LayerCount: 2
Fore
SplineSet
301.055664062 -0.400390625 m 1,0,-1
 262.143554688 38.51171875 l 1,1,-1
 262.143554688 183.919921875 l 1,2,-1
 468.9921875 388.719726562 l 1,3,-1
 468.9921875 796.272460938 l 1,4,-1
 309.248046875 953.967773438 l 1,5,-1
 309.248046875 1136.24023438 l 1,6,-1
 366.591796875 1193.58398438 l 1,7,-1
 512 1193.58398438 l 1,8,-1
 548.864257812 1158.76757812 l 1,9,-1
 548.864257812 1107.56835938 l 1,10,-1
 626.688476562 1107.56835938 l 1,11,-1
 626.688476562 1158.76757812 l 1,12,-1
 661.50390625 1193.58398438 l 1,13,-1
 888.83203125 1193.58398438 l 1,14,-1
 923.6484375 1158.76757812 l 1,15,-1
 923.6484375 1107.56835938 l 1,16,-1
 1001.47167969 1107.56835938 l 1,17,-1
 1001.47167969 1158.76757812 l 1,18,-1
 1036.28808594 1193.58398438 l 1,19,-1
 1183.74414062 1193.58398438 l 1,20,-1
 1241.08789062 1136.24023438 l 1,21,-1
 1241.08789062 953.967773438 l 1,22,-1
 1081.34375 796.272460938 l 1,23,-1
 1081.34375 388.719726562 l 1,24,-1
 1288.19238281 183.919921875 l 1,25,-1
 1288.19238281 38.51171875 l 1,26,-1
 1247.23242188 -0.400390625 l 1,27,-1
 301.055664062 -0.400390625 l 1,0,-1
542.719726562 435.82421875 m 1,28,-1
 542.719726562 366.192382812 l 1,29,-1
 1007.61621094 366.192382812 l 1,30,-1
 1007.61621094 435.82421875 l 1,31,-1
 542.719726562 435.82421875 l 1,28,-1
542.719726562 804.463867188 m 1,32,-1
 542.719726562 734.83203125 l 1,33,-1
 1007.61621094 734.83203125 l 1,34,-1
 1007.61621094 804.463867188 l 1,35,-1
 542.719726562 804.463867188 l 1,32,-1
EndSplineSet
Validated: 524289
EndChar

StartChar: uni265D
Encoding: 9821 9821 196
Width: 2048
LayerCount: 2
Fore
SplineSet
675.83984375 472.688476562 m 2,0,1
 571.391601562 472.688476562 571.391601562 472.688476562 571.391601562 439.919921875 c 0,2,3
 571.391601562 405.103515625 571.391601562 405.103515625 776.192382812 405.103515625 c 128,-1,4
 980.9921875 405.103515625 980.9921875 405.103515625 980.9921875 439.919921875 c 0,5,6
 980.9921875 472.688476562 980.9921875 472.688476562 876.543945312 472.688476562 c 2,7,-1
 675.83984375 472.688476562 l 2,0,1
776.192382812 534.127929688 m 0,8,9
 905.215820312 534.127929688 905.215820312 534.127929688 943.103515625 540.272460938 c 128,-1,10
 980.9921875 546.416015625 980.9921875 546.416015625 980.9921875 566.896484375 c 0,11,12
 980.9921875 599.6640625 980.9921875 599.6640625 876.543945312 599.6640625 c 2,13,-1
 651.263671875 599.6640625 l 2,14,15
 571.391601562 599.6640625 571.391601562 599.6640625 571.391601562 566.896484375 c 0,16,17
 571.391601562 546.416015625 571.391601562 546.416015625 612.3515625 540.272460938 c 128,-1,18
 653.311523438 534.127929688 653.311523438 534.127929688 776.192382812 534.127929688 c 0,8,9
497.6640625 501.360351562 m 0,19,20
 497.6640625 505.456054688 497.6640625 505.456054688 465.919921875 544.368164062 c 128,-1,21
 434.17578125 583.280273438 434.17578125 583.280273438 403.456054688 646.767578125 c 128,-1,22
 372.736328125 710.255859375 372.736328125 710.255859375 372.736328125 771.696289062 c 0,23,24
 372.736328125 906.864257812 372.736328125 906.864257812 473.087890625 1003.12011719 c 128,-1,25
 573.440429688 1099.37597656 573.440429688 1099.37597656 677.887695312 1123.95214844 c 1,26,27
 632.83203125 1179.24804688 632.83203125 1179.24804688 632.83203125 1238.63964844 c 128,-1,28
 632.83203125 1298.03222656 632.83203125 1298.03222656 672.767578125 1330.79980469 c 128,-1,29
 712.704101562 1363.56835938 712.704101562 1363.56835938 776.192382812 1363.56835938 c 0,30,31
 837.631835938 1363.56835938 837.631835938 1363.56835938 878.591796875 1329.77636719 c 128,-1,32
 919.551757812 1295.984375 919.551757812 1295.984375 919.551757812 1238.63964844 c 128,-1,33
 919.551757812 1181.29589844 919.551757812 1181.29589844 874.49609375 1123.95214844 c 1,34,35
 989.18359375 1095.28027344 989.18359375 1095.28027344 1084.41601562 1004.14355469 c 128,-1,36
 1179.6484375 913.0078125 1179.6484375 913.0078125 1179.6484375 771.696289062 c 0,37,38
 1179.6484375 652.912109375 1179.6484375 652.912109375 1056.76757812 511.599609375 c 0,39,40
 1056.76757812 499.311523438 1056.76757812 499.311523438 1076.22363281 436.84765625 c 128,-1,41
 1095.6796875 374.383789062 1095.6796875 374.383789062 1097.72753906 353.904296875 c 0,42,43
 1097.72753906 282.223632812 1097.72753906 282.223632812 952.3203125 269.935546875 c 1,44,45
 1058.81640625 228.975585938 1058.81640625 228.975585938 1150.97558594 228.975585938 c 2,46,-1
 1271.80761719 235.120117188 l 2,47,48
 1333.24804688 235.120117188 1333.24804688 235.120117188 1369.08789062 202.3515625 c 128,-1,49
 1404.92773438 169.583984375 1404.92773438 169.583984375 1439.74414062 104.047851562 c 1,50,51
 1433.59960938 95.8564453125 1433.59960938 95.8564453125 1403.90429688 46.7041015625 c 128,-1,52
 1374.20800781 -2.4482421875 1374.20800781 -2.4482421875 1350.65625 -27.0244140625 c 128,-1,53
 1327.10351562 -51.599609375 1327.10351562 -51.599609375 1296.38378906 -61.83984375 c 1,54,55
 1290.24023438 -29.072265625 1290.24023438 -29.072265625 1228.79980469 -15.759765625 c 128,-1,56
 1167.36035156 -2.4482421875 1167.36035156 -2.4482421875 1088.51171875 -0.400390625 c 128,-1,57
 1009.6640625 1.6484375 1009.6640625 1.6484375 918.528320312 27.248046875 c 128,-1,58
 827.391601562 52.84765625 827.391601562 52.84765625 776.192382812 104.047851562 c 1,59,60
 712.704101562 38.51171875 712.704101562 38.51171875 584.704101562 17.0078125 c 128,-1,61
 456.704101562 -4.49609375 456.704101562 -4.49609375 360.448242188 -13.7119140625 c 128,-1,62
 264.192382812 -22.927734375 264.192382812 -22.927734375 256 -61.83984375 c 1,63,64
 225.280273438 -49.5517578125 225.280273438 -49.5517578125 202.751953125 -23.9521484375 c 128,-1,65
 180.223632812 1.6484375 180.223632812 1.6484375 152.576171875 44.65625 c 128,-1,66
 124.927734375 87.6640625 124.927734375 87.6640625 112.639648438 104.047851562 c 1,67,68
 145.408203125 167.536132812 145.408203125 167.536132812 182.272460938 201.328125 c 128,-1,69
 219.135742188 235.120117188 219.135742188 235.120117188 280.576171875 235.120117188 c 0,70,71
 389.120117188 228.975585938 389.120117188 228.975585938 401.408203125 228.975585938 c 0,72,73
 495.616210938 228.975585938 495.616210938 228.975585938 600.064453125 269.935546875 c 1,74,75
 454.65625 282.223632812 454.65625 282.223632812 454.65625 353.904296875 c 0,76,77
 454.65625 368.240234375 454.65625 368.240234375 476.16015625 426.608398438 c 128,-1,78
 497.6640625 484.975585938 497.6640625 484.975585938 497.6640625 501.360351562 c 0,19,20
813.055664062 702.064453125 m 1,79,-1
 813.055664062 796.272460938 l 1,80,-1
 884.736328125 796.272460938 l 1,81,-1
 884.736328125 874.095703125 l 1,82,-1
 813.055664062 874.095703125 l 1,83,-1
 813.055664062 962.16015625 l 1,84,-1
 739.328125 962.16015625 l 1,85,-1
 739.328125 874.095703125 l 1,86,-1
 667.6484375 874.095703125 l 1,87,-1
 667.6484375 796.272460938 l 1,88,-1
 739.328125 796.272460938 l 1,89,-1
 739.328125 702.064453125 l 1,90,-1
 813.055664062 702.064453125 l 1,79,-1
776.192382812 1279.59960938 m 0,91,92
 753.6640625 1279.59960938 753.6640625 1279.59960938 738.303710938 1265.26367188 c 128,-1,93
 722.944335938 1250.92773438 722.944335938 1250.92773438 722.944335938 1230.44824219 c 128,-1,94
 722.944335938 1209.96777344 722.944335938 1209.96777344 738.303710938 1194.60839844 c 128,-1,95
 753.6640625 1179.24804688 753.6640625 1179.24804688 776.192382812 1179.24804688 c 0,96,97
 827.391601562 1179.24804688 827.391601562 1179.24804688 827.391601562 1230.44824219 c 0,98,99
 827.391601562 1279.59960938 827.391601562 1279.59960938 776.192382812 1279.59960938 c 0,91,92
EndSplineSet
Validated: 524289
EndChar

StartChar: uni265E
Encoding: 9822 9822 197
Width: 2048
LayerCount: 2
Fore
SplineSet
421.887695312 728.688476562 m 0,0,1
 458.751953125 728.688476562 458.751953125 728.688476562 509.952148438 768.624023438 c 128,-1,2
 561.15234375 808.559570312 561.15234375 808.559570312 561.15234375 841.328125 c 0,3,4
 561.15234375 867.952148438 561.15234375 867.952148438 512 867.952148438 c 0,5,6
 471.040039062 867.952148438 471.040039062 867.952148438 433.15234375 835.18359375 c 128,-1,7
 395.263671875 802.416015625 395.263671875 802.416015625 395.263671875 765.551757812 c 128,-1,8
 395.263671875 728.688476562 395.263671875 728.688476562 421.887695312 728.688476562 c 0,0,1
139.263671875 392.81640625 m 1,9,10
 151.551757812 468.591796875 151.551757812 468.591796875 274.431640625 728.688476562 c 128,-1,11
 397.311523438 988.784179688 397.311523438 988.784179688 397.311523438 1066.60839844 c 0,12,13
 397.311523438 1128.04785156 397.311523438 1128.04785156 387.072265625 1177.20019531 c 1,14,15
 548.864257812 1177.20019531 548.864257812 1177.20019531 616.448242188 1109.61621094 c 1,16,17
 675.83984375 1205.87207031 675.83984375 1205.87207031 706.559570312 1205.87207031 c 1,18,19
 761.856445312 1175.15234375 761.856445312 1175.15234375 779.263671875 1148.52832031 c 128,-1,20
 796.671875 1121.90429688 796.671875 1121.90429688 823.295898438 1039.984375 c 1,21,22
 839.6796875 1044.08007812 839.6796875 1044.08007812 856.064453125 1044.08007812 c 0,23,24
 899.072265625 1044.08007812 899.072265625 1044.08007812 957.440429688 1021.55175781 c 128,-1,25
 1015.80761719 999.024414062 1015.80761719 999.024414062 1089.53613281 936.559570312 c 128,-1,26
 1163.26367188 874.095703125 1163.26367188 874.095703125 1224.70410156 780.912109375 c 128,-1,27
 1286.14355469 687.727539062 1286.14355469 687.727539062 1328.12792969 527.984375 c 128,-1,28
 1370.11230469 368.240234375 1370.11230469 368.240234375 1370.11230469 169.583984375 c 0,29,30
 1370.11230469 75.3759765625 1370.11230469 75.3759765625 1361.91992188 -0.400390625 c 1,31,-1
 497.6640625 -0.400390625 l 1,32,33
 499.711914062 89.7119140625 499.711914062 89.7119140625 534.528320312 162.416015625 c 128,-1,34
 569.34375 235.120117188 569.34375 235.120117188 609.280273438 276.080078125 c 128,-1,35
 649.215820312 317.040039062 649.215820312 317.040039062 686.080078125 376.431640625 c 128,-1,36
 722.944335938 435.82421875 722.944335938 435.82421875 731.135742188 499.311523438 c 1,37,38
 653.311523438 468.591796875 653.311523438 468.591796875 595.967773438 417.391601562 c 128,-1,39
 538.624023438 366.192382812 538.624023438 366.192382812 516.095703125 324.208007812 c 128,-1,40
 493.568359375 282.223632812 493.568359375 282.223632812 472.064453125 250.48046875 c 128,-1,41
 450.559570312 218.736328125 450.559570312 218.736328125 430.080078125 218.736328125 c 0,42,43
 378.879882812 218.736328125 378.879882812 218.736328125 378.879882812 282.223632812 c 1,44,45
 358.400390625 255.599609375 358.400390625 255.599609375 331.776367188 255.599609375 c 2,46,-1
 290.81640625 265.83984375 l 2,47,48
 227.328125 282.223632812 227.328125 282.223632812 197.631835938 307.82421875 c 128,-1,49
 167.935546875 333.423828125 167.935546875 333.423828125 139.263671875 392.81640625 c 1,9,10
264.192382812 458.3515625 m 1,50,51
 235.51953125 458.3515625 235.51953125 458.3515625 215.040039062 439.919921875 c 128,-1,52
 194.559570312 421.48828125 194.559570312 421.48828125 194.559570312 394.864257812 c 0,53,54
 194.559570312 386.671875 194.559570312 386.671875 200.704101562 374.383789062 c 1,55,56
 229.375976562 374.383789062 229.375976562 374.383789062 248.83203125 390.767578125 c 128,-1,57
 268.288085938 407.15234375 268.288085938 407.15234375 268.288085938 433.776367188 c 0,58,59
 268.288085938 437.872070312 268.288085938 437.872070312 264.192382812 458.3515625 c 1,50,51
1269.75976562 142.959960938 m 0,60,61
 1269.75976562 294.51171875 1269.75976562 294.51171875 1233.91992188 431.727539062 c 128,-1,62
 1198.08007812 568.944335938 1198.08007812 568.944335938 1143.80761719 661.103515625 c 128,-1,63
 1089.53613281 753.263671875 1089.53613281 753.263671875 1026.04785156 821.872070312 c 128,-1,64
 962.559570312 890.48046875 962.559570312 890.48046875 907.263671875 922.223632812 c 128,-1,65
 851.967773438 953.967773438 851.967773438 953.967773438 813.055664062 953.967773438 c 0,66,67
 774.143554688 949.872070312 774.143554688 949.872070312 774.143554688 927.34375 c 0,68,69
 774.143554688 915.055664062 774.143554688 915.055664062 780.288085938 910.959960938 c 0,70,71
 983.040039062 808.559570312 983.040039062 808.559570312 1088.51171875 596.591796875 c 128,-1,72
 1193.984375 384.624023438 1193.984375 384.624023438 1193.984375 145.0078125 c 0,73,74
 1193.984375 89.7119140625 1193.984375 89.7119140625 1232.89648438 89.7119140625 c 0,75,76
 1269.75976562 89.7119140625 1269.75976562 89.7119140625 1269.75976562 142.959960938 c 0,60,61
EndSplineSet
Validated: 524289
EndChar

StartChar: uni265F
Encoding: 9823 9823 198
Width: 2048
LayerCount: 2
Fore
SplineSet
915.456054688 929.391601562 m 1,0,1
 1056.76757812 870 1056.76757812 870 1056.76757812 734.83203125 c 0,2,3
 1056.76757812 671.34375 1056.76757812 671.34375 1024 619.120117188 c 128,-1,4
 991.232421875 566.896484375 991.232421875 566.896484375 942.080078125 550.51171875 c 1,5,6
 1083.39160156 478.83203125 1083.39160156 478.83203125 1148.92773438 376.431640625 c 128,-1,7
 1214.46386719 274.032226562 1214.46386719 274.032226562 1214.46386719 95.8564453125 c 0,8,9
 1214.46386719 24.17578125 1214.46386719 24.17578125 1212.41601562 -0.400390625 c 1,10,-1
 337.919921875 -0.400390625 l 1,11,12
 335.872070312 24.17578125 335.872070312 24.17578125 335.872070312 95.8564453125 c 0,13,14
 335.872070312 271.984375 335.872070312 271.984375 402.431640625 376.431640625 c 128,-1,15
 468.9921875 480.879882812 468.9921875 480.879882812 610.303710938 550.51171875 c 1,16,17
 559.103515625 566.896484375 559.103515625 566.896484375 526.3359375 618.095703125 c 128,-1,18
 493.568359375 669.295898438 493.568359375 669.295898438 493.568359375 734.83203125 c 0,19,20
 493.568359375 872.047851562 493.568359375 872.047851562 634.879882812 929.391601562 c 1,21,22
 598.015625 990.83203125 598.015625 990.83203125 598.015625 1046.12792969 c 0,23,24
 598.015625 1113.71191406 598.015625 1113.71191406 651.263671875 1158.76757812 c 128,-1,25
 704.51171875 1203.82421875 704.51171875 1203.82421875 776.192382812 1203.82421875 c 128,-1,26
 847.872070312 1203.82421875 847.872070312 1203.82421875 899.072265625 1158.76757812 c 128,-1,27
 950.272460938 1113.71191406 950.272460938 1113.71191406 950.272460938 1046.12792969 c 0,28,29
 950.272460938 986.736328125 950.272460938 986.736328125 915.456054688 929.391601562 c 1,0,1
EndSplineSet
Validated: 524289
EndChar

StartChar: uni0001
Encoding: 1 1 199
Width: 2048
LayerCount: 2
Fore
SplineSet
700.416015625 558.704101562 m 0,0,1
 700.416015625 534.127929688 700.416015625 534.127929688 670.719726562 511.599609375 c 128,-1,2
 641.024414062 489.072265625 641.024414062 489.072265625 598.015625 461.423828125 c 128,-1,3
 555.0078125 433.776367188 555.0078125 433.776367188 512 392.81640625 c 128,-1,4
 468.9921875 351.856445312 468.9921875 351.856445312 439.295898438 271.984375 c 128,-1,5
 409.599609375 192.112304688 409.599609375 192.112304688 409.599609375 81.51953125 c 1,6,-1
 1140.73632812 81.51953125 l 1,7,8
 1140.73632812 173.6796875 1140.73632812 173.6796875 1119.23242188 246.383789062 c 128,-1,9
 1097.72753906 319.087890625 1097.72753906 319.087890625 1064.95996094 359.024414062 c 128,-1,10
 1032.19238281 398.959960938 1032.19238281 398.959960938 994.303710938 430.704101562 c 128,-1,11
 956.416015625 462.448242188 956.416015625 462.448242188 923.6484375 478.83203125 c 128,-1,12
 890.879882812 495.215820312 890.879882812 495.215820312 869.375976562 515.696289062 c 128,-1,13
 847.872070312 536.17578125 847.872070312 536.17578125 847.872070312 558.704101562 c 0,14,15
 847.872070312 579.18359375 847.872070312 579.18359375 866.303710938 592.49609375 c 128,-1,16
 884.736328125 605.807617188 884.736328125 605.807617188 908.288085938 615.024414062 c 128,-1,17
 931.83984375 624.240234375 931.83984375 624.240234375 950.272460938 653.935546875 c 128,-1,18
 968.704101562 683.631835938 968.704101562 683.631835938 968.704101562 730.736328125 c 128,-1,19
 968.704101562 777.83984375 968.704101562 777.83984375 946.17578125 812.65625 c 128,-1,20
 923.6484375 847.471679688 923.6484375 847.471679688 897.024414062 862.83203125 c 128,-1,21
 870.400390625 878.192382812 870.400390625 878.192382812 847.872070312 895.599609375 c 128,-1,22
 825.34375 913.0078125 825.34375 913.0078125 825.34375 927.34375 c 0,23,24
 825.34375 958.064453125 825.34375 958.064453125 845.82421875 991.856445312 c 128,-1,25
 866.303710938 1025.6484375 866.303710938 1025.6484375 866.303710938 1046.12792969 c 0,26,27
 866.303710938 1082.9921875 866.303710938 1082.9921875 837.631835938 1108.59179688 c 128,-1,28
 808.959960938 1134.19238281 808.959960938 1134.19238281 772.095703125 1134.19238281 c 0,29,30
 737.280273438 1134.19238281 737.280273438 1134.19238281 709.631835938 1108.59179688 c 128,-1,31
 681.984375 1082.9921875 681.984375 1082.9921875 681.984375 1050.22363281 c 0,32,33
 681.984375 1029.74414062 681.984375 1029.74414062 702.463867188 993.904296875 c 128,-1,34
 722.944335938 958.064453125 722.944335938 958.064453125 722.944335938 927.34375 c 0,35,36
 722.944335938 913.0078125 722.944335938 913.0078125 700.416015625 895.599609375 c 128,-1,37
 677.887695312 878.192382812 677.887695312 878.192382812 652.288085938 861.807617188 c 128,-1,38
 626.688476562 845.423828125 626.688476562 845.423828125 604.16015625 810.608398438 c 128,-1,39
 581.631835938 775.791992188 581.631835938 775.791992188 581.631835938 730.736328125 c 0,40,41
 581.631835938 683.631835938 581.631835938 683.631835938 611.328125 648.81640625 c 128,-1,42
 641.024414062 614 641.024414062 614 670.719726562 593.51953125 c 128,-1,43
 700.416015625 573.040039062 700.416015625 573.040039062 700.416015625 558.704101562 c 0,0,1
337.919921875 -0.400390625 m 1,44,45
 335.872070312 24.17578125 335.872070312 24.17578125 335.872070312 93.8076171875 c 0,46,47
 335.872070312 271.984375 335.872070312 271.984375 401.408203125 375.408203125 c 128,-1,48
 466.944335938 478.83203125 466.944335938 478.83203125 608.255859375 550.51171875 c 1,49,50
 559.103515625 566.896484375 559.103515625 566.896484375 526.3359375 618.095703125 c 128,-1,51
 493.568359375 669.295898438 493.568359375 669.295898438 493.568359375 732.784179688 c 0,52,53
 493.568359375 870 493.568359375 870 632.83203125 929.391601562 c 1,54,55
 600.064453125 988.784179688 600.064453125 988.784179688 600.064453125 1046.12792969 c 0,56,57
 600.064453125 1115.75976562 600.064453125 1115.75976562 652.288085938 1159.79199219 c 128,-1,58
 704.51171875 1203.82421875 704.51171875 1203.82421875 776.192382812 1203.82421875 c 128,-1,59
 847.872070312 1203.82421875 847.872070312 1203.82421875 900.095703125 1158.76757812 c 128,-1,60
 952.3203125 1113.71191406 952.3203125 1113.71191406 952.3203125 1046.12792969 c 0,61,62
 952.3203125 990.83203125 952.3203125 990.83203125 915.456054688 929.391601562 c 1,63,64
 1056.76757812 872.047851562 1056.76757812 872.047851562 1056.76757812 732.784179688 c 0,65,66
 1056.76757812 667.248046875 1056.76757812 667.248046875 1022.97558594 617.072265625 c 128,-1,67
 989.18359375 566.896484375 989.18359375 566.896484375 940.032226562 550.51171875 c 1,68,69
 1081.34375 476.784179688 1081.34375 476.784179688 1147.90429688 374.383789062 c 128,-1,70
 1214.46386719 271.984375 1214.46386719 271.984375 1214.46386719 93.8076171875 c 0,71,72
 1214.46386719 26.2236328125 1214.46386719 26.2236328125 1212.41601562 -0.400390625 c 1,73,-1
 337.919921875 -0.400390625 l 1,44,45
EndSplineSet
Validated: 524289
EndChar

